<mxfile host="app.diagrams.net" modified="2022-03-06T01:03:49.654Z" agent="5.0 (X11; Linux x86_64) AppleWebKit/537.36 (KHTML, like Gecko) Chrome/99.0.4844.51 Safari/537.36" etag="GubOOUcdLVfCq9AauyPq" version="16.6.6" type="github">
  <diagram id="R2a13e9JZ4WAjRa7XBlS" name="Page-1">
    <mxGraphModel dx="1169" dy="615" grid="1" gridSize="10" guides="1" tooltips="1" connect="1" arrows="1" fold="1" page="1" pageScale="1" pageWidth="850" pageHeight="1100" math="0" shadow="0">
      <root>
        <mxCell id="0" />
        <mxCell id="1" parent="0" />
        <mxCell id="6sAX6CW_VxseGW1VvVSd-1" value="" style="shape=image;verticalLabelPosition=bottom;labelBackgroundColor=default;verticalAlign=top;aspect=fixed;imageAspect=0;image=data:image/png,iVBORw0KGgoAAAANSUhEUgAAAggAAAEPCAYAAAAnETxGAAAAAXNSR0IArs4c6QAAIABJREFUeF7svWeUXdd1Jvjd+1LlQkYhExkgCIIRBAmAmRRFSrJlK2dZljzd7uXp6ZanZ6Z7fkx7/GfWGrcty7Jky5JsLUmtTEkUs5hAEswASASSSETOQCVUeuHO2nuffc65990XqgBQmvGUFy2y6r17T9hn729/O5zgo5/5b9HcTAFtQQBEEYAImSBEJoqQQYAKIgQR+B/6G/1Pmf83QBAEiAL6Pf2J/hIgBBDKX/nz8q3YR2K/C6OIn0PfD+k7UYQyKkAQIKhECEN6Iv1aPlepVBCEITKFPALzHfrfTCbDn80EAbJhSF9HFAbyHACZMINMGCCrY+HRBqCPRBV5drlc5sGGYYAygOGogkomRFsmizytCY3HzJXeGQQhQnoRAl6RCq0BvdK8w/6PLlIIHnupRE93K0Nz0m/R2vFPRdY6yARAmHFPDAD6rzCSd9LY6fv072EQIghpX8z8yxUeE/9N94uGmKGZy0B57VN+eDvNjxUNGo/dVpk/P53nXf0c/qj9k4y39rtEfpy0iMxFqPDe6hzpEbzitG9uhHb9eCz2v2LLJrvkyTG/kR5khk7yU+a9cD/++FMHzy9LzIvHmL6u8luzFnzc3NrJeOyqs2zSJPljdNZ0dSKwnNP/RZUKy30lIhmgz8qZJDmgtdD1qPBJFhnRsxay2Mlz6UdkxO2CPbcqBzyvipUZ/TudBXp62exJhQVLzm1sL+jMmP2jv0ZRgAp/p2zkkcbiyYARCdUPJMtBxLOObUV8pf3/Mk/zZNPOKf4xWXfSL6Uyn38VMKvezBtpbVmOedt0N53Y8t9VlfJ35LOsJ1ifid5kXUH7Ezs3yXk5Ibd/4YWrKYkiE7SKQcDvYt1iBcfJO8uGd+JUXuV4iD6KLRHJl5FXmos+Us6h6H2jvlknydPlvIlkiu7jdQtJ75IylL/zjvN4RTZ1fXWesjW0fjQX8ywaA+npIGC9TOeBzq7qiTItL6lOs758PoxOpd+FGdKRbHHMLpVFf9J8SvIempPuMcl0hcZr5NrKAG+v7KUugI6X15jlQeSJxYrWipemIufNs6NGNZkzSG90VtTXdd52ipzSC9Ve8P6pDiQdQPsm58DuqD3kYqedypGzxzYjCDCSySD44if/KlqdbUVnmYRKvkAKWTZbFIxsojOEtND0INpQNhI6MyMQdoOt4kyT6DQFaj5n/0eMkMiGHC4aTxhmkM1ljXGiv4lSl40JEZIBpLEZ0MDAJWMUZqUsczKgg79HggQVMPqLCA4Z0jCQtdBFZ4VbqaBcJsMVIpvJsrDRohZLRT4qdAB87ahbwMJBAKFcsmCHQAkbJd5EUdBqzNnYhxmE2YxTRgQQghCVcgWlUgmVSjlm5NXw8wH0dAk/l/dKlIeAuwBBVsAHCRKtsTWw5hDpc2h8aoRIwOnf1ZSIPJgdsPbWzNoYK9oXOfCeLJCiCDP8TloHFWS7l+bTtHfyd1F2bOgYOIoC5b1OGGQ5lA6s8XcJSOmBNqNnGTaKKcxkUgCCrkkNGTZbXW2kZGzeypjByCdFjgjglY2xABtL2hc6f6LgQ0S6LgkA5vSRrzqMQiEZoe96AIHUdGzteT90LIl9SdgfUZIim6L05bxZI+cpJf4D740DCPHHuTNu18wo89gZ877EsmOAaC3bmNQmAp7dvOJz8ICxcSDUkSDwbpc6CXr5DKgxiM+KjV5ILpWvN73zpCfEALsS6SF1pBKDj8myGR+fWeP48Kz0zOn4fYfM6Gx2WspqVEWXklyQXhMVbiA761S3Xyybxsjov5foOdZAk4ySns2IrfCArT3iZk58tsmpM3Lt9ITqYPMb1jdOz9HmOb0i++WAh/w36V0fiLJhY/3u6zOjM/jsy/mnobHDyCBBjHdEto/mZHQkAW/6Rx0GNfoMHo19YPEivWrOmkPzzhERuTLA27wrCDJOl/LvaB6y5CwTvH/yfl1bq+88uyU2Q3503RUQsH7mdXAymDjWFjLI6aZpCXANs1lk8jmMkTz/ySf/Kroy04JudmoFOWTNpquHKvBAhsJ+iBmNIK4YXOYB8SHimbEvobIWG1/K2Yv/XY0DL74ICytyD9Xp4okQu4Vi1GiQPBts6ynzkXGKUQ+teSYZWzo41pgZxOcQonuHsA4iqHxwI6Ac0SL6xzu2ffaz5VLJuopqkP3JW+9eXHxn5cxBZLxuDDZvLq0RLQDLhAMACgRUoeg8VMnSXmdyWWFPaO58iOSvpOxyWfkbAwOaHzMfIsCKWGUciurlxOhhEgMtYESMePyH358RzqRULPF7FLWrbIm3AQZfzLwYpaYKjZ/JnoCuk8hqRR5kXxhEZVSIIfJBEzNIhmViooaAnnfY+MOOoak+YGa27tVOoqzxdR6PlV1WdqK4mQGywMd4PaEoKgbE6gEawG7HYD0XNyoGlGaVRWm5/fTBgfoXZnqWOUybnzlwCYBgfBgPbDk5VpmtdgCsWjCb4E6HZ/a9c6yKi+XHAJKY95QyYKvs7OR0SzxfycfvIkBGbo0x018l5TUJcGN/Nx6wAdsOHBq2wUqGrA+dNWZnrYF3D6sGle5cxS2C0T9GzuV77ttsHNSb9zx38fq9HwUDaijMmvg7KEyEOftGL5F8kp5ILINhDMy3aX4GzVpTQZ64GanKhBzjhHNlDaQ8S2WMvqsMCTlQ+jcGCJ4TYbxAZxsMO8EslnGYFPgyQCBFw5QyATAx0FZmWYc53abjZ+BDY9DpGnBGZ9o6rj4INYAg/lyZt3VeCFQVi+z8qUPnAzgf2LmNNLtvN9btsFtjT0I8AeB95AUJEeRzyObzCHNZjAYZBP/DJ/4qujIrAEEpYKVV4sar2iNQ4faFLfYdZiTcxvqClKS20wwlfV7RGS+U2TwjEUZ3VSuimoqOvaj0HzaEll6Oz1XOi3tPs15M2pvoEBBASM7fP9q1x9/cX9QY11pTfYoeNPlvBX7yXzLd+No6qsr3zAWty0fl86k7kvJL31A5WsyMzqw3/Q+FhoixYYOnf44tRcwsyGyq3qfKLeHVmwEriBElYyFUjAVobvV1BcwAfGExNCN7LAQwzQNj58d7SXJWteTOHxc/k89KkkFwn2rmObXn6s6QA2XVZ9wE4+ouWaOTq+EIOfdKV9cSMPcqpnATP2nnrfozsneNzk3zcpAyDgYFJiTkhd/8T9r3xxyU9LfyGU6bK58fs2bqNnufq4br1c+vOkMa3quzABKCqf+T9nf7OzW0NC/zy3R7pASiH3CqfrLKUPUZ8XQYj7ki4QBPvyQjh8mFFpDgVj9+XpP0oY5Awmj6PfttCiUbj18UGAEyF3qOvVvXpcYyx+2VN44UfWO1FZ2xbBZhSx651hYgk8EIAYZ/YwBCFzuHJoZOCsyHdvxgTwx1gB4tpUvrwg3OpqZ6yVWUabpYxQCCb6St19pIzfireHEAwoUoCA4x1AAIF/Jc/7t+3sZEn9lISfJh0Fhklaw099bkjqfvpImxJ3ID4m+oBghVyt8cy1ojY9bIKIj6tFwzc6s9HhvemeCaNf92l+cgij5tdRup8ubeRqFJCk+N96ee0dacJx655rqYOKs4sLXPfZVib3Jg6oA0kv0mHxf7mAODJnfnIu2/5j3FDKCGEA2z6mC1+5Se33pzae581l+NWmAghpt9o+w9zgIEE7L1Qw76sWpHoHo8afLgn1Bmyg2rEVvHBhudNrdmrJFmBNg5eNlZInvEERv4UUfOa51qOTPqoNTK/EpMjiIHba0oZwLkW1s5926YmNk/+/RXosvDArqYWxVRsouniUYxHsg8mDOh4uEFAQnjVxT19kFjRJycaEfmvcdbiMZGozZAYHqZ1+Dijj+uJYTKcXHMxoZNN9t5FWbNxUGI/Shxx/Sbvoc+canm5K99zX2ou7sxBJ4u8MIcaTwuzUNpxiA0c3B5pCnr2tggNLOPxv3S42MUgbwyHkaSLfNYjMYD8NUq+ye8/+yFkUyHnGA1/rOpq1YLXGhegp1FUyM1vm1MLn1FH/PizNoIXW7Ob03A414fH3Ha/lQrTifC9XRA05LkBkNJij757yWG1lLfdo084yn/Gn+/ZVY9mfFBaDXY0ZGkeNtJpy1pQ5K7a/KZ+ElWXtPPQjNaNTEzt2IKeOo6CbVEr8mzacI9zO6ZMEVjYU6Xq0bnTB2rNL3sy37j96d9wrDfgdEBfP4brz4xju2TulEMImRylH8ADBKD8D995m+jZUEO3X5Cj1FecRLU/JfGuzibOBnZbDyQ8U7a0kskHJpY5Sk70RW1aMFkWKQ2QKDkHcmAvXQ/NFbJOPeyXs2Br7mHmlXuFQow0WMSNq1nwshOnithLpnPpfzR/BN+dc09qA8QUmIBsS+QdyrgzcTsfQpTmSxN1qmlu20SXFLjuS/4X23kGcQPsaE4G7gyNA/1fIWhcMpe3p1Uj2rQxyuRci4pLCO5IQIQyEOa2I8ml1ZZB/uLiSg1MVzO4IuRSZhAE7ttNPJmwgciZ26Nqw2znBuxdY0AwgRAgp2fMAguvlTPw0s7v9U6Le3saYgwPhdNzJoIWKyWHl5R1TOslHSNJ7A+VULkxhh7z0SEOKqVMGseZuxJzVBGzXea9fT/HjTWuRPTlU1OXOdKht7ogIaMGO1dGKCju5uZgyCXxQgiDFDOxb//1N9ESwkg+A6Oyai3SsybtFtEST7TH8lsNiWLTc4l7WPJySgaVgaBSqMkOBU/xAoU4s9MIjw/aSv+SS7d0azepB1h/d2c0Pvjj6+PjFdL9pwqlOem0Wf1llG8alFqMfBuytD8nArfkF/A1lR91Q//TOi5CaVd/Qypr2VQZcCOv/O6I2Ki6x1MIwc+LvNpOO/fGx6mVKFtwksxCbuaaOsDhNprN0FFXgEy+QyCFqqAyWKob4hLqxqoyZRh1JmXF+KbUEiGdasklfFb2Kt2ZW/WgnLZsSt1TlurpgBCw9m/CwDBgI/UhDNvYiqDLNcx0JK2H67s1Oli8R4tJrGgRw2arVuf0LH1v8Q6wDhWbh/GL2muKkPp8doAYdxntEk9ozl1Nsm+0epUPbe5db1gvVlvXOqoEEDIhJy71eiH1zMIkG9rRba1hRMURwKgn+z5v/vEf4suzxYMg2Ae1QRA4DgJJ9uooTb1lk0a0kaD1r+r0DFAYGuo9fQTBwhpSJEZhCaomEbjrgUQ+LBSv4ZsRkqP+Mc78I3cJPtiU7+siW4eQJClNz0kvKTL5hRoo5lV//2CBb3Jg5sECFYRkgCbzGeqpa8VZufyUjIQFdheF3b5jRrVfhYcZkrBgmkxPcduNQaPXEJssqBNwYkXz6DNN0o19nqJjTb+MZU55uxVMmXMWDQTV925Drm2Nrzw60049fYRZLm0Y7w/ie8wXSRJVDxqzg9oBuAa5WnYHNl6qSpixZyh0uUc/0P7PTo6ispYGWHZJY3as6Vj0FOUonOYTIttS8K4pniszLxp+aYc2CrHgPow2N4FtagTjx1iR8YbB80hVu8fF0QvUc0AlqrqFX8esqZpIaqkU6CxbelY0Jwh8yWFQxlp62wqcnhLLoBBqAsQTIjBOgmenm5Ot6V4+rFjYHqEmEqr5u1A4rlNhvEuWG/WPcIqbNIbiHv7NPrRnhi5LHIEEloKGAsD9JFs/ZtP/N/cB0FCDOZHAQIfkrjH7pSiqTCwX6oGCCxUbAcbK1D36oTh94RDBVCE/QIBQoItkKYi6cpY6bq0dW4GzfqAJA4QeHHERDUDTjyFpDQV62qlZvlRotSqGIRm39FImLy/X7CgNwEQiI2tBRBo6eYvX4ilV68EWgEyjAwEitTNiw4GUevUz0Lqv08fOok3ntuKsYExngXF5QU8UCKkMjm0nkZe1cqQ92/5ZxfOslU1DFpTpYP3Q9N1CITIFskzuO9BTAtrbrk8TZKnks/VQkaqo7fbbXKHxHiUs2Vcefd1uPID64A8sO/xt/D8j36DTCn5MN/SSomuvFmeI5+Oe6KapCGla6bnAZV08XkyWUIxA2lmQmvNr5OmShVaz2yAzqnt6FkyG3OWLMCUqdO5xwf9UP350PnzOHXoOA7u3Ie+Q2cQlKiFmoyH1k5+TJmqB7f0GCSBnputqYqwBo0ajylDbspOedhUIi0lvVJvL3PmsZuInrdEdqPiSWgqGa6iS/u5xHdW1l7lQ4GFZVW0Uih5ZowMJwMV6g3bt9ucF9YYE8hHqU7PYSkxTOZEAUIM9NntjI9R3hMPmer3agGX+No2AsayHgrcxgUQYkLW3LpesN5MqgT73z5DRGw1MQiNAYKwdxyX5CqGlrZ2lLIhztJpoyqG1VTm6AEEp0YUrVZPnOU1VsWQDhB4zy8AIGidumUQEovj6Lg0IJLwGkg1aWKNR5HqGP26VfvcBmNvxrDXBwgyoRjzIAOqBg2qHIzBSp2L8XqaBQh6FBVw6Fo0M69khYm/F77BrFpC22sgsT8pOJJzEJLKQXu3BREmzZ2GaStnY/mGy9E1dxIqw2XsefktDJ/pB6IMO+b57lasuH4Vju8+hOe+9zhGz4yxkSYjI9Q7tSY0Gp8TVaX5l8XGvN5sDY1uldlZGtcABMcLSSET76sHEKQnhDyDSzbFYnoqRvpbWFqZ+aAAGe02Z7okSlFWCZ3Tu9HR3YlTB06gXCzZPqblsIzLrl+GNfddj1xLFjse3oZdT29BtuwrSmPGTMyyHFA3Q3kfjYqgCq2NVkA4bGp6bkTyedYBFel+qrMhL9sLshumwNgkE64sZQPMXj4fV9yyGlOXzuQQ0vE9xzFw4gzKY2ModHdi3uqFaO1sxY6HX8WOR7cgHBFQxMFMy6xQPJ/GanoleGpAP6Igy3Bvnk2ncVIPE7NfpmFOFNF7ArR0tGHy9MnoP9OL4b5h6aGiO6t+k/Gh0oy9sXdWDrSxjcgS1bibZl/KJNpnSuOertmT0FJow+kjp1AZGZUeiWlevHbm9AZRCyBo06laiXT1zr3qCl+ns96IhRiSOremNZN1SThlgtmqQUyqN6yer82LSziNdq0ajUlCXbUAQm37lXguj0ebGzllllzT9LBM/XVK/tUBq6omLCLfVB6eyaJcLqU8uNqdYQsfBsi0FtDS3o5SJsRp0gZ/9qm/jlaE+ThAqEo4aQIgMOUYp6GaMbLKMqR7YEYJ16HLLwZAUNrPBwjNbldyjvXGUx1icG9JAwj2r7YtqtbPikfbLEDQ56TlIjQLENLCMo0Agg86/PWUcaiKSkEFMUWXAAi2e5iwA5UwwmihhDs/ey/m37AYpd4xPPbNX+HMvpMMECIyfN05fOhPPopzZ8/g2e89jrGzRTHEEfMNoqhMR+uoQvQDdXeUtdamsjpmcb404VCMC+s4vxUyt7ZW9kzAH3etZGdXm1y5M+UzY9rOR4wgtZIFchUBMvIOagNeQdiZw3XvvxGzFs/F41//BQZO9zN7ElDFAr2/M4eO+ZORzYbofec0Kv2jyNCovIQV6XcoDVrKQQWR6Z0gbcTjScjqgNLzBQmIUWUfgZrs2Qoo05mO0ZWuFcMk15I3BKavmIN1H7kVHXM60X+6F1sfewmHtx1GNDTCRiPM57Dm3rVYcfuV2PH4Frz+q5eRHRHApf9fDLBpxGWZNJFolXUZq7SfVuzFuoaBoZE9pRyYJJDkzigfYOn1y7Hy5jXY/sRr2PPSm8gwCDGdYz32RxoexSTcGv+AAJHRjfIJrfygxjMCUAgo6PdpDytBGZm2LDZ88m5uZPbiz5/G4LFzAthS4l8ipdXGkQFfjJl0Dl81aG9cDndJAEKCOeVlbBYgGMcqTTe53dBcuXp6pj5AqG0L0oBHNUBgcfPmOV6AkMaSOICQzo4IQKDOsMIMepYmlT1SgJBtb0VrexuHGE5Rl97/+Km/iRaHWsWg2lLjWk6gkoizikEwh0D7dI/HwPqCl/yezyCI7MQ3+qIBBK8scDyMR01kV2Os1SEGY6D8uJo9JG4/5PibFH5SzhMFCClshdKDPthJot7xAoRkWKkKLNrqm/oHNxli0MYn7Omar45lSrjjj+7FvJsWoXRmDI/9/a9wZvdxpoXJGxwrlLH2nvWolIvY8cw2RENlIEttVMVEhlHI947Q3R8VymXIiIcamph9uRQhG1J7VMn0oz3M5nNscYrFEsqjJVb2Tq9p/JiYiRCZbIggSzkuZUQl05GSWnWbux+iLFBoKbABKw6Nge5IoJ7v5TBCOQu05gsIihHH5AlgjIUlzLtqEW746AYU2vP4+V/+AP3He5EjCFChznUhkM1gNFdCJhciMxogKpYMGDDIjCx7JkI+nxWaGBHGSmVmIvgZxqulFaFQTBllZLJZZDMFlEfLCCi5MBei0JJDsVhGebSIkHrYczvxjOk6IUmHEYEPvt2EFraCjlmTsP6Td2D6mlkYHRrFqw9sxttPvoHwPJBlGZfwy9zrFmP9Z+7Erqe3YuuvX0F2hLrZRSjxPkjL4DzdyYIIpdIYSmNF3jMOFxCQ4nfTdyDrEGZRGiuhHEXIEp2aM+CoWEFUNol9UYixqIzWmW3Y8JFbMfvy+dj8k6fw1tPbkSnRDGiNpYMsrQkB1Gwhg2yWWr9LR1Du+DmWlSZvmTKCjGtzrZ0Hi7SXmrRs8hSCSoCQHL58BUvXrcTVn9yIvuPn8NR3HkT/oXPIlEME5t2+jqoFEFLZAGYtXH5D0gmpp7cvOkDwGwNZL6Y6SZH+VCue7hvPWuwH513UZYInCBDqJCkKba9Bt4kDhFpOdiOAwGvG+W6Um9U8QCh0dqDQ2oKxIMCJchHBn3/qK9HCMJuag+DKVhKZkEa5y50DRmxMG8uLARB8Y8Rx2zolexMCCB7iVkPr9w24JADBtKWNVzF4uG6iACFlLuz9xTpDGt8lJWyRyiCkYMx3AyDwO2J4wcUGLbvDyl+8ZPGnIgxny7jjj+7D/PWLUDwzike+9iv07jmCADm0dneg0F7Aqd6TqBRLyJQzWLByCeatmo9KTmLoFJsfOtGH7S9vw7Se6Zi7aiGC9gzC0Qgn9x7HO9v3sZfc0t2CnuXzMGvpPHR3dbOB7xvow5EdB3Fo1z6MDQ6zl8m8RCZE69ROzFw6Gz0L5iLf3sIAYXRwGAe378Wx/UfQls+ju2cKpi6ZhVmL5mLo6ACe/OkjKAQ5tHS2YcqCGZi8dAbmzVmAg6/vx1ub30A5qmDWyrm44s6rMe3yHkSlMl792WaM9o0gLAY4tv8Q51NMmzcDUxfPxLSeGXhj0+s4+vo+ZCO5ayLMZzBl7nTMWD4HM+fORKYgvvRQ3wgO7zmAY28d5OcF5QDZ1jw6ZnZj0oKpmH3ZXOonjh0vbUNbezvmrLgMU3qmIiqWcfDNvdj38psoDRQREuLRSDezJ2TwK8hUQkT5CAtvWI5rP7Ie+e4WnNl7Gk9+50EMH+6zwESJh5YZnbh8/Roc3X8Qx3ce5vlFmQAdPd3oWT4XMy+bhUJbgec7NDiMo28fxNG3DqB4dpgoEUS5LLpmTsHUeVMwbeF0tLV2YMfzWxAFWcxfMR9T51LOQwbH9h7FWy9ux8jZQQrooGP2FCzfuBKLb1yGTFsO+17YhWM7jyBXzmDoZB9OHjiKUqWCwqR2zFg2G/OXLUJXZxffmTI4MICDb+3HwW37URwZw+TZU7Fg9SKeK7NUCDDcN4S3XtjBtNCqtVci29XCSRVDJwZwcNduzFjSg1V3XovOxVNw/mQ/dj61DaNnR5AdC3B6z3EM9g2IR2piYBcDIDQTUpw4QEjyw+aQ/w4ChGrWpZGr63nwiRBDLfAiDILh1JoMYfv6N8bMEuDTxmGJ9RwvQCCnor27C2Ehh1JIOQgRgj//5FeiRZkst1rmxTGnU8lV499aHGCFhDwmYhtNN0gluWINesza1qOa4yEGJ4K+h6zGTn4nqseNzwlf2nv8ecjfpeGS31aaQww+g6DhUvXSjUdfteF+BlmDbHN9pyLhdCYkMX/hphSCGTDGu+QYhJS50NeScXtlX6qYgcRcDU/B3nLMS7Hgwo2xXoihMYOge1nvAFLmv1w8xMk2NjlMYrQqmyPZEm7/o/uw4KbFGDkzjIe+8UsM7j6KIJPFio1XYtHy5Xjwe79A1C/P6Fk6F3PWXIYF1y5C+/Q2VIYr2P7Aq9jx7DZM7pmE635/A7rmTsHBLftx6OW3cWzPUbROacfV77kePZfPxYmDJ3D4zQNoa23BkhtXoVDI461N27Dl4ZeQGc0ikw0wdeFMrH7PNZi6qAen95/C/p370T2rC6s2rsH5Y/148aHnka+EWL7uckxe1oNsZxZnthzD/V/772jLtmDxFUux4ubV6FrRw8rkzUe247UHN6O1owU3ffg2TFo+DS1TWimUjZNvHUc0WgFGKnj5iU1YuGQR5l67lHMyKEHzpX9+AruffQOZShblQoC5qxfh6veuRaG7BUfePIjDe99BZ2c7Fl19OVo723D49b3Y+tALOH9yCFMXzMblN1+JnjVz0DK1HSN9Qzi99zgKre3IdhXQNrWVjXR5sITXfvEcdj31OnIlTugwYSSXixFQTkhniGt+/0Ysu20VwlyI3Y/twOafbEIwUuY8ApY/s7UVShwmEBeVkS2FFBFCz5I5WP2e6zF53hSc2H8Uh946wOWci65ejsnTJuHE20ex/eGXcPrAabRPnYQ1d6/FzFU9aJvRgdJoGUffPIiWXCsKnTT2NuTaC4hGImx/lPIcXgFKAa68Yy3m3LQQXXO62YgPHOvF8MkhZmaO7ziIt57ZiqC9gKvuXou5V16Gk4dP4ujbh1DoKOCyq5ego6MD+zbvxGuPvojW9g7Mv3IRFt+0HJPmTkWlFGH387vw2q+e52ff9Ae3YvbKBTi65ygOvrYfI/2DWHHrGsy4YhZyHXmUzxdx7sBZlEfKyIxGeP2hF3HqnRNVAMEPu/hMq5x3Rd0SVktWMVhdq/kVJmGzKmzhOQ6qG/i7fg4CJ+C6My3RxGSpXZ2qAusgxMM2pDd605QDAAAgAElEQVSpA23aT/0Qg8nySTjRNhHZRDRojPVyEFL1ZoJB4LlyHCud4dUzwRcH8sV4prWPufxMbVWqHfOcuyqAkFgUYS6IQZAcBOUymKjiCKfhoz1wwlIShmid1Ikwn0eUzWCAHE1iEBaFWUwyyY4Sq0sxwMYuXFKAYLPCXOMd3xuuAggmFmrZqToessT+5AIbmYOrsGgEEHzjaoUxReatgKRIcTpAcAfXHWS3eYKF6gEExW3ed8zmXyyAUBXK8PboUgIEl19EDT/oBsz4rZW6xLSPw9kiMwiX3bQEY4NjeO2RVzF2rJcP/IK1SzFj6nT86CvfA85VOJyAHFBpD7Diliuw5j3Xcrhg9+M78OrDL2HKrEm4/vc34uSJY3jlF5uBc0VkW9tw3fs2YPGtS3H62DE896OncW7/Gf7e6vvW4qq7rkXx3DAe+4cHcHr3CXT3TMLaP9yI2Wvmof9YL577/uM4sf8E5l2/GHd84V6ultny4MvYu3kHOmd3YOPH7kbH9C6cee0YfvF3P0JLmEO+I4/ZV12GGz91J+vzXQ+9gS2/ep7lt3PhFKy59zpctmYJorEIv/76/Rg+O8jU9/DZfnRM7cD8G5fgmrtuYIbkpW//Bruf2cnMxqQl07HxU+9B+7wuHH79ADb//EkMnjyLXLaAResvx7XvuxGFfB77f7MTLz3wPMhI52e1Yf2HNmLWsgWc6/Dqoy/h7JGzTNEvvHIhVt60GvnWAk5vP4HH/vEXiAaKEubww1ksoiEyUwvY8Kk7MOea+TyvF37wNN78zXZkyppo6DQ5hTboSiMGiVGA1hkduPmTd2Hqih6ceecEV2b0HjyDSq7CgGjtBzaic3Injr7wDp7/2dMYGRlBYXY7rrz7Wiy7fiVGB4vY8viLOLr7ECvD+Ssuw+pbr0K+swWnth/Fc//8KM6fHkRhejvmrF2EG+5dz2DvlYeew/5XdzMzUhkqcT7H8tuuwRX3Xov+U3146oeP4+yhUwjyIdbceTWuuus6RMMRnvvnx3Bg+zuIchXMu+YybPjYXci3F7D/lTfx/A+fYkNyy4ffw2zTCw9swvkjA8jn8+haNAU3fPhmTFswA31Hz+K5+zeh/2QfsuUAY6cHEQwZC+wxCBcHIJjL5hkgiIeroTOBGQ4yjBcg8K763nKsPMdLyLYqUZwD/bkwgJB8t1epdAkAgiRaGjsas0kCmh1AkJCZz4Inw71ptu1SAoSW7k6EhTyHKAcJIHz5U1+JFl9qgJCaFuGBAP17AiDopTO0SFrFEGMQfgsAwcPGcTacUYfrf69lSnaDzfHyGQS/PFGERMqqLFiwbI6X0KcJYoZNUbCTZAguFCAIEnbK2grlOAFCdS6D8WA04SrJProFM0COrtWWet600A8lx43kJAfhshuXMCofOTHKmfAEygpTCiidG8ZP/uZ7CE9T7DzLMLqcKSM/ow3X/8F6LLhmMSqDZbz80GZM75mBSZO68OT9D2PoQD+CSg6Tlvbg7i/dh/zUHHZueg0v/3Qz8qN5RGGEnhsW4ZaP3cE5CjseeAUvP/oCVty0Gtf+wY3Id+ax57E3sPnHTyMcy2DqitnY8PE7MDo8jNceeRHHtx9AbloO9/3ph9E5ZzLObSWA8GO0RgWMlYuYsrIH9375Q7wNux7cjtceeB7RSAnozuKGj27E0nWXIxqu4Kd/+V2cP96PMMgyBVgJi1h6ywrc9PE7gFyIl771JN5+5k3kWjK45v3XYcndV6NUKeG1X76EHY+/isIogdAs8vM6sfEzd2Hm8lkYPTKC3/zDAzh14ChGCiXc84Xf43U69c4pPPqtB1A6fh7ZIIOuRZOx/jN3YMq86ejf34fHvvZTjJ0aNp6qF3s1AKGlpx0bPnsXZlzew0L95LcfwTvP7eYKC6lE8F09UxlBORDZCKtvX4M1H1nPcvDWb17Hq/c/h8wwTbmMcEYLbv70PZi1eh5GTg4z8Di49W0MBaNY/9E7cMUdVzNN/+A3forTu49xLkXHrG7c+YX7MHnxNPQePI1N33oc/ftOMTs198YluPkTlCSYwaYfPIq9m3YhG2U5k2LyrG7c/acfRMvMDux94W1s+vGTCItAKSpj4bVLcONHNqKlsxX7Ht6Fl372LCqjRZS7M1j13muw+varEJbLePHXzyMT5LBk5XK89OhzOLHjILJjWQZkLdMLuOVL92DGijk4t+8Unvinh9B3qJfXJkc98ylUw1UQlLGhTF/c34971c0xCMIuOOgtnVklt2bCAIGPe8KbinmulGnsvfZfO0Dg9aZdja+ZDwrqAgSNz1GwLEt6M51B8CTC7K/kdOXb2/gf6qY4QDjnP3zyb6KlmdylZRAmCBA0/KA5CL8LDIJx6k1zEi+8Ya7XsPvDfI7/dwEP9QCCf++9HBkx/17gwWWQX2qAkGBBLh5AIPpZhJ9pvloAQT7Ba1gvLENrSgDhTg4xLEFxYAzP/mwT+k6cYn23euMazJ05Cz/56+8hPEdrSe+nSDABizJmXzUfN37oVnT2dGGsdxQjp87juV8+jVPbD4Nyy6j1KHnWN3x8AzKFDE7vPopze08iUyrw2Apz2tCzYjbCMIsDm97Cpl8/gxvetwHLbl3F+/fENx/EoRd3ozVqxVA0hrYZnewVj5wZQiHKITsjh/f+6QfROW8STm87wgxCW6WVY9xTV8zCe7/8+6wwdj30Ol771WZgNAK6BCAsWbccGC7hx//n9zFKAMFkxFcyFSy/ZRXWfvxWZkte/tbT2PXsTnRMbcXNn70L066Yg5HBYTz33adw4OU9KJRJKWURduex7uM347IbF6N0voyXvrcJuzdvRzEX4T1f/D3Mu24BTpHB+uavER0fZZaA5n/T52/HjCWz0H+wF4/+3U9RPEnlBj6DoCUrGQZlN3/uLqbQSQw2/ctj2PP0W8hRcqFvJ/z+QpTr1B7itk/fiZk3LmYvftv9L2Dnk9s4JEBVF+W2ADd95HYsvnUFygMlbPvVy9j5+KsYLRex/mO3Y/mdV2LszAge+vrPcHb3CRQyBWS687jji/dh2urZ6D10Fs98+zH07z3FEjL7xmXY+Mk7OLnx2e8/hv2bqIohg0o2wNJ1y3D9p29DkM2gd/8ZnN5zjNAB54dQvsaMlbORacng5IuH8fT3HkF0voJSpoLcnFZs+PhtmL18HooDo0AxxJbHnseuTTuQHQ5F3kKgMD2Pm790L2asnINze0/h6X98GAOH+qTdF5dCkgQRE8opnQY4/44ChESIIckkVOmAf5UAwVQ+xPqQxBVj0wDBY8cpxFChMkdtpueFGBhA2uo4SeYldZxtbUWhgwBCDv0ka//+U38dLQ/zVQDBN1C+rXDGyjAAzeQgNAsQfAXhZenXzEEYF4PgMxY2KmP7Dfget86x9qaYQ+nDMGvKNagvSXTjYxAMWvdK0aoAglarX2qAcKkYBFK/2ro7Ea+MYRLrSNZmEAhA0v+N5sq44/P3YcH6xSieG8WDf38/zu45ASr7X7lhFZYuX4KHv/crZAapDNDwf0EJJYpxt4dYc8+1uOqe67lC4cROUuq/QfnIMCpBCVE2wCryXP9wHYcsTr55CKf3H0NQKchws0UupcwEWZzZfxr79x3G+g/fjoU3LEE0UsEj3/gljm3Zj7aohY0+N23KZFGhjH+izme04J4//QC65k/C6a2HcP/XfswAoVgmgNCD+778QQ6NOYBQBrpyWMsMwgpgZAw//IsfYOx4P7KmBJEqH5bcshrrPn4LA4SXvvUU3ty8HZPnTMLGz92DSQuncaLcc99+Ake3HWTquhxkkGnLYN2Hb8KiW1agXCzjlZ+8gDef2IpSNsIdX/oALrtuAU7uP4En/uFBRMdHGGjletqx8TO3Y+aK2eg/pABh1LYxFAZJS1YyCCflsO4Tt2LBDYv511t/8SJef+AVzjHwuQPBhyYuHATITMrj9s/fg6lXzkGRwkg/eQ57Nu9EhSoqqKIgH+LGD92GpXeuRDRaxq6Ht2LbQy9jZGRUAMJdqzF6ZhgPfv3nOLvnJNrCPHLdLbiVAMKqHpw7fBbPfOcx9O09jSxC9Ny4BLd88nZkcgGe/95j2PPsWxQgQSWsYNXtV+Caj97CuuPk7uM4u+8EMCZJXFzxweW3wMjhXux95W1glLrOAqVCGfPXL8X1H1iPtu42jJwdxpP//Guc2n6C2QnKtaBFyTKDcJ8AhD2n8Mw/PYT+g338fl4jAghBRf6by1F9HtFo7lhvAE9r18lBiHXlsk0kjN5sNsTgEwbmPj9Vg6oNHYFg8hV8W/iuAwRForUbJaXntmmYwqytXs1t7sKpGWLg/DDNQdAQQxIgJLwzAwKrqsyqqiiE9FXzwUmKFcnb0GOoOQgxgKCNkgggtLUi39aGIJ9FH733f9Q+CCZJ0TYVSdSnesyvNXuSoCJBHNNJPX6LoPlS2gKzf+wlASYdSf1bslGSi9cY4fK99Lo5CNXvUzRLz/Qva2oIEDTtJxlf0jJEnlx9gCC7Jln7LnfBh19OSGIMwrsEEDRJceI5CNIERu/osPKjHem0+2Bs49PaHCdZF5c8KQABGMtRDsK9mH/TUpTOjuDhr92P3t1nGCC0TGlDe0cLTh89hfZ8B7XowxiXJZaENu0sYM2912LZ+suRac2iNFzCNmrM89gWoFji8rWVt63GVX9wE4KgjG0PbcYbj25DWCaAQD5dWbaRy90rQHsON330Niy6aTmi0Uhi7E9vQ4Gy7Uh5ZAJkwgzKpRKHKLIzOi1AOLP1MDMIrZVWjFVKzCAIQMhg10PbOLEtpGTEziyu/+gtWHLjSkTDRfz0L76PkeP9Yj6o8V82wmICCJ+4leoG8eK3nsRbz7+Bjp4u3PpH92LK4hkYGRjG5u88iSOv7ePyOcpaznbksO7DG7Fww1KUimW8/MNn8fbT21HOVnDbl96PhdctxMl9J/DkNx9E+dgQly3mZ3Zg42cNQDjch0e/+nPDIMjGSra9tlkOUS5EWPneq7HmfdchV8jj6GsH8Mx3HkGljyjzWDtX5DpaMGNuD/p7ezFSGsGtn7kXM9bMRnGoiK0/fwH7nt7OIIz2udwCbPjI7Vh460qm9Lc/9Cq2P7wFo6Mj2PCxO7DsrtWSwPr1X6B3DzEIea4suPUL92HaFTNx7ggxCI+ib+8ZLhftuXERbjYMAgGEvc++xYwJhaZW3HwF1n7sVt7L139DJZgvIByiRGfTFMI0sqKSxKicldJE4s0KFSzasBxX3nUt2qa0IqoE2LNpJ15/6FWM9lJYJkJIJZjT23DLl96LmZfPxtm9p/H0Nx/GgAUIUpJHYRA6m/TkxgDBMzj1AEK1XeLfWH3YTJKin3fC362+zExyCwQJiHz4nqH5dzor48hBqDKeyUfG8h/8HATH9DaVpGiMsoSCvdXhviDSZ6R2DoIMylYxcKL/eHMQDIKy745vmoaDaE1Jd5UZIHjv8Bzv2DeZXQiQaWvhdsvI59BHc/mzT/51tDJTQHfZUNn6/t82QDDCeCkBgg9SmgEIuqAa+hDrLr+1wmJh8gUABN97969U9bKRNdzi+w4+EEvNQUhhclLBkGmw4sf8xx1iEPLTNrZJBQhVqNAcrkQb7HhYJg4Q6LkjuTHcyQBhGYpnRvDI1+5H3+4z/H5iAch7o5LDdXfdjCMHjuDtl3ciUy4jymSw6IaVXDK45dWXMX/FQsxdcRmGj5/HM999DCd2HWIaed41C7Hxs3chWwhw4JXdeP4Hz6DYV0YWOYTcmIGAEBn8MoLWLK5+/zosv+tKDqEcen4fnv3h4wjOUyxQQKpWZVDFUMvMSbj739yHzgWTcOaNw/jF3/4Q+VKB6erpl8/Ge/+DYRAe3IotD7zAAKHSEWLtx24zAKGEnxFAOEEeJrWjBZALsHjjSqz75G3ceuCFbz+JXZvfQLYjz0zL7CvnYXRoBC/94Bkc2PwWkSAoBSFyUwq48RO3Y961i1AcKOLZbz+Kw9v2o5yr4LY/eR8uu24hTuw9gae++TDKx84zg1Do6cQGBgiz0H+oH49+9RconhyybowFCIyHCYiUMXnFdNzy6bvRPXsyhk4M4qUfPo3D2w7wHSUULuDmTUEFs1YtxA1/cAv2v7ITb7zwGm64bwMW3bEalWIFOx58DTt+/RrCMaBITE9HgFs+cTfmr1uCseFRvPqj57B70y4UK2MCEO5cjdGzw3j467/C2T3HUQizDBBu+2MCCMQgnMEz33mc5SYfEIOwEBs/dSeXLj7/35/Avqd3IsNNqIqYsXo+bv/i+5DtzOHgq/uw6fuPo3hqGNkwL+EzMuDc0IB6JuSp1zfLYfecLqz/0O04dvYY2trasPD65RjrHcGWX72CXc9vR1isIBdVkJ/ejo1fvIdZmbP7T+Opf3oE5w/0IosMwVGvkZCcMIEf9UIMFwYQ7NltBiAkzq54qo4bShCTgg0uJkCooePiCZKXFiDo/RjaODCZh3XhAEFbnFZxbjZfhAFCLotyqWgTJn17Z3W72RD2Z8OAGYRcWwuifA69ZHv+42e/Gi1DFl3c5MQ4tb5nbOr3awnJpWIQdDLq5bskRZEmRqY1Qwxxn9tRW+ndB5tlEHzEJbEzc++BA70GPbK/kGifLGBCDbcoTtevVZCnJPBpOaVkEUs3ydgZMhBVgUqyZFNRajPXPTfDlviC5Y+5bhWDpE/FSjLlOdrT3lD9SRhrOvJ52DyRt5ECELJjTD9ftn45imdH8CgZgbdPMFXMHQ0zITqXTMPtn7sPb72yC1t/9SLHe6cs6sG637sZZ0+exlM/fwTzli/EjR++FZ1Tu3Fyx1E8+e2HMdI/hPaZnbj78+9D18KpGOsfwrZfvoDdL72JYIS63kkP85bOHKZM6sKRQ8cw77qluOYjG9A6uQ1jJwbx4o+exuHtBxAVhTJvaWlFNpvB+cEhdE7rxq1ffA86F09F+fQIHvjaj9F/uJfLoGZdMQ93/9kHGGjsenALtv6ayigrKLcHWPvR27DkppXAWAUPfuVnOL3nCMJyCGoESbkSSzasxA2fuI0ZhBe+8yR2PfcGpwUs30Chh43s7ex84nVs+/VmVPqHEYUZzFw+mxMbO+dNwcm3TuGpbz2EkVP9KOcdQCAG4elvPYKxQ4MMdvIzO7Hhc7dzHkb/kX488jf3Y+zkkOtQaeTcSAI3f6oUyrjmvddi1Xuu51LHE1uPYPP9z6Lv6DlkqE8DnYIwxOV3X4Mr338ddj29DVsfeA5zlszDzV+4D5mOHA6+uAebf/QMyueKiLJldC3owoZPvQdTLpuBPs4neBS975zDaEg5CLdixR3EIAzhkX94AL37TiIXZJDtLOD2L7wX066Yhd4j5xgg9O89g3wUYvraBbjl03ciU8jijUdfwcv3P4c8SVO5jNykdtz1hQ9gyqoZKPWP4bVfbMJbz+9AUMpyfgCFClontaO7YzLOHT2LsVIF2ak53P7Ru1DJAM/88knOhbnnS+9Hx5xu9O7vxeP/8ij6959EIYrQMq0NG79wD4cY+o/1YdN3H8fZt49znkaZ23aaagPTB+RiAQSfv6xJq5vzqgZGWGRNJk3Rr6qnqwNI8iRl6AU9G2dLWKfxMAjipCXi9hrtFcXjNA0/Xv/74jMI5tIRCTqnsNoXChBkKp7+9Pof2IRSckQouZsAggWV6sy6TqOSfGpKQcMAufZWBgmR5iB8+bNfjZZGWXSZGwb9EIOgvzg2rRKiSxRicB6na/oTywn4LQCEmAAm4z/+wvD+VTMIEwcIpv99zJjKYRTwYECTJ4xpDELs63rQ9RDVqrP1FEIS1DQFEPSSGfscrWJI6YNgu/N6Bz2RpKjgSRyPCIXWAvLTW3HDH27EjNVzUe4v4uWfbkLvodMck2cgmQ3QtWQ6rnnvDdzr4K0nt6Ojq5v7FEyaNQnP/eQJnNh+GC2TO3HlB67Hsg2Xs7Hd85td2PnUaxg83899E9b+3ka0Tu3A8JkBblzUe6SXu/p1T+rGnAWzMHj4DJ584CnkOgu4+r51WLZ+BZfTDR7tx6Ht+9B/6hxaWlrQM3s2dz7c8sQriDIR1n3iZiy8aTkDRsqwP0LMRTlC96xJWHDDEj6+e596E2888gpGzgyi0hLgmg9uwPJbr2Ca+8jWg3hn625gsIyj+48ywb1iwxW48gNrOc9hy483Y8/mXRgZGAK6Mtj4wZsx79rlGDpzHq8//DKO7T6AbKEFa+6+HvOvXYS+s33Y/LNncOr1o8iHWbRMbcX6z92FmStncXnjKz/chDO7jrKhmrq4B9d9ZD2mLJyKweODePqfHsbAO+e4eZJV2nxWqLuiNk0qIegOcdXd12PxupVoaW3FibdPYN+Le9F37CTKRSotbcHV91yP6at7sPPx17H1l8+jHJVw1X3rsfKW1UCxjG0PvoKjOw5yN8ilNy7Hwo2XY3h0BFsfegn7nnsbuXIeYXcGN374Fiy4fhFGe0fw7PefwLGdB4FSBZ0zJzNLMGn5dJw/OYBXfvI8Tr5xBBgpYdKVPbjts3chP6UV/Uf7sOPJ11EaHMPw6QGcOHQU01fOxtoPbkT3nCko947gnS17cO5oL6JyBe2TuzB7/mwMHu/Fi48/i5bWFqzYuBoLrl+GN37zMnY+vQOVYhnL7ljFADUIM3hn814GIkMnzyBsz2LjZ96DWdcs4M6Ph7YcxLGdBxAOSuOu/l5KWNQ8qokwCHSRjtMGaaHedxsgWBpBDfklBAgSj78QgODH+hXhuBBDPYDAzmgmYxol+eFlL5STFipP9qFJyT9QHMRGf5wAgdMEGCC0cYiBmoz103O+/LmvRssqWXQwMk1yvia/KJZspyUvMgimNC9BDoIFCPR400nxogGEBLJkQ+vfa17DaKYZ2Hq/8wEFxwlTGQRj6lKuU63FIPjQO9n0yQdWv10GIb1AIc4gpMibDdfIutBPsvKDvC8uBAojzFk1D0tvWslVANT1LipFGD41yK1/JTor1/MSvd7S3YYdm1/H2JnzWHjFInTNm4rSSBEHX9qDbY+/yl4f9ReYs/oyUM5Yua+MY68fwPZNr6J/YACLrl2By65byvXp+VwLorEyiiNFDPUN4szxUzjw0m6cevs4G+jCzE6sWH8Fj69jcoe0+R0uYeT8KM4dP439r+zCsdcPUkoEZl29AFfdsxaTZk3h+Y6cG8KxPUcwMNiPZeuW8/3soyeHcWLHYbz+xGvcoW/mmvm44q5r0D1nMoIiMHzmPPoPn8Frz76MJSuX8l0HXbMn8xntO3gaZ3eewpvPvY7h84NomdmOZRuuxKylczg5sPdMLzL5HDqmdeHsmTN4+8U3ceyNQ8iOZTB5zlQsv3EFZl0zD9n2LIrDJZzbcxqvP/YiRgZHsPrOtdzvIduWQ2WkhFM7D2HvM2/i9DunTA6K7jG1WVYoS/xnBHSEmH/NEm42NHX2dOQreZzvG8DY6BjfQdA2qQ1Dw4PY/dQOHHhxN7dSzkxqx/INqzDnivko5FowQD0cMhlQ/TZ1Mdy3ZScObT0IDEVon9KJFRtXYfaaBchNLiAqRujdd5rZlJPHT2DVujVYeN1SZLtzKI9W0Lf7NHY9sQVn9x9HdmYbrr5vLXpWzEe+0IKxvmEMnOjDO1v2MXtUyUSYe9VlWLxuGabPnc7Nl1CMUBwZxfmh8zhz5Az2b92LykgRq9ZegSnLerjp0+Et+7H9ya0YGxzFNe+5DgtvWAa0ZFAZjnBy51G8/cwWnD5+AovWXc7NpNqmdCMoBhg5NYDzhwew9YktOHP0BLJ6naXJwVL94sfifZ9Fy8N9BtDXFY6NNNrFL0XUxjqNQgxWbybvB0g75+ZiMjOI6mZKWp0hHyD9XOtmQmUzajEIvo52oVJ7C4utNmsmByEGpqyRNnezsNOqjIQAkLTeOMm7GFxenbGtNQGCOOya41BDw9qERBtiaIJBkJbkIfIdbcwgIBuCsoyC//SFr0dLyyHaqH/4OACCTP7SJSm+6wDBbIpSLorC/AN3qQACbXjstkpVpOaEp7Wvrkoe9JI+9UD9rgCEOOvkhxjSAYKus659EiBQ9jbfHxgQdduKthntfNmQ5xPJ4fRzRITww/C5IbQGWeS6Kb2wggw1vxmooPfYOeQKObTMaEPQnkUpqCBXySAYBQaP9qE8XESUA7KTc+icOQmdk7v5kqbRgUEMnT6P0YFRjA2M8HfoLgC6WTlqy6BtZjs6Jrcj39bCdxYMnu5DqW8EY73nkeVbp7MotoZo6enElDlTGUQOnunH4Ile7qPeNWcSZ8bnwxyCoQp6D/eiMlIG2gMUprWiY2oXgiy17x3EaN8wRgeGMLVnOqL2HJfCEf1LK545n8HgkV4EYxUUgzGgO4dMVx6Tp07hy1mKpTJG+gbQf7ofY/1FZIoZrvjId2TRMasTpRbSD1Jch7EAw8cGUBoro3PeZAQtkjNAfRGC0RJGjp3HaN+ouf1SwmjcpMzbItKjlOlfKURsoLtndKN9SjtaW1sFJI2M4Hz/AIZOD3AYAdQ9me6KoMBRe4jc1Dxap3SgvaONE/sGegdx/tQAyr3DCKmTIyXBtkRop26ILXKxF0lbrkTGdhDDQ0Po6JnC3jp35YzobyFGjw+ieG4EpVwF2SkFtE7rQq61gLHhERT7h1HsLQLnRW4r+QjhlCw6p3Wio6uLc0vODwzi/Ll+jJ4bQ2mkhNb2FnRM78ZYnm75KHPfhpHjg5xH0TW3G0E7FdzKP0ExxNixAU4gjVpDtM4soKWrg0toi31DKPaPYLSvKKEqe3WoYw/9c0P64bcDEMyNpfYw1nA8zc2otsolpROtnwN16QCCcUTMrbF8D0gyVJFI7LNgqlEnRY2gJJ53wQDBXE3vysWdHpVmgGLKJwQQOtuQa21FlA1BdUrBf/nSP0YLixFamRJsnkGIAwTX0e/CWi1Xm2COj4yHQeC72+OmoioHIY1BSAMIiTbGTjODpMUAACAASURBVObFE/IFOA08VCFayjo2c3F0vSBCAQjuznnNb+BYXCIHwa59ytXV+s53I8TgI/c4uyOrYdc95nlcKEAgSpUAQokPcpmyieV2nthLq9WSVFVQVkKWr3oe424M9N/8vIhidgGKlSIqpoQ0Q2qbwhR6ix9dshwQrCBVTzFSuoo55B79lMFuS4loQ9lBks/TN+j/6FznghzHuDkhj9clZDBRCukCZ4kXUsmbhkeoCZCso2mfihwoMZmyn4lBoWRGQiSkX8PIjIOAAbdzLbNckXdAnAtdwkT3ITCCydJcqVyOjJN0TqW8DG5WxLVQ0l+ALBEBMQIpFOiiLpDSTYIvsuCKCVoP/qxxnnJG+UuekAMIJqWGZyM9G6TUk+ZAoZYizd+ENOm7tKZhJUKeQEEQoki3L3Htv4xrJBrj71EgiZoHkdE0124xIKCVJ6AXZeTWTT6zdH8W0bz0vPgFztz/gHodUNUBXWRF4yoZUETSkw1CBKbjrJ5V2jeWBvN8GgvlNwR0sRLLAa1PhGIkY8mHGRQq1MCmwhURtK506yh7hUysULWLAC5KiKS1pxbVNC5T5GguIXMXQKk++K0DBNdRqQlfyuuTYb3u+NcuHUAQ98H9iLZoxCDE9B0znfE8KssWaKvl3wZA0PyUcQAE8aZIVgMUOtuFQcgYgPCfv/gPDBDaOEmxNkCoilNV3cUgauZiAISqDEtz8VBzIQavcUisTXH9Mkf20v3GEUZ6fE+9CamPfaQ5gGDUv0lSjOXSpFB7+oJUBsEDNPUAQpWgJ9gH/2BqmMNRcy6xMrlPPlXmAwR/UZoJMfiKjv69qoqBb2czyZyJ3nv2uzb7SX5Dhl7YIfr/ZArE8EqeqbiX1FaXy4LommjTTInVu0lGFQNjUi+NfmGDKmjR5oKQQaYHS9Rd7jfhJllkWM276EZBdgK5pa0oLG3/rUlDHK/kv1L2vNyKyJ8jQ2gzuAwUMolL2laLvFn2hhgEGHhhyujoo3zjInnxXiM7hlAmd9aBEunfzwZbYJGsG99dQoBXPFXy4nXPaZw8G3bbPYDgKWX+O4Fi6kWhpWF+4pVpp0VrkuUSsgB0HYeCC/pvMp7Ug0Jvb/TcFMN2KOimEQoclB95EHErDBkjMtRqNGxHfAE8NtlWn17hPgc8jmRKvuoMbftgDIWqValq1qAg6UsCdjIGfbusoY7BtDvmv8r9FixP/P9p3gbakSz4OXi1rutm9OXOr56VWjkI/rmVzW2i1XLVl2r9Ig4QHG2efleAzyD4esd31JpOUjRS5EZW/zbHpA1w4RjX+VNFQUMM6tQx7rvEDIKdBx9Bl9vVLINghS8MQbc5Uv4PORijJIf/+Y+/ES0Yi2wOgihR74dfqqVcflc/Nbgq0qLeLgZAsILL8x1vkqJ+W9Wu58km+i6ITvCS/VIAQjPyXotJmAhAkPfFgVoy/1GGncwYjldDX2wGwQnhhQKEmHTVXV6NmyYBguS8aBWJr1q9vVd30b7BxO+MwVVamYyYjoiuZZa6Ya59UEKd6B0LQyxRoblJMaMmyV/a9oQMl/y37CeZggzR6tw6XAyvGP30HzpRZAS4FIFzKeg3AhKMejWpmtVrGvKLiC4lT1TWSAy5Hmf5jjzTP/UKo9wz5RIlMU1qZLWIh+TMBwgCZMxLvBht2hlhRUtNY7zLamLNevhZ7NjIDZ5lGildk0wG0Vxb7HUalXkIoBLgRUBAGzDRyMwlUtrJ0/YQII6HjG+G19Vro2Yaa8UVostvS+vbIeeX85pkZcyX9epfU5HESEw/I6N2u2DAFm+B6gKRSWnCS9+l8Bj9uzRSiYH6CwAI7ri4/U/GyFX/WD3kX9bUjML0PuNsZ7q+1o8mAYImK8eSlputYjCn0Q1j4gDBWku94OqS5iCIhPhOpBxir8TVa5c9HoDApyabQb6j3QIEblb/v//xN6J5YxHaOdtQfmqp8LREluYTLOJGzwpXwsv35UsNuM8cuPfVKnOszgy1twBqfX+zIYZEZv84Zb+67CY1xKAHI9F2zEOeTQGERA/vi8UgxFRjojSzWQYhxvxUSXdyVV2Ck+x1vJOirxDcN+NUX3ryTrX8qTeuzyEGQfI2jPG0rl/8ZstqOYjvkO6oGlbN3hdDZ4yBoerTZEpHqqPwT6Q/CwtWbItW9zQKl8iNcQIpxPB5K8ZMhnix+qPsQJoG0O/6oWJWVwwQ/CerqWt8WtiIUsjNY8q4rYT5Kj+Jt1be4OfUCEhg7eh9Oq7BFPikrWN8dD4ois+m+nNpchQ7JQmAH2sgraRzOlvbcMlEengEGs8yq9UYIJhx173N0VDNtcZxURkEeUmMdfTLHI0TpENJy0FI8+yT9sOCriq9E793gkCqgl2VRz//LAlEZCcUmMlZs69I5FNcPAbBaJZaOjRWvlk7B8EPX9vTQ10Us1lkqcyRchAo3Erz+98+97XosiiDdo6J1hf+iw4QmjgmPh0e3/zxdVJUsFFrDn6IwVczFr/7Wb0ptFEtDyk25joAQSgq7cQWP6EXGyCknX//HWnvc1akmkHw0Tx9rt736+Zt8GJ7novxq7ixkPHimadKHhCvEUttHZvi7fmtnslTZaOa4tHXoJLr63Oi+HU22vlO/luMnfH+GhqFxh8Qwx430gQQOF/AGl8XCmHVZoyr372QnxHLXq9+N3M3amtMdnn1p9wa+ko2+bkk2PPBgZp+ZsQNQCAZsGezIdBsvG5ps6vtHtkRNXhwGkBSYyS7r11nJzJC/U4aO2ksrjARVUmKjQECn7566/qvACDQGiSTuycSYvDl9F0DCGSXOFYme82dFOkuBhMBcDrc0h1OVihPKZdDpq1gGIQQY+R0/vlnvxotRhadZWnzycqrFoXAZ8QDESbWeiGC3vC7fogh9mHfz/D/UOv39d9EnpBt+NFwUBP/AL/HrmFyrBMbe3w0okRD6t5GCvWi75Fn/r2a5QmtSNX31Xz6TyMvU+LUDr8mgWza96rMUQocNYmFxgiRh0+U/MX5cQCBgxUcj44DhLhRn/hbJd0xDhDclbKWz3B3h6kltl6oCSEmnuNzCxqiEP/alHMRA5ChigHr15pJCAUeP671lIp8Mg0gMGahfIoUxT3xFav+phhG80+iG6D7dDPsSD2AYBIXOQRxseTMm4s3bk64M45MTN/YHIRGTEjKGrndtUDCZuQn6P2LtTcKdtRJuDjPTdMXlK9iuCbWNc2sTy2949+EW/0cn1G9OPPxZUCZNZlPEpykvU/XON9SQKa1gCCf49sch+lE/Pnn/i5aFIXopgxnOel1AULsmF9041Pj4GqSYlzjeOLq/2GCRtbMJZ3CvvBt9JkITsoSlaj+pHnBBMfuywdFJRlUEeBxSPHCZ6BP8MZ4oQCBl8C7XSS2Jvo+E6dO8+ztpCYGEHgXdGNML4+LAhBMcluVYfGiSFoLUDOeV2PDnNy4D2iOgV2xiGTAj2kb827nqnF2NiEWODETEcP/7rT7TISEZiQ8oJnb8nfzeaqqmKDAxWGOPERBdTNluxN8rTEO5u2J6wGq9rHuS9IAgsrnxQcIWspb5WqosVMngbfaW92UssKJrJ02S2vOoE7kDUYGmjR2zb0hri80zEYOAu9eHXAQl+tqvaN5MC5QlQI09HA2YOybm0vyU8pWUQKwOL31fkRahZXNt7QgKOQRFgQgDNLZ+58/93fRwkqILk7Wip8MWSj1QNSGaQqPSx4UPV9PJajiSUNl8XaU1bE0UW56eVBssp7Ci2+qSeRIcTR179UP1mEr2po4QEibv++DydpSwh3Vt7um2Z7z580nfZ5q0FIMP79eEr5oTpTlrpRs/b0ZpxjGjEx6tL/5J6Z36hSroDvk2lPXfG5NsJ/YE7vpxjAq62peR+ukRqg2Ne7G5caTuLaamQLz8JRzwYlm2lrbCmRzJlU9eN9o+UmGarBreg/GjjtcFl+8WrrRztrkuij80Pc5OFLjHNSanvd6AU2+ERNlrd5wrFeIRUMqgwpQXKty/ohLL7fhk6rQhqY2ciWKv7/JQbuQTaosGgMsN+bZRgXeR0Uv+XJW76y4NZez7WJWniBrgzVvqLxmpjTaATdZH01lbu7k1tFpRoC0BF1tAC+3mVRqOLDWhH0xTLxWZaAZb1i2XG2WeZBvkO2/J1eAchDEWZEcBFdyzmfJOFux48yviQ/WJco6OVIQx+aVKnQplClIpCqi1bT9qanz1E676i97VFKa8YmuFXtSaGlBJZdFtiWHMJdDHzmb/+lzX4sWVgJ0sjx7C2szl/X3iRF51H9tgCAIi5fK9Iu2iovXVQBI7EjGYqAi6DR4Vg5VwuXF7K03638oaSCS3ip91vhfSv3Xo5YagKAkzWtF0DyTZmsBguyMPUryLzWMTywubz7pVWTIV813ubWxqSZpgB5t9jNRk3UsgzTfUNrNrbkNlzRFx6ng+nsiByWmUESr2+oS+i9bxeAFCRj0NHyvyJ9vg/l9NnPe9SSn9xBdruDNKZk0eUpBnim5E7XOhZyH+ByrPltzbjKn+I8B8h6jw3Oh/U88h81ELebHbwgTy4w2eoHPiCdqXLXky470PfCPiZgl+v+a/Ck5LLLvWhoav+a8VsJdqpMQWwg9A/G1FZ1jVs0qe4/l8IxdQyPUzL5w/qd21EucV81D0prNKp3m/UJZTa840gIzPiPSfIrX2+pTkS2bgyACHzu/sj/NhDiSsuYcRlv9Zfq6OG3mvsNZNg3OqT1JtuJFSl9jhtKEsiyD1PDc62jknLh36NlP2hwBdAwQtMLIQlWVJQ/0q76tmfuURDu6bnISXKUfyb3Rq8r4qBFPnaOfo5amB7x91VbLKmdJJWhthqwQXxxH/Q8KOWTzeQTZEL2VMoL/5fNfiy4rB+jgCi0feWmc0SCMFDqEN5JbNHsqK0YFufpe/pTxmkQ5Ks1ZGyCQQAiNaQBCVVWBZ1CtwvUNjvFHfNBB2aZGAHk8jPbNdc/GUFr1WxcQJE92csPMAbSlk6IMGSAYw13tPHolXzEta2rP2UiLQlDjHANXstVyDWxANf0G/IxjHmkINsnO6JHj5kDeVaL1dF3MAOqaxLrrqUyIMMnaiGxVlTk2epH9u9kTPa+6WIpYPTvLrIun7HwGQdckfsacgZF/8422U6RJyFfrdlIdsu/5Jw2lMTVxqpgFotqdUDlLGry0Z6a/xxma+Nh0X4RBpHVTeWaDbwCC8+fVcad+EqIp7DbweRbg4JiIajZSjUw6i+jXYcSf44/b0useQGDnxL+/xOuFUlvE0sBZ3CA5j1N1m3uPrJnn8DQ4m8oASPMqc4eCPRsOsDnP1UiJVn5wOFPvcpHS2qp7YnxnIzaeap0WY9ZYfyZyt/j70gSLVyq5XImFtfJZAyDo2fNzENLYPV/ORZ49oKIHV50DY7PUcIl8CTARgOAqmZyMxKCGkeH4+sh73dm3YLqKlRI9LlUQ8edW6V9D6qvKcmc92c5aF9bY48BjEBLJpfYdXu4QiUVLexsyLXluu07b0U/7ywxCFKDDXPfsjnAcILg2MG6HY8rMnUaP4tFbxzS50avzGg9A8K4fVk/WtpT0lKMbj5FKNqZeXNXsXzMAIeZpmbnFlK1Xb5quTBIehPGWJgwQkgSOAWc+QOd/NwLqG7vxhBjGBxBM8mDTBjupHfSAGY+SkY9dbKPpBFRRH/aatHnq+xPgIKmsYuspik4UdyneQlwbMqkciUMWK8+SXAYzcHvg029y071woCO+sbUAgkb/vDY+PGsB280BBFHYtROXqtbXaTjn0anlN9qVvC4agxoy7sCoAM/Q6ao0hXXXKhit6leFlkia8PZUjKP0dKiSZavkZGC+DpDjbm5JtSBRBUwBi0OPrpKpej3tcJJeY6zuU2TOjUFpiwRAMPpMtqO+BU0CBA3DyDk3ibDeufdBkdNX9lDFwYL5sI5X5cPT8AkL726o1XELGDK3ORo+2DVDM4bQAEP73MRFdiLIqgviF0npGjULENx6NgkQlHxVz0uNKYuTk03BsU4uxGAnAAIDDAcQ4uvo5EzPhxyvuKw5/av6Kx4ys3dW1LisyUYBwtC7zVHtQrx/juufQN1ogbbODmRaWxDQZVJBhGECmf/r5/8+WlABVzHw3KyO1jiJLEyaHCsSjunemJfvoRyPZrdCrAfYp4ESh0Y3PPW6Z5EsJ3f23bpR6q+4NxrGzSg0d3AzYYZjT4p8fYCQrsy9g508ADoujz5SOjXu2ckz3NrWYhDUIDkjpF6KCJt7jijEeJzTN0pJW5pUULUAQvzgyZorVeavT9IA+u/jz/kT5sf4VR3J0Ynx8wFC1fNqGDzfixBQ6dI+YqBKQ4HUEdAHCEas1LO1QLMJgOAf+loe/LgBgpNyRysbgBADLGZyNsTAR8TLUvDZtBqtun0g4cIARrnEWpkTUyWyqefFhg6UJbTvo86JNQCC5jXUSJwjg0NjKleo8VF9g+r2VpkK000xRtcZ6GB+J0NUw27CAzaHJCGTKcbOsh9GaVcDBBmD7jm9zvZ+iO1HrMpUtAiPUdtfm+6LNjQjAMGFF9J0oa+dE2xCQ4AQ0+yire2aqc5pAiDoEvpnKsZIaw6PenDVep0BgsndqscgxBzCJKsXYxA80KRq1TBicqW2G4Po2gsBCL4MmRNlGQS/FNlsp5UJl6MlK+Psmixf7bPAbeD5umcpc+SPa/djBdre5WkEENrpPpG2FkQE+qk9OJ27//JH34jmlSN0lORSF4pF2KXTG05SAALJCZefEbBIJGVZpaj7nUAXdoO9nmU+jvKNVm2AkMxeSLAFfnKlt+DM0oVxQae5kAByczumxnzaUjY36V15W2VkKY4mxSI59FcLIMj8HLp01JwPQNwGy2AU2MhexQGCKXrzY4Nm/kljpfNKM7q1f+fGOx6AkPZuiSV411WnxdYvBkDQMJjxtGIKXWgXphcVILi5O8q6LkDw0TyDMyfNlwogKJBno+MxGjp2n6lyiQNxY5cEKUn2QgCd6zeioNQpCLoBzmNTbA6DuWeBz41L9po4QBBj7/dBSJhta+DFiKnyFG+Oz5gxtC5g7+sAAxC0jbRPQcdepBbOHVnaa36LofLZmGvo1XbJNJdVebkB6QDBeazWpqYCBNV9Puvi5uoo5Hj4xbI7CS/XMQjVzdqMhrGrMH6A4Hf5M3th9kONVrqhE/2pYJUcuBLX9Hunswb7YuVMP8oP0bU18moZYDk/ekZ8p9d+/RIABL08uZqNjLNK/npL6/JqyU/7jQUIpg8Ci1EjgNBNAKHVYIAKytQG/C+++I9Rz1iZ72LgdYrZJRXAagahKYBgRl5NC/oeRzwHIWm03hWAUKF4TWOAkDSa8bGmAAQfcSdCDM4zuLgAQQ8VrVsyB+F3ASCosjbHNYaCq+TE1ItfMIMwToDgDGWTAIGa6trY9rsDEFQ3XgqAEGOBlOHxQKlTtlLmaHMQGgGEpOFWKN6QQRClVL/MUbvaXQSAUDMJLm6EYzDkdwAgxGQi7TZHmx8i84gZQB2/Z0zl73FXaNwAIa40U+xbvVi6a4o2LoDAjKGnj3/HAAI71tzETHSFc5iTDEIcfPt5Fc3ABNGbhkFoAiC0EUBobzWkVAVFAgh/9W//JZp8fgSFUsl3DPjf6TIW+bSJc5qYPuOxFAbB0YxO/Sd/l0SASjsrU2Z9aSPt4w8xqEjHxyDG3GT9JhmEOgBBj4fzQmptTRqDEC+58ZMUhfYWuiYZYlDU7MF2SxHJma3PINBH0nIQGgIEjypOgqFmQgxpnmoaHejmpQqotrhTzM1VMZgSW48RSTI7vtLTA2UTaZtkEHyA4IyhC7ml5iAwG2JCdBfIINiQgF9VoBNTI6temGEQkqUaGmKot/6NGASlMfkZCZkTOUwkKdpkN48V8m8otRUlxtDWAwhe/oOeveQ1vHGpcQBBfq8sRpMMgrYqrwkOvA0Q2s693rBQ1hNWsMjUFGtLy0DSXES3VrMF/r7bt5nwmN4v4XhTo29qyJwP8qyht3kyaQDBhGMvJUBwk/KUXlJv+oLucpOI4W2aQfDXzKqYxgwCr5lX6hzTJd4lV9ZmNZ2D4Emq2k0qMOIj5FUxpOjf+PmttVbp+lNCDHJDrHCBYm8sS21hoslB6O5Ctr1NGISoIpc1/e2//W7UdX4YOYpVaP6QWCim3McLEPzLmuQcaV1U9SQcteVCaT5AsFSZUnh+foNHffobaWlRL8TgninNg6poUQsQ9IbAxiGGlNkkYkKJQ5jGIHhCJwe6Vg7C+EIM4wIIusVVFSJuhv4++B5FMsSQJqY1DZRtVuZRVmn8mR9iSAn+XDyAIADSJikqJW2pSVe7zO/05Uv6AV8UgCB2N34RV5xZidOMaryTa5+sYqhmZ1yVQpzGTBgu3acGDAI9Q5vmxPMWXIhB5FtPo5ekmMIg+DI3MYCgyZN0zbbKmKJxgf3+WIR+T+vXkpDPeg2GDG3tV3c5gBAvP/Tvn0iyxv5eiSMhgEfDljJ6BQiqX9NZAQ/FxOnpquRuVQQCaGLfM8jXrJrBhrIuwpwlkxR1zZIzk6fGHJV6yXZekuC4GQSLMzRmLkgqni9ioJMXYuDx+c2lEjlxOn6xbXGDLVUQ8X1Inks+J+YmVFm/5hkECTEk98Z/g8cKxZIU1X6YxmZe+al8wwGETHubkC8KEP763303mjQ4hDxf96wbKLfX2U5zKQyCJvXQvfaag0AvqwIIVuGZzTBJTU4RCnIVRWdHEMvu1biQbwz82Kh+Sw+4DTlqFQNtmpdcFnuOUcaSg6AAIU71SN6CvxG+0qj1eyMoNcocHYPgbSonMqWUJmqmtucB2LlaZWFslASbYgyCXR8PDMTEqkaymtsjPwxEQmZuqzO9I6o8UbchVUlNRkN45tWsJZ/f9MN1aRkEOSCcCEcAgaslvJC1xd91wn9N5iCwOvHXLKGK43Ks9Gq1rJnKQD2szVcxpOQCpZ2FpEQnQbs/Tj2bmsdRBdBr5B+xbHmALw3A+O9xDWySKjcu3WnGVcvXjAYyQL4STzzj+KwCGDPjKuNl5LPW8dckRa/8OwkQRFd6hoV1TnxO/ngdQFDjkzjNKYClag1SjFytVWzm90nwpgBB9lSYJT5V3sT838vfzHx47mkL6hw5mo8wCOa+bzPIejKTnEcaCI7JVwLsxM5A2rlpCBASIMk4yprvJuFf6YOQGmKwn/cBu5MBzSmIz9OkAhgHP5PJegwCDTjehtmvYiD82dbVhbC9hehnHtMIje//+tNvR9POj6FQ0ittNZO/PkCoFWKoCxCsETBH1WtgkvTZfS9qfABBkCKrc3vDoQHfJrQwUYAgG+mVtDU6TZ7BS01S9BgEfpTWOtsDTXsh1BCXt9QCCLEqBgEY9XqXJw9WI6o5hvitULtkmjSAIPSZ8xjTlFYsTsjzT2/eMmGAYDx7F2Lwc1/MelovRQGC18PcJBxaSrHWfl8KgGC7ClbHaKUJjxmMof+TQ2u2D8JFAwg+8+EBnzRZcybOD0XUsrpGzmyHu/qHrrFxVONcDRDo+gLa65i9ripn9stKUzxlBhqmzbm1faK4U+nipgFC2rzTS1xpDXRfazJ4jXRXnb/XAwiCD6oBQgICJXp5pM/Nd8r+3wkQaB2kWZmVqYiqC0yXW5aVdIAQ17m6pobDSeZY2OVz8kDOTrMAgU8hA4ROhKbMsYwIo5Rb9Zd/8o9Rz0gJLdT91xhWiVEkAIJHtQoCrK5iaIZB8D1kCwJSPKkLAwiqPL3rONlLdFUFSUTZDIPQECBU6TjnEU8EILBYxQCCRzP64OpdBwiOLlVPIc7uOAYmKegxVZD00C4yQJAuc66MUjPOZawJgEAV4iEl9fz/ACHmPSWMfcwrTOmmmgRT/98GCIoA4rSv0O7q5vIJ+VcFEBQk1D/7tZITVfpMdYH5z3cNIKR0lU11qFIZBDd24wLbUJZzokw33QYMQipAYDHzgps++8K2x7M3FwAQQM38FCD81z/+ejSnGDUACNW093gBgoIKl2TjxVobAQQvqSfmfaQyEsogGNaA48X+xlXf/UCb0QxAkDmYsrimKk6aAQheaCDBIFQBBI5D0o8aMcOVvIsAwS9b872UNIDgs0lxo2M8RwsQdIecZ+wTqhNlENIAAisvptDiHiQBuJApOa8h0+8Eg5D0rsT4ON+1+UZJvneXCuxSekr4++DvsT7Lhhh+WwyCDSMaQ6z1nx7FHVfwF5NBoJeYnYjF9CUZmn+M4q7PIKiekGfp7ZW6R7VL2343GYSYnNW6GbOJRnO/DQZB1zwJhP1TaEFwMgfB7LX0oqnBovgMQp0QQxVAsOE4G/CLs9naasA6qcRUJEIMXG1lkhS9UtMkg0AAwTII/8cX/j6aUwJamUEQasB16zLBWKVhZed5rcYNEOw9UH7M3SRj1YjF0iLFLmrxDn/tHAQPIBiaVt7oQg/jDjEkYvTKtdjyg9TbQet3UnQ5CH7ugFPHPMYkg3AxAYLXPCctHFA7ZudMk38hzIUwCDJP009D9a0nExcHILhSXY01x2OkBBBSOjYaatiL/lldYUF7LEZpEqEsJvW8SwYc2hWwurxXvyLKReQ1lXiPRWKiWGmyPiM1xGD6PWg2BUUqfBCnnQRTwZwHAHRG2jZaYtB6QZqMW3WITsBFRDRMZ4C65gdxBnkSDJn8a5MAyqDOfMiuva6SlRtzbnTfhNY0D47rhkjSteVvETFIJrEx1SJ7HoH9jkEAiTwAdxbce6t0jqIHkzNkZ24vwzL63+hjKxvVS1T1m7QQQ7LTXapcNfFstg4m0c7mofH+e3rdNJ1StVuV8l0zMTFmhmN5X7UYhFg4yHw9bW6NcxBczo9cLR+3U2kAwb9m3dx3JMwkM6HkzPnwWkWQ9IyUOdbLQUhjEOR3PpgkmfSZmLQcBK9Rkk3SdHdk2NNqQgxBawvFp/mmjhHKy/qvX/h6NIsBgvRBe6qlGgAAIABJREFU4KoLo5ycYXXL45CRH2JQAl0zNOWbVs3V6XaXRknq4ihAmHAOQmKL/LDFuEIMtW7B8qRG5Mm/+6H+XQwTAQjUU12gzsQYBH/+fne98QME2d/kLXu6l9zOl3NwFGD6pZyijKsOttHdzji62Fw1QPAz42trtRiDELjLvvxEQRVSMnY0H0qE8pV5ZEv31KyquouQ0fOS1Ehs4M1exboYyi2bfsJdqoIzAMEUJjlsa95n7JlLAkuuZwBkWQlpO2FzGhkQ0PJrcx+tvjDnVffLAgnjMDhEYMvzeP+9sjD2y/Wce+WOip3iAEGe6wMS/m4yGYzVlAIJ6oOgeiVAaBu2CEByjpP5N9ajbl4MLayjI/Alqui9BAoQJBzllLPHaFnHSJ9vFqVGkmAtD5C/7bGaAo6dc8aSE2SMGaCT7swrr7Ef8hFlEPuRYijNW6LulebhibVV/dwEJnDYxVzwpAAhoIXPUL+VsquyJR1oEj4tQEgT8hjiqTbprCHs2mqSooeMtStiygR4XN6otWGdLH11q3FZGpWzjMyFQ5BGfizAlPUW6WEe1wLW0JwtGWG9i7BCygHkR0se4niqGJILaSTC/roWQND8F21sFgcItoqhqwtBW0GSFGMAoQi0Viqs8HQBxAvwJNBI5rsNEMg48JLTbY5Nljn6xyh2oBLlY77A1A0xJAGCBzA141gBpyoAi/QaVjE0zyD8bgAEd6OYlrW5+Jrz7ySfs7rTm5xbVXXxc8wEkfWeLw1AoGHFr8KVMfgAwZUxaAjHYR2DAwUK2k1P1dLiSauSMUeJ5IwUDBk7Wy2RUHLOqBrpNRnN+jFeZS/pjY2dF3QgBZXNmEt0jJ6tmH4EvnzqvvmGVGqbXaIZKw+dHpVneRapJkDw+Dqf3ldj6GyDsmQiElWxXhNxFTaN44xifDy9JHyn+b5lMQy08lvJGivM3zdiyeHCGIOgAEFH6GI5onsMc+rltaQl1lYZIcPUyHo7gMBgxLyKPVBzNiSMJ4bIBxoGQ1dd++GbQ11DlSFuyOMW3IJNYxNjyL0Rq0DAUuTBZ+OoNNgDCLw/0jhMfuJzSIi6kbW03woaVtmTmn7/sipj7JOD5nXUX8r5MaMWIGZBrANXIl/mFlxtDBZjEFRnxSsz5LlGl1mQKr91P9VG3enNdwsgmFNCjY/MVeS8P8lWy93dDBDYKQIwrAxCTzFCWzkiMNg0QNC2jdJqOZ1BsHJpPck4erMebY0QgyoqRmvJUryafRCcGtVtdfotXl+uz2+Yg5AGEPQ4G4OWBhDcnfAitLRNMerXuD4uPungzKUIMcQU8AWFGOJGxAcIbs09dGsOT4xqtO83pTdG+40HIFgDV0O/pDEIglvcBUNWoZrrnrmUygPD1sPzwCkrSr8XglVKOgmDBvQ76u1QrgtdhKJeao34rNunONMSMwR2zqTaHM3I34gqyGTl6mr2kvlSHwLYri+JhOg8hUu3WarTbUvryTt3b2Umz1Oc1qiz5dR4u3xeAX0sbKBVQMZwSAKp721VhybKHGZUWYoMc+C8ywqzIfJ+M1NTk2zGSmusHiK/Vy840mokox04xJAACCllt1pVZJc/JbFWT3EcOLumaFxO6zEVunQC3hRdyd7zPx5AdKZPQzrCsthQjtkv1TfyHt0b76DYbY3vrzPq8c/GIL15Jb1XG7LRRVpigOneDA0dmzn7jaF89ZwyBkEMmgTtxsB605TU+yLon0OVAV1EPufKZBqZc+EvxffCHDDw5XbrEXegpd/52y9kmTzPcoh6NgzwYGBir/l2ujymnkwoS85R7TLH2iGGhLJrGGLQRknCkmkPoCRAoLm3TyIGoYX5D/pnmMb3F1/4RjSzWGGAQOewZojBU5oyRNO7njfNTTQtMS3mRSRiO8kQgw8qfANQbYRcj/j4d94FgJBqkGJHyCBnp/wuDkBwqFw9Gt6WJpMUmwYIifr0uLC6ZiNpIQYfIEjnSpNb4FOjiRiu81DHxyA0CxDkFkAv5i+LJjJs4s5M/YcBSpUyWlvb0NbWhrHiGMbGxpDL5ZDL5zE8MowwEyLMZ5DLZ5mKI9nPZvU6XXHI6H0KBoVhkoQhVqIZ8q9Cfo41otYqCHnJLIMp6wsyIbMBfMZMnoZNxTHiwAwC2zlxccnoFnJ5FIfG0H+qD33n+oBShNa2NpRKZYyNFZEJiOoMUKROa9znQzwKfod5gSgR58nSf3P9todUqPLD9yh5FJGsgW1Q9P+w995BllVH3mA+/8pXtfeGbuiGbrzwQhJWBuSlMdLIMxpptNJ+s9Lu99duzEzEROwYzcy3Go1GBi8J5EfCSCABjREeGic8DbShadpWddnn7kZmnjwnz7n3vvequqqBVlcEAVS9d+8xeTJ/+UtzMhkolctkTEZHRmmc9ahBayxGuVDIQ3WiCqNjqJY407vcUaZwCO4BvYN0eA5yhRyUujsgXy7Q1bQNqENtvAKZegNK+QJEhSxk83mYmJgggIPrTf0t6gDj+8dgdHgUsqIFJa4b4XrEAYID7+bQe/S1xHwMyFAMJZ53kjv8N0SQLxSgq7ub9nZsfJzWG2UKZaBWq0G+WIBsIQv5Qp7Uc7FYhEqEdf9i/J1zheAPn0v/RnkzoZh8vmBPGRk4A+jE4OF+Y5UOrj3KtIQ6cL1x7rjmLAdOwZEcUqgqoth5PpuDoZ37YGT3EIwPj0GxWIJSqQzDI8NkwAv5PH2+Wq1SOE3GYIFNUIKpmQaWHevOGRaC9Q3JHlUYydFFcMIygu9iGQHI5TNQLpcpVNhRLtPzcL9xjfEDeAby+TxUKxWomO7BeBYzuQx0dHdBvqMAmXyeSxGrdZgYn6CzWizkaW9wbpXKBHd3peOWhep4Bcb3D7MM1hCCuhBPzFQgQMg5NiotxNAMIMiasehqt6FFHwTlHCUBhO5Z/QDlogUI1Afh7z/37WhhNaIQg5g40UPcKMmhU1L+NhbHyN4yCNI8J/QygkHpiacyCLZpibvetX2AYIk4AaOOxmsSYiDlYDuCMXq3cyU6OP2aXAFMnjBYI2T17RQZBMc+uOebOmc7LjMCOtsMSnSrZfu9BOUWw7mWhjPfMt6X9wwTunaeuAuTsBeESNvSBs6gWJaAn8b9CZSAK5qZupkZ5RjmIGgkLIDET8JiY0ISjSAF/wvj9Kjk8hkolAtQj+pQKBWgp68PRkdHSZmNToxAParC8tWrYGDOHHht906IanXo6e2FUlcn1CCCrt5OyHdkSTl3dHRAuaMDIqxlJtCTgc6uTsggeEDPMpMDqNWgikoGlU6hAJmS8faNQfZlxylHs0KcNBBUhGmVYGCB0uhOFhrDVRh5bS/sfGUHVEfrkM/lodTVRYotl8tAsViAPa/tgvpEFTq7uqFarVA723w+R4AGFSKu28jIMCljHQBHYDE+PgZdnV1kVEqlDlpf7P2OChup7VK5SDfwYRe8QrFA7x/cN0gxawRis2bNpu9m8zkCC7VqDbZt3gy1Cno9AEuXLYNavQp79u6FfC5HRg3BWd+cAejo64ZyTyd54pWJcZoLigt+Dp0q/H29WoV8sUjVKTTpegSje4bg1Ze2wGubd8K2Z7ZCfbgCGbqljftg+Io5pIfZ/2SwL6JLASPIFfOQK5eg2qhBd283dHV2wt69e2iuY5UJ6J7VB0euOYoM2fDQIJQ6iyw7+RzkSwXo6u0h8FguFaGrq4PWqwI1MiYoN6XOsgsHZICMUoQGuVSEDAIFpH8pKUZpIZVTYpW7eP/4+UCQ/GZwAogMXpCzGwFU9ozB7q2vwdDufVCv1Oh8IFhGNgfPRHW8Cru2vwodpTKdk3GSfwS6eQIQOTTQ1SpMjI/Tf7NnjgAAwesEyRoacbQvCJQQGKAdqtSqDGJENWVzUCwUoFarwujoGFRrFSiWS9Dd0wOVahXmzJtLxnrvzt0wuHcvjI+NQe9AP/QPDMDg4CB9BsdTLBeh3NsBPQO9UOrpgHypBNWJCsuS4QsK+RzNsYoANsd7JqFSBAa7t7wKOze/ClufegkGt+6FXB2/i3k1sRNqHADHkmj2mcwt6YYgj0HHIxWrR3rWKWe2WeZXXhWDOJHkEMVzEFDPaICA864gwPvbz30rWlLNEEAQmWcaTQmGDEArcKL+YFIAwTOgGjh4IQam/rxYiUGW2ki3rmIwNLjnuaaHGPwGT5yk4QMEL7E1nErz/zclKFMLMXh62Vpt8c5DuWkNELRBZlDoqUGv5awRbp2IZZoPkUdu4rICIj3GpylAMPGvUP96AMEQrEmtlhVVlgYQyJPO5MjAobHOFLLQ2dsFnfN6YWDJbOgZ6IZiR4m8OPRIESA0ohpEmTrUMgC1DK9kHiOq6L0gu0CuFuqJBh3i7u5uUmCFjhIZPFRUfX19kCs6Y9qoNaBRqzPzgEZWjH2rMvDJSVjyp8VL1jpK3isbrzGJpY4DQxPiFnmexnc6bxR/rxO57SaZ3zsizMdH+HtplofP8Ls0u/+XWAJ6z/WIPFfypvWaymU4RIsqIcdx1QGqQxV49o4/wJN3bISJPcgooDcuTEza4rNM4uMw7o7GO9tRhFJfJ8xfthB6FgxAqacMxY4ClEslZlHQa8erc5FHMIqfhpmtE6iso0NlEt4xeRa/x8CzRDKLgAKNaFdvt4vrRxHUqrxQNO8EYz8d4pP6DJETkS8kPcIfLUteDEXJlh9dsmlbilDz05W0vDVDyfI3SZcS+dX6Rsu0OdcSo6IwgumHksmrF9XRBuDZN2HRUK4qEex7YQdsvPF+2P7MNogqhtQT/WlEEdk7yWdhBoEPiPiULMdxcJq8H6opF/tmFki6uxgUy5ySg+ABBEMK1Bgg/Fe0pJahKgYR/sMAYQoAgWQGkXDCxr6ZAUIYhxWAgIqS0KhGwho0GEENSQKNfiV2rSRfEDCvI8eap8IgMDGO5DJa+QgGls6GtWccCz0r5kLXgh7y4Ax3qbLgfTrXonHaUgnMm8EGSo9GK9f56vxFCSnr0x0qtxnV5gkDMCJqtyZEiUm6yfNMVX5m0tj194Pv2Y8nvIPCxQnhcu8VKsxiXaVAxjzdat5v7YERK3xmbV8VXrznGfjDhodheMcI5JBlapKATlxBBqWqQeRQsasEK05cC4vXr4TeRX3QOaeLGSLr4mrvJEkQ0oyAz6rR/LW8BYAtAWfPtES58SRMQaVM2PwHLWKe+Esesy2Dl6HLjYw+A8v5biYUYdhO+kYIOuWYqjxUUzbg1saLbfIiSwdor8BYPzvmUUneiJlALQOjW/bDgzfeDa88vhlqo8yG0RDNc9AZETk7YIAQ+awXv4ORyAEBBJT1bB4y/2Cuey4jBWfQsQAEItSSkpLMBk2GQbDb3jIH4Q3MIDQ7drQnwXqpg8zpV1NJUjw4DIJjSySJT+SMx63/ztLu/05fgMUKTUrogihCEkBI8iitUU4ACLae143B3xpeeIoA5yLoWzwLVp95DBxxxhrId5cgynPeP6p6Ub4q6dqLVojCsElgoQwcbGM/FdXfzBmxa28sUJJn1sxb08q52djSrJj6vf1PrdTbmW87exC8Hw19ppGBxkgNdjyyFe75xR0wsXPUebEJ72UNiVJTA+jKwPLj18DR55wAA0fMgUzBhIISxuKBE13Y087cws+0Am9TeWa730kDfs3GFIK3dt9lclm0YW3rq8EY6fUaa7SBySY9ZP1MtG+1DOzfsheeuPlheOHBZyCaMMDXAwj8JccAT55BEOYhiWxA522qAMFWBkEOMv/8hUuj2WNVKCKlosCQozw8K8fK0yQutZ2DoHbW279YjbkkXUgpUpCDkECHu1pZVcKiOEUPuTbLQVC5ExxjdBiSPMMgeSd+bt3MXCGWzu4mq9l+FUOC8+HeKTkILvbPwmbKdSQHgTLylcZKTLDipzo7oWvjTfKpKqITnpcUJSJEySUQfswMkkvI9Iax1tfIXFcIiKV2GdcS5opf9+xl46YochpXFqA8qwuOPGM9HH3ecZAbwNwAk1ltlIZi/5L1j2EDbMO8JA83oatmOzarLYU3HR9qCyCYF7Ua+FQMVLP3J80vyUtL+1w765Pk5Zo9w2TF+nAd7rrqFtj6wAuUZMapoukLkclUYf4xS+Ho898C849bDNnyTMWLkgYeTFif73bW4kA+kwTyUkCDB4q0gpnM+5XpaftrSeNpEyDIVwUgtDoKjkYJDBN+sRrByw9ugrt+dCs0dlddGhHm/1AyrO6DwAskzIgkDMfDDEHeCA04OTfOAQRslKQYvyY5CF2z+iFTLhq8Qe4sZP71i5dFAyMTDBBC7y5hV9zZxdgsxuIYBomHnNZeN/F8NwEIvDhcIZH6o+uYVU6D/ryMVydXhgmHusxRsyhM1QjSa56k2K5O070DhNu2mdIp0DWR1TKJPfayD3sxlcklMfea6z1tnWgpJ5mvcOXqFBIvtaQiyCYWp6j1MPO27UOd9EHVwjYxxCANRhLkQ9Yr31GCheuWwGkfOguKi7vM3VCudJAAcSvjRVni7oe+01pzHNDUZ+TLrdyiVn+fkUGZh6Z5ptP6zgTX0oh2VI3g6dsfhY0/uxtgmEs7MbmN/+y+R9kHhRx09JfhuHeeAivPXAO5HhVSmNbxHn7YjK3AwZD1CGD/1r2w4cqbYe/Tu4AbKXHSIjdL48ZfckGYzLVVZVbLNUnQm5499HoJGYhjGjJ2DvRDFqsY0CFmvhsy//6ly6P+4XEoUoiBf2x1QaAJdUmiKEoOuSvY0DLb31e2slf27bo/v6axveJXO1I+xrZuVicZGcMu4TtVfZFkKF2jJDEHpk5at5lusTse4E1ZBx8gGHAl9ekB4An3Q680z8F52e7mSlPFoBkRM3dcK3sPfaqV43lz7bUYw1CDW/gbz9ycJutpS3gymOjFJYFGY5vYB48BkXLo7aGCx7Kx/gWzYWDNXDj+PW+BfF/BttxNdUxSvONDAiC01CyH+gcSUAj+yvghe1/YAfdcfRtRw3LfCitDty54dvrmzYae+b2w7IzVsOLU1QDFVkkTh/q6Hp6ftwLKoGGFzEM/vxeeufVJKsGVnFtq/meSaFm+wvuBQqpcqT5jn1kXpigs+lODWsdbvRnadjb0JoWAb3PsGuiHTEfJ/g6bq2X+4ytXRX37RyFfc21ZpdNcbOulWZF9GTdE0adIGARLWctfA4MpdZhi4XX9q844kRrYcKKSziTtU10ZpIyaF0/m4mLopiNjsGBS5sgNmTCzlFGeZhCk81QS0+JVWEgijXjXaiFx06ic0jbJwfIqU7+uMm2SQyMmz8EQUlJwxR3XZMVNkw/DIOg9bI/dSaJLfRPJLXLNvgs4My+iJfPCGuyDhevDH09yxZX5NqEsrEnGOnYWaEF8jtnx3mf+nC/moXtBPyw8YSmsu+AkyPckpVoHEn4YIBzC2j4FIOCMGwATu0bhwWvvgC0bN0GmjqV0nLCmv4X9DLrn9EHnwh446eIzYNaRc7i0ME2UD+HVPDy15BVgfGBuiq1l4MUNz8I912wAqNapxwhVRpENMEnN5orxUD+KM67pynYYWs2UM/PqGqTh3/Af6c8R66SIDEIn945Aya9mc5D5/758BTEIeSqbMQo77QYuxRWQ30YhBumk6JCQ123N4xcY9YjBsEyFBkwpDAI1lTHZmXZrxOM2z6TsUIuq3Li00fL6KSjA47xUaagTMAihZ2zew562u3/d6ooQEJmxu94BKm3X2skgmGD+NwQLLhvXYFIXuLf3NEg8yxNjFdJhAOoy852pJm5IfU0ssvyK+9d7VJjucpnyjuQQjHSzEyWr3mU6hFGNuQEIrgwt6AiWYOdz5QL0Lp0F6847HpaetBIy7cSJDwOEQ1jvu811baldiKmydwwe/NGd8NJ9z0GuxgCB6ro0gwAN6JjVCUuOWw0nf/AMyPVhs6zDDMIhLDSTnpoGCFE9A9vufQk2XHYTZCo1G7aiu2AaETVd1CEGHQ5nezf5eKYzJdz4ihtEcYN0AQhWd9tuthFEuQxgiAFzEPgnggkECP/6pcuiWaMTUKq6m9LM32MOng4x4B8tW2AzFx1V4uF1k6oZ6l9R+LwwSdrZTApLl037Sy/zzeuljnRz2OjEfdrPQeAWrxwm4ZasHkAQ+t7ipSBbPgFAJddQuzlJloYOMehyoMQ1TwAIMiMbYlCXfXCsRXIHWjV2Mgg2CME4dyh5Pxw4M2uSkPiZdKo8hGwBYTMw4jgoyUEQUJPB/gYhSPEgTQTZziLMXb0A1p1/Asw/ZjFkSgmZhEkDbeJoysenKYoyaeVz+AvTtwLCBMu5G98zAvdfswG2PPgS5GvINvFFSRorY0OsgUWzYPHxK2H9RW+BbJfqazF9Qzv8pDf9CjCD0KgBvHTX8/D7q2+BXBWbtbH76MrD3f1CzXLk4suh+flEbUt2LX7dc5A+oNvtxwBCAyYwxPAPn/92NH+iRtc94w1pFjEz5LD+v9AOFuVIq2V1cQfFhJt0UrQKVhklDnVL22RGLprYs7QIISrO/uRseNdy0ynuhJu67LsY6iNys02YEgGCAhUGwWnElS67cWOnQU9iq+WweFdpLTKoXC7iMjxUAgr9vYHCpm4DU6xFUifFpNwL2xVOAbT2khm5WyOFSsJ7MqwF5X2VrvIxyGHZIrOqqq+9oGdKIJVrmOUaYXPxUFpCD6r2jv4uWHb8EbDopBUwf/0SwIYncrHWm17/HJ7A9K5ABDC2ewTu++EG2PrQy9QFjzSR0cOijlGGVh67AnpWzIK1F5zIACGMkiVFzaZ3tIef9oZfAQwhZyCqIkB4Du76/m8hM1GHfAY7k2JbZ84Fi3cHlqRBdclbQuEAX+ZlPiP20GIGEVpd5ugskZdfqAFCNgudpoqBl7cBFcxx+/tLvhUtpLsYFEAQyloBBA4NuH72dLMg3QHjbvYKAYKmTGxMxWyui0sHBjlgE2x82YxJRagtWPABgvyff7+dXdQAIAgk0QY1iQ7nnIl0piPUFCErYgFCNsv97OknRILuzTxv7rJlfzsFgKANbWj4+e3BrZ2SQ9AkzKTXm9avKUAwuQK2eEaf7mYMgvvcVABCqa8DFqxZDAtOXA4rTz+KOhk2qVx7w6ucwwOcwRXA9sGD47DxJ3fDC3c/C1A1yb8BQMB8g2XrlgHMycOpH3w7FHqx2VYwrsMAYQY36k3y6KjObd5rWXj1oc1w+xW/gcbwOGQhB9kIW4GzwW4FEER3W4tmbKDrnWBQLCXz86fcvTzNAYJYH/FJowSAMCEAYRFe5FLjm9IoMYfKHCSFXcyTGCvJIcDkOs5BcIMLszHtqHnw4VkKyhwTPVxJrAhDDHLlsqpT82l+1ciHDFgygyBjSgIIjvZxyYFmG2KzEQBgjae68Ig3g9cRDRX1Fm8BEEIzSuNsEyDguKk9sIpj+eEh83Zb2ZG0O/5m6dwJWZc0WozBlMBJJz/x4z2DAKG3DHOOXAALT1oOq08/hnrBh3cavEnUzeFhzvQKRAATe0fhoR/fBS/euwky0vyOLtpyGACbIS1YPR/qAzk4+88uhGKfAQiHQcFM79Cb6/kGIGRqWdhy3ya448qbIDNag2wmT3kIErpqBRACDWwlUV/wROUHMwkQ/u6Sb0WLpwAQOAfB3G5pQAVOWGhnOliqtDBph8MkxVSAYG5G00a1nRBDmHdAZpAYBHNhhTLzTRmEVvcTtCG+kmCJ78FLSRgxBS3jDJwLGYx0BoFvtpXETL1+iZc1JQA0Ggajj6azmCxAoDHpeJW5zMh7SZMQg/7cVBiErtndsPLEo2Bg3XxYfPxyKvk5DBDaENQ/xo9EAJiDcO/3N8CWh12IgeN7qog2B7Dy+JVQWtQFx154CuQRIMxUj6Q/xn04VOZMt3BmIapl4Lk7n4J7fnArFMfxtmS5wIl17eQAAn6Dk9Jt3xx6yNQAgnPiDEOdFmL4u0v+M1pUBb7uuSmDIMyCi2f4SYpNJpxifuIAwb8fXlMsYYlH88uajKRZw246IRJl71gOTb8fMEAIuxRa7pGvx03MQUgBCOE5SQUINvxgaPwWOQiJIE1yNNQexYCadEUMQERTBkFjDsvyKFdLGKBYxYQZpQUUU8tByHcXYeVJRxKDsOg4BAjUoeRQUUFtzcMxgSkf9zL12nrkIfuhiT1jcP+P7oCX79sEuRq3STI5ZXbO9Wwdlq5bCj0rBgggUIiBAMIfl1wdskIwXRMzieIIEF66+zm46+rfQnakDrkMdnKl6xo5xGDD3RKGbZWDwErVhbvFyXTN26SIj5MUc1DH69xVCUC7OQjIc1SQ7/jbS/4zWozXPdewpDctxGAcXgo9cMkE4RmTkKjzBPC/bTOeBOOj98AHCFIq6N+WksZCTA4guIY/cq+AUO4y3ukBCEmKgi8cesMDBN1hyyvRlDCAnzxKajGl+ZSVB7vZCewENWNKU668ZpJ9MRUGodhbhiNOWQPLz1gDs1fPdfXq06UE3qjPwVbw9RpdZ7vrtV0wMGsA5s2flzhaVFBj42MwvH8Yenp6oKOz4406qxkfV3VwAjb+7B549s6nIFuhDCsuCtJJYrkIlp2wAuauXQRHnnVMUMVwGCTM+Ca9CV7AOYPcIwaTyLc/vBU2XHoDZPbXAKuv6Op5abWMvqNOMrcJ9WlJigogSGK/l5TnsOq0AYT/55JvRkurMGmAQGaDwIAYCtPZLqGDH01LX9IULASj9ekHCHTMPWPHRk4Dk7YAAhdEKvGMG0v+ewpAsHfIB3cxOD8lQfRdoMH/LyckLoHRZxBwTjQv7I7pDSluqOXZek38NdM9HvzvSxOqpCRFv8lXWvii+ZpNFSBgI5B8XwnWnHksrDjzKOhfNnBIAwROFGalgv88svERuPW2W2Hbtm1w8UUXw3nnnxcXTQISddhw223w+9//Hs4880w499xz6frgP8afyr5xeOind8Pzdz0Nuaq5BTQACI1cgwDCwuNXwBGnrYGpC5hKAAAgAElEQVRsB9O78Z/DYOGgydAbiAUTq4C3fRJAqGdg+8atcNt3b4DcsAk7oLNIIe6IK9J1iFjZRbGZ2tmSUDD/rvnV5M0AgvPbTD4hRSr8KgZMXa9imePf/+W3ooWVxuQBAuUwYgtcSQCk1lBemaNMTsfUdbJcKwaBjplppRuGGKiigOGanW9IjXvlIPSpyQEEx4wkHPhQMaR4wyZfNZlBkCbB8njrNKtfmGQLIaGYiZD6WTGhDiDIYmDTqLoBCHb0CcoM/8bdI1loddiFnxUHCPIZyyCYext0LoTXYSaoJ3cC2kSRmivYuFESdgSr2zXkfQ2aNSmN1IAGlGd3w/pzToIlb1kBXQt7DulYcbVSpY6mxVKR9vGF51+AX9/4a7jr93fBxz/+cXjve9+bCBBGRkbgyiuvhDvuuAPe+ta3wiV/eQmUy+WDptvfSC+qDVXg0V/cB8/e8STAuKntSQAIK05aDctOOxKWnLScSmcPA4TXbxdR39Rr2Io9wxfHvQFwGZskzl2JagC7n9gBv/vOdQCDFSrTp1tECSA0DzG0AxCS0sYsodAkxNAuQKghQPh//+q70dzxCpSxk61ZYfFMXR8EYQDkEgd+BYcYGChQv9IEgJCYPZ/CIPBTfUR+QCEG07vKPVEDBOPzU6KlbpSkygplJfXVxTLGGEBIYBk0eJHrL0x/bJvE5z3HQCmbvCf5C2ZVwioGU23C83NhDNobvL8AqyWkiVXKOQ4ZBIIE3oUe5mZLSkTV1RdhlYhPi/FHNdBJDjOksi5yR2smKQeBn5vWBwGDYMVZHXDWB8+B+ScsgVyv6Xj3+umyaX+zgDHc41tuuQXQ2L/73e+GckcZKhMVuPHGG+HHP/4xfOxjHyMWIVKXjslg8LtPP/00bNy4EU4//XQ44ogjrHeDn5HupSQPhnmLh4+mfWqvywMxxPDQT38PL9zxNGRNDgJ1DFUhhnq2AUedcQz1QOhd2Yd14QljnUErFbzOk391H42oKDJW1DtNmpqxevVuq9Tem5kNyZbzKvR/uvmSg+YzlDad03yXO/YmXMlu757hx7XsT2LepT+H7x4aGoIH7n8AVq5cCSuPWOlavKtLdEleZ3BLEoVVHL0awCsPb4Zbvncj5Ee4jw8CBAQ0rTopWraAE9iMvjPrxR6aazuvB2E+6xgEvM3RXeCcmoOQ0Emxjkz0N75yZdQzOGIua5KVNHfc2j4ILGSQ4XbH0mEgm+F2kdMDEHjSXoamMVbs5YrBMbcV2uZK6QyCvcCI8kL4JDCt47xlLBlpByDwwlrEEPccwox88prV2GYSIJjXsCI3lzXpC46aqNyWAME2ZDI3PJLAOqBFhjqJKvPWw18LO5zYmoXry6OLMwghQPBTyZFBKM4qwpkfPg8WnLgUct0JDW1eFzM0fS9FBYlA4Nlnn4PLLrsUli1dBh/56Eegs7MTurq64De/+Q0BhD/90z+Fd7zjHbD9le1QrVVh9uzZMH/BfAKQyDzs3bsXtm9/FebMmQ2LlyymASLYwM/v27eP1r63tw8WLlxAz35dFO70LZv/JGVwq/s5B+H52580AMFwf8q41LMRrD7zaFj7zhOgf/kAgS7+80GyQBgWqtVg//79MDS0H+r1Gu11X18flEolMgP1Wh2GR4ZJNvr6+mF0dATGxsdhzuzZUCwWoVKpUH7K+Pg4/X93dzf9G8Eg7nW1ijKxDwqFPMyaPYv0/cTEBOwb3Af5fJ7kB38mxifIQJeKJSiVSzSeWq0K/f39lMsyPjZOf8cfHF9HB+e3cOizAYNDQzA4uI90an9/H/T29XFL9UaDno1jxPF0dnXByP5hypXpw8/19tKYcPwYGkMg/J73XASnn34azQO/g3PEOYyPj9H/d3f3QF9fL43f/szkllmAEMH2jVtgwxU3Q7TPMQg5yyA0yUGQW5LDRknWlhmAFmLURICgKt1MBZ9ILQ/VtFru76PLmuSnjqr+W3/zg6hz7xAUavrSJV3Hbj5OT2oCEKjfs98HQV4UUv/h7x2INX39guQ3MUJcDnAgAEGXOfLhPhCA4MWHPI+ZQx8GkhgVYi7QnBKDYLoqKo9cAAu9YwoAwQID251QAFC8lwV3bDQyYcM6ikGYLoBAYSuzaupOjdh1z4rl4M/HAUKuvwAnvPtUWH76augY6HiT3tHcxDJGAE8++ST85Cc/haeffgrmzZtHDAAq4ve///1wzz33EEA4+aSTobevF1588UUyLIsWLYJPfOITBBI2PrwRbrttA2zbthUuvPBCuOjii2Dvnr2kdJFZwM+iwdi1axeFKtauXcsDmknlOlNgIOm5NqQHUMUQw3/fA89v+ANkqiaEZZLE5auNXARLT14Fq85bB4vWLqb48cFckNGRUbjrrrvg+eefp3Oyf/8wVKsVyh9BBgiN5r333AtPPf0UdJQ74KSTTyIPe//wMHzgA++HOXPnwobbNsDWrVsIWAwPDxPomzVrFn2+f6Cf5OS5Z5+D9ceuJ0YK9x7fuWnTJjjmmHVw8cUXwY4dr8Hvf38XvPzyZli6dAkZZhzT2OgYrF+/HtasXQOPP/44vPTSS8QynHLKKXD++efT5xDgPP30M3D77RuoHwyCCjzf5513PqxduwZefvlluO++++DZZ5+FBQsW0Njw3Qg2li5dRu9HkILg4IYbboA9e/bA0WuPhkWLF8GKFSvgmGOOgQceeJDORLFYovVBEPTOd74Tli1b5liGmZRho4+jegQ7HtkKt11+EwMEDMmjw5MIEFwnHdLt0w4QjKRSzoPYUFM1gZY7m4GOgV7IdrgQIwGE73z1mqi8ex/d5uhOvmEQpJ2jaIRJAgSZctsAwZT96bCCi3MbzTTtAAHZCf9K4Rjr1k4fhFhNP3vZToW0BxCYQZF7A8y9CpJ3YOgmr1RTwgEyxjYZBAcQuH21Yx9eR4BgV8swDkYeJg0Q8J6Nvhwc9fZj4YgzjoJZS2YdegABAHbv2g3XXXc93HjjDXDCCSfCe97zbgIIS5cuhZtvvhl+9KMfkXI+44wzyHj89re/hc2bN8MnP/kpOO+8c+Gll16Ga6+9Bh599FH48Ic/DB/96Efh3nvvhUsvvZSU7ec+dwkM7tsHl112GbET+CzqSHmo/Kgjun/HEDzyy3tg673PQ8Zc1kR/9hiEBiw+fgUsOG05rDntaNWdcyatDS82nvmND22E//r2f5Gh+9CHPkRe9ve+9z1Yvnw5fObTn6Hw0q233gq/+93v6PPz5y8gA4qe+cc/9nF4YdML9Le3ve1tcN5551HuyW9+cxMsW7YU3v72t8PAwADcf//9ZHwxJ+Uv/uIv6B3XXXcd/e4db38H/MUn/gK2b98Ov/zlLyk0tWbNGjj22GOJbcLP1Ko1OPHEE2HpsqWwdes22LjxYejq6ob/+T//LwKcCGqvvvpqYgJQ5pDB+ulPf0re/ec//3kCpL/61XXwyCMbaZ4nn3wyjI2Nwf333Q+DQ4P0HUymxeegfO/evZsA0qpVq2Hu3Dk0jp/85Cdw/PHHEyjY+dpOuOXWW+Fd73oXHHfssS6cMVNbplmpsQpsfuAFuOsHG6Awwrl6xDoRAODGg+6yJlNaaxgCZuz9m3E5LO1CMvL/3nFMZRCaA4RGFqCjvw9ynQFA+O5Xr4lKu/dBrmZuSxQXQW4SkksH6f8lzs3mxTVKMjkIQjZIS8jQO9V9g01oRbdvlsZBIUAQb5mdyqkwCHyRE4cYXJIIMwjmsiYTZ+WcieDqKDS+toZeTKu7A4GnHSrOKQAETArhe7e85kVc0mk6VqpYI5fbBrH/KQEEI7SSxKlWwDIV0mraxh3bYRBEdMNqCiOsgffvElHN2k0VIEADCgNFWHfeibD8tCOhe173IdkDAWUZQwlXX3U1nP22s+HTn/k0eYLVag1uuOF6UqAf+/OPwXvf/14YGxmDX133K7jxhhvh/AvOJ+WPVOzll18Bt956CyleNDpoNDBxsa+3Dz79mc/AkiVL4IXnn4fVR66GufPm+ld5v9mBgu3FAVAbnIBHf3UfPHf7EwCmzDEECLVMA5afvAqOePtaWLx+OfXUN1m9M7sSJgaPnvSdd94J8+fNh7ec8hYypv/69X+FeqMOn/vc58iT3v7qq/D1r/8L7e0nP/lJ6O/rh2eefYYAHxpi9Or/8i8/D2eeeQY8/PDD8I1v/AeFj772ta/BnDlz4KabboIf/OAHcNppp5GMYHjgzjvuhO989ztkiD/xyU9CV2cXXH/9dfCzn/0M3v2ud8OHPvwhMuJXXHElPPTQg8RQIQBBIIEABsf95S9/mbx7ZLxuuuk38JGPfATOPvtsGB4egR9dey08+thj8KlPfRLOecc58Mtf/RJ+9tOfwdlvext89rOfgUKhQO9CUHLB+RfAn/3ZnxE4+8d//EfYunUrjfOst76VtgLBxS9+8XM46aST6B3IkOA8jzrqKALOlvWdCYCgQ9C4Z/UIdj3xKtz07esgO4zXPSNAYGeUkxR1iIF1P6lXk6MQBwgEFU1IPynEIHqWE8u5DwLmICiWOYlBwDw8vL9mAAGCCQUBQI0YhP/jB1F5zxABBGEQaO2Mkec8E2cMnPH0Oynqa5xNGajzniV+L5Se8ayFgrceewqDYI2guguheR8EHbTAphSY9e9nvoudI9oHkxQJIDD9kgwQZEOSJIvRjvuLcP4q9tNODoIFCAF1aROCHDjxQwwmEkrEQ3s5CMkhBt4gLzSibmtEAMeJSTw/ze7EynXCJlBahdp8EsMKxdRrCwZBDpGVS4J69iko7Nn+Apz8ntNh2SmroDyrfOgBBCNiv/71r+Gqq64ir/DTn/40xX+Rxr3+uuspxPDnf/7n8N73vZcMxg3X3wA///kv4MILLyDggP0Srrj8CrgFAcJHPgx/+id/SgoXPbDHHn0MOrs6iTJ+29veDmvWHAX5gorhzqxJPDhPF4CAlzW9NgSPXHcfvHTPc5Cpch+EJAbhiFPXwNHvOh4GVs5RPsFMWBvxtpz+xX1Fo7v55c3w2s7XKFcE6X+k7i+55BIywEj//8u//DP9Do3y4sWLSR4GB4fg8ssvI2OJeSnoheN3r7nmWjjxxBPgs5/7HHR3dRHz9P3v/wDe+tazyPBieGrDbbfDpZd+D846k3/X1dMF1/2KAcJFF10MH/zQB4nKv/aaa2HDhg3w8Y//BVxw4fnEDlx+2eXEUH3hC1+AVatWweWXXw6PP/Y4nPyWt8D8+fOoOgmZBpwLshhvf8fb4Fe//BX8/Oc/h7POOgs++5nPUo4Dyvm1115Ln8FwFxpZBgjbCFicecaZtGBPPvUkXHvtjyhshuAWgc4JJ5wACxcudDkIM7VdCiDgfzYmGrDl/k1w+1U3Q2EclTNeT2Ac1Nh1z0GIwYRYvTC2/V1wWZM9Lc4RY4CQbx8gZCIo9nRBsafbUAQR1DHJ/zv/4wdRad+QF2KwAIG8Rt9ctgcQxFoabx+pFXGoLXOgrroUMr4VQDDARcxYepljOwBBchBy6QBBjBwxCEpnYXtL/b9e5YVr9ESba2/MaiPEEAMIRk2Z+7x1VcD0AYSwe5fMTfZO2AsjCzGA4NgNW+ZIQCteAibtpv1ClSTKmqs3JOM6FmIw++GAaxwgFGaV4MR3nQpL3rISOuZ0MoCYKcVwcMxZ/C0RkOJEjx8VpwAEVLqowG0Vw3svJoBw4/U3ws9+/nMGCB/7GHmgV1yBDMKt5G39yZ/8CSnqnTt3wlNPPgUPPPgAxaRRuX72s5+FVatXmTtaXq8JT/N7Vax4aOse+MPND8Ome561fRDiACGCI884BlafdzTMWjXP6IQZFirjHGDy3jPPPAPXX389saCYIzB//nyi6/H/kUFYt349vGoYBExa/NKXvgRLli6hc4T7v3HjI+RdI52PRhPZBAQPF198MRx99NF0LH9782+JQTjrrDMZIPT2ktHHsBMabDTO3T3dJF9oxDFBEAFCrVolxgplCT+DOQdI9yMgYIDwRVi5cgU955mnn4GPffxjFJ7g1vNoC4DYDkxExOcKQPjMZz5Dpbco5/h8BML4fNR/CBC2bXuFAcKZZ9KzkMnAxN37778PnnjiCRgZGYVTTz0F3vf+91FOgza40yxNLqKcaVBSfW2kBlvv3wR3/fBWyI0jnmR9jlUMWBnObIG6jTeo7tNOGJs+7ZhJFYOKadAX5DPZ9gECgplMBIXuTij19XBuXoR9EHKQ+dZXrow6h0YhX+NGDuLT2Ti3IRacxyn0ezMGIQAI/Ep6tssLag0QTHDcxGyc4W0OEMS2mIXCntimcYVUSAgjwSGG9gECbxCaOTeXwNe3HnwofG11UkSAoJGUWMkw5GGT9MxcTaCUowCTZRACgCAlnRLKacIgMOuir9CWNWeAwOOR37EM8P+pcklv7DIf02/cSMxUAcJJ7z4NlpxyBDMIhzBA+P73v0+eEhpx9PrRYGDcGJkApGMx+RANAYYX/vu//xvOOedc+NQnP0nZ6VdcyQABwwsYZsA4MuYxYAwXjQ0q6gcfeBD+/OMfg4sues+hAxAsmwkQ1SLY/fwOeHrDo/Divc9BoZa3LKLOQcAQw8pT18BR5x8Nc49cxCGGg4A6Ue9gbP+73/0u5YhcdNFFtKdYhfIP//APlF9yyecugeOOOw5e2f4KfP3rXyej+sUvfJEAAleeZMiI33777bTfSO+jwcR/MHTEdHSd/nblFVfCqaedSgABkwQ1QMDfYdKfUPnvec974IMfRAahSh7+rbfcSiGGCy68wAGERx6FL/71F4nmv/rq78N9990L73vf++h7CGRIIzQaXFabyRAzgXKKRh/DZviZm35zEwFeHDcDhCz80z8xg4BjOvvst3KexsaNJL8UGnvhBRoTJjgieMYzMtM5NKLfUI2P7xuHLfc9D/f97C7IjmKvNscgTAUgCEiwIKfJ7cK4PpNiELIApZ4uyJP+aNA61RAg/MeXr4h69o+1AAgOpXi+ubqsyQ8x+ACBM32cB8fPaA0QdGgjbJTUVqtleqsGCOaSJtUUyAsx0ILTRZ1syAIGQQACzUUpGAcG/MoFDRLaBQicvmp+zB0IjvJXq2/CNvSbaQYILmHR5TgwGzK5EIMOO8TQug0z6PBIABBojeNljlS+ajqQ8WGJMwj5gSKsP+9EWHnGGuice+gyCKi8v/Wtb8HixUvgfe97L8yZPYeMAmZ4I0j4wAc+QI2SUPkiQLj+huutF4ZeJYYn7r77bkriQpCAFQxDg0Pw/g+8nxTu9dffAPfeew9RxJgw1rJmfdrdshl6oAp3RtUINj+yCTY/8Dy8/MALkK9S0/mEEEMEi09YAUeedwwsWbfcdOecYQbBeFW4V//+7/8Ojz32GHny55+PBngvsUe4TwgOjzv+eHhl2zb4xje+QSzBX/3VF2DZ8qVk/PGnVqvDf37zm8REIOOESYBY/YL/ILDECWMFAX4ff4dABBMg8XeY64IGG5knrIBAj/4Xv/hvuOCCC+CjH/0ITFQmKMSAORJowDEHAUMMyFAhc/GlL/01JbmirGFYA0O5H/nwR2Dt0UdTueaLm14kUHPscccSOECmBOeJDAICBJRnBA44bgS9OD/Mv8D8ivPPO5+6hWL+DebZ4Odx7MgoIGOBQOFTn/oU5SXMtPxaByjKACa+bntgEzx8/f0QDdf4umcTYsAGg+RETYJB4OaAcq+QMhOu/t7+clIAwVQxEHtQKpAzgU3Xatk8ZL75lauinqERyE0rgyDAWnuPjLZdUqLfvc9Fv7W55c9w1icbToEq6QChGYOQBBBckqK7Q0L1PDANe9yV1jwPVZ5qxiXUjr60yo24XYAQZxB4PQx5YRZHgys3Vu2xt7rN0TFCYYiBOZIgTdNcECIAgefVNAdBlSLSipkkR/NNQUB2Q9WfNc3UJkDgPZEfLCVCgIBVDKvPWgs983sOySoGnO+r218lL+m113ZSPTkmo6FSRyYAQwUIGN7+jndQhjoa/1df3U718Zh53tXVSR4peljoKaJ3hv+NmeyYnIZ7hhTtunXr4NxzzoFimTs1HhI/BnziXChW/PALsPOp7fDc3U8DjJtE5WCq2Adh0fHLYdW5a2HZsUdABi8AOxg/RulhzgAaZSwNxIQ73Guk0XHPkD049dTT4NFHH4GHHnqIQMH69ceSZ71i5Qry8F9+6WW46qqrYWRkmBL/RkdHyYhieSwyAfjv3bv3wNVXXQXPv/A8AQF8Bxrjxx9/gtiGCy44nww5VkNgFcyypUspxwWfj0YdcyRWr14NF1/8XnjllW3wu9/+jkol0fAjqMF+G3fceQf8/q7f03fwDpBSqQy9PT1w+hmnQyFfgJtuvgleevElWLhoIeU4YG7Ejb++kUopFy5YCOeedy4cf/wJcMvvfkctxXEOyBgg64XnAAHQkiWLyZhu2bIVjj12PQEWLOOc6R/eqggyUQYGt+2BoWd3wyO/eRCGXtlLSYrtAgRmz329JnaAK8G5W6NqzqPsoyQpSg4CJz/S0xJaO5PCzWWho68XMuUiXfCUK+ShggDh23/zw6hj72BQ5qiMnIQYpHeSMh3eZU0Sa/fuPjCD8gr+bHjZa+/rSu00CvC79enNbQoQZN288j3fG+ZqBb+KwQIEmoNM2EEX2fwkgCAMijWG4tkbT4VNbnAXgzAE0lksloNg9sEabFFIClzFuh7yKKcLINhwjK1icOBvcgBBcg3cHCgAoeJqliWyJaOcrNg6xOAfewQIhdllOPbCk2H5aauhc1bXwWCCZ1r3pD5/cN8geWuYmIZAAEMHWJ4mOR+ohPFvWBKGTALKBhoIVPxoJERmkToulcv0ueH9+2lvEChgrLtQLLxu85uRFwcA4eX7n4XtT2yFlx/aBNGEruhy7Cl2UlxxypGw6py1sGDt0oMHEMwCSGMsZA6wFwAyAK+8sh2GhgbpDo15c+fBa6+9Rh6gnE38zJy5cyix8Yc//CE1xfrEJ7g6Aen52267lXIRMLyEIKFQKMJrO3eQR4/PwO/j+duyZQs5Z7NnzSK5QUMs6H7hokXUyQ7DG/JeBDDYt2HP3j0kR/iMRYsWE0DA5Ngtm7cQmEBWY2CgH5YsWQq9vT00/h07dthwA1ZsoOxhroHU7yOYxeejnGOODMowzgcBBTZowlJezH/AAWP45IhVq6DHJN/NiCzph4rhbgDs27IH9jz5Kjx684MwunOE+vpSUBZzEGJVDL5dbDXOkFG3nze6E9/R7DZHgR64p3QUclnomT0LoJCnUFSmkIWJbO6NAxC47FMyGI1/a2pGGTm5g8qTM55z7C4GBazaAAhyMZGAHVGWLhVAmAFXTqhBgNsY7sgojAeP2YUipgIQyIs3QNKffRzsuHG3BxBk3JZJSLnN8UAAggfoJCQiqNfghJkBCA0ozOmE0z90Niw8cRng1c8Hyddrda5n7u9aQNRkdZhO0W88jqQwWUzQZm7Ir+uTBSBEETQmInjmjsdhy6Mvwc4nX4EsVYbFJYZaLZ91DKy5cD30LcMqhoMvVbifUqpNWyjd1NWV8k4nOT3xyCOPwHe+812Kz3/1q18lYzoxPg7XXHMNlbZi6IAu68rluPSb7lfBKTKw5+olm0XnuXy6yozRptHl9Ck3XtuK2QwQ34HPRcDKjdj4PdIKWmwtRXSpLtBVTlnnxOhIeQ5+Fjs1si7m8cuzD4oSkEHXAXZu2gHbHnoR/nDbowAjWBNgytgpSVF6GuhKN8fmtjob0wkQ6F35HHQjw1IsQAMBZj4L47h2//U/fhB1BlUMIhBM7ZsNnyKDYDdSGfjQKPH/q0uBCAWZvguqq6JncKYbIKjWxFIhwArUAYR2Ns3N15yUA2AQvKqA4OXacCcZ2VYMwsEGCPZ9TYCIm6LkFCDDEL+sKZ6D4C8OljkWZnXC6R8+GxacsAQKveWDohtayceM/93F32b8VW/6FyiAUNtfgQd+fQ/se2EP7Hl2B+QQIOA9DDRJV2WDAGHN2eth7QXroXvJrIPOIGjDbwW62Z6bv6Ex2rJ5MyWkPvfcc9R1EfNJkCnCpMSjjjyKylyxDwJprem+v6CNMXrzOfi4a/rEmQAO3uTYgC1PvASb7n4GXn7wBchPYDZc+zkIbQ/IMPdONlh3ToZBIGuby0L3rH6AQoHGDoUsjONzvvWVq6OuoeHJhxgQnQHH7zm+bK6O9ChvkjaHQM0sphcgEJxxgm0MsjAAaQl3EmKQOA42UiLUrCoEHEDgyoVU1CZYAHsoeDFaDPgIok4IMZhT4aorXK8GHwy53IvQ0Fr0HsT8BSDIWqcJ3LQwCDYcZvYhCCmZ5eGlOCgAIYLinA445f1nwcITl0Kxr+OPAyC0rVUOf9CxJxE0RmvwxK0b4dXHtsGuZ7ZD1tyCGgMIOQYIR523DnqXzn7jAIQ2DCpWQWBVCjIJSO3TPQednXTR0bp16ykfxequNp53WIJSVsCAIWyStHPTq/Di3c/A03f+wQAEZhAoxIBJiuQUJ5c5tr2+qQABVKMkl1Hm6V9dVol3Vgz0QQYZBLw5t5CFUbTw3/zK1VHP8CjkKjVbvkcGy1zj7CfHKWNMk8MmQ9JgKezvzFMMGcv0iavYtFCfirJnyktLrtD3pnLAhhOS3sAP5MVxCX76k1yy55I5ePDWfBrGEWkhNQbzn9YIK8rWzcZOhoxUFu9iqNdt8Z8FIWw9ecUst9ZstXTCJ5tg/rYfYuBx8LwN+jEPjfPLicmJaXtIbUJNmaOh8zwApUNCOsNT7SFXmIShI3/O+Fe6xMWumT9XG5ZSX8MchPLcbjjtQ2fBnPULodRbPmSTFNtWJIc/GBcsc0gb1Qa8eN+zsOWBTbD9sc1U9pixpbg+g7Du3BNg5duOIoDglcy90Y2qOe5Iv1eqFVIzmIei6X2jKg5LynSsQANgaNse2Prgi/DozQ9DY3+VKuoy2NY/h3pP8ssCG0m6lPWisohmRNrdUyCHRuoAACAASURBVPrbsxfuW6g3sceE/knS8WR3kEHAy5pKmKRYg2whB6NYIPC/vnJVNDAyxgBBGz+bJckNb2wWpIpDEUCg2lWJoyRc7amzLZMMhf27AAphA1y8y1YxeN4npWO6UKF5jg6JuDJFCSkS8iFjoWl5fLOl5NV4eCQGXFjjaygcWXWbAyGARW+r6+UqZhCRuzAVzjaGHJxxyen1Kls1wfumt5kSRAqHSNIftvPUoCo02HpDdcZsuF+IUC0L4mMXZmds7Ml13AzyRZLPG9dmxxBk0JESH4UHCgGC22zThCkFSCFA6FrQB2/9s3Og98jZUOwuvi7x4unQM4efMcMrgEemFsErf9gKz9/xBGx75GXIVPGdqFhR8BVAyEdw4jtPhWVvXUXy9aYCCDO8jIcfr/wulJsGwOjO/QQ6H7juXsiMNSBLDfZUj5cEXes7cfJM7cyJrQgcvFhZXcTOaMPoTavEjQ20doPtC4UY+vsoBwEBQq6YZ4Dwb//7VdHsYQQI2CvabbPzBjU0ljp/9uI4sc/Q6nLPeEoVg5haD82ofgQhOa1j7DgCqTCwdlnaNysLI7kD2pNWDSwtkBGGRDMSAhAkqcvZOL5/wibK2EZJ7mZJxhEMHOyPuRI5PDgEEMQbDrsNxp16lpfQi7f9uhWrohoT4Trg3tRNyGSmDq9tTy23ORpA0iqs4fbQdNg0v6A2SmYJNRuhQZUNHXl9EPwZMoPQA+d+6gLoXT0Xch3ZwwBhpoTgzf5cAxC2/2EbPHf747D90S2AjAIzCD5AqOUacPK7ToM1Fx4Hub4CA1w58m90BuHNvk9vlvGTIYsA6gBju/YTg3D/dfcCjDRsFYPYkljIVVP+bTlZYh0cQaod3xx2qTQdmawLSl2NudePtsl4m2PXQD8xCJikmC3kYTSbgcw/ffnyaP5IBfLVkEFQXrd5FDuaLtdAjFBqDkIbNdOSCyBJiklBCR03CeVEGxILECyjIaWkznjrEIP1vtFPMJc22efTioqnKlaaLLMLM5ibJRMBAl3s6RBXYh8ECero3UpSNGGcScXyXQax6c1gdJbOqTjQs+VlwquHCUDAeJpjkVqU66hcFf6kD0CT9t+WOVJ2tZ/96+d88OBw5UuzO+EUDDGsWwRdA52HAcKBCsEh+n3Kmq9GsOWxl6nr3RYsc6xKiCEOENafexKsesca6Fk84DfdOQwQDlEJmeS0ROU3AIZf3QevPrIZHr7xAagOVlyZI4YYsHOkCaGHyehJOs3XiwqVCutPv+KqELJcclkTMq9K51L4QsLN9hoATlJEgBAV85SkmCnkYBwZhL/9/LejFbUICsggaDhsJiqJFFyz7gMELocxtwwmJSkeIEAQwyRGMAQDhIB0dYQtpfNLR3iLTblO0MFRWIT4O5TVth0VfYXByyULlcQgyN9dfoB4wzzuAMelXHCkWRDBfZZhkfbFEpUwj5QbwZomVibKfogtQwOumkQZqoBvJYuX67jH+5yCPQC0dPouBmmG5eclTIVBKPSVYN27T4Jlb1kFPXN745dtTvLcH/74IbwCtQj2vbgXHrvxftj88CbINij9Os4gZOqw/OTVsOaCdTD3qMWHQwyHsEgc0NRQfdUiqA5NwMv3Pgd3//ROyFX5LgaXpIhuTJC0ncAgOLCgwtDGeY2TDP5FetI+WzLT+FlKFycABOyDQHY3n4MJ/PT//Zffjo6oAZSQVrO2ziTjmXur6ZrnWJljk7sYgpGHmet68ZsxCCFA0IDAlRMqL90DCKZS0hjxiG7SMhcLmSsvhUHA4SIdQ85phDEbwmAmq1fWQrJNQ1dB5w8Ef1N/Su+DoOM6gUNtR2KoeGW7ySCbCAMvt8S2+Hm6zNGulakZThN+vvHSVKSYYUmaAImV0GeTvs0xASDYdImE9XSCOKVGSZTg05WDNeceD0ecuQZ6F/RDVrreHfb0Dkj3HVJfNiC9MVGHfZt2wwO/+D28hlUMEbZaRoeJ9YD81KI6zDtyIRz7nhNg/rHLIVfC2y1VvtAhtTiHJzPlFSBWqgFj+8bgmQ1/gMeufxDyURZyolOpimGyAEFk0eTPaR+K0rlYx+rUMnfdc4sqBnw0dlLs74MshhhQpjE8gdL/d1/4brRsvAElvO4Ze+0jGLA1QHwRz1QBgj1auiVkwCrMCEAQv96eXVy4JgChYTLlKSEPV569e4/5d5MxciMMQDpAkOYenMKQ1kmxFUCQEkufcBCGwC1ta4DQUuBVkqqXwyhIF2WBFKKjsQiaJDIIzHvIj14lSU7kdzSz2FPrpIgr3ShEsPyMNbD2nOOgf9kcyBX5LrXDP4dXgFbAgF2U3YmROmz/w8vw4E/vhImdo5Br4N0FTs5lxfDGu/K8bjjholNh8QnLodSH1TGuec/hlT28AixbDBD2v7oPHrrufth674vEHcw8QPBvfGy3kyJBi2wWOgb6IFcqcP1OLgM1zGv7xy9eFs0fq0Cxxp4yHgIuwmA64oAAwjSFGHjNfdo5nUHQBlfo8NYAga7gtOBAMIDkIPC/HUWjD8I0AgQyYX5ZCgMV6RrpsMlMAISoETfWlkEQNqlNgBBeVhFWjfBMTCMuT6848EHfmUKrZVTutSzQlbxHnLEWFh23AnrndvtXdh/WZX/UK8CihXfyAoztmYBN9z0Dj9xwD+SQV62bTCudtW2qmKJylrop9q9ZAEccvwqypawDCYfZqT9qmTK1iyQp1eEqDL24E+775d2w+7ldbwiAENpM4XUFIJT7eyFfLtl8+wm0PP/2xcujgdEJAggR5hTgfQFvMICAE9BVDDo0oJM3JEmRpZQBD2OUNgACJY6wl2+7G1lXw5CN/OLgEBwAQIjlksYBAldQYIjBZxqmEmJodXrlVkjnYblKRE0CCYjBMAZV9AR9EFjwJEQj6++zDjGA4C2rxLpwuSd/FwM+GztNNDoAlh6/EhYctwLmH7kQemd1Q76AtHDCj46CHKii97GsE6d2nxt+Xw+3yTME1rfa5xn5e0B5Jr6j2bzanON0jZ1OebUOI6/th5FXhuCR3z4Iu599ldkDJFMTGAT0DBvZCDoX98Kq09bC3CPnQ//i2VDq7qSeILGc23YHq+m6pO+0WttW32/2zDR58ig/84Ck/fOjh80JwXbX4838uSiCiZFRGNo+CK88+iI8efvjUB/Ey5sAsirEILYmtXFRkFsn+jIMAdPvDYvFpJjTsyGD0BQgZDJAAKGzzBYwA5yk+L++eHnUiwChzuV8plGk2SJptewkw93z1zoHQWdjpmVq6hADzVUJbFIOgpUdTmb3CgD9KoYgB8E0dvKrGEwNqA0x4PPEg3cBBj+LvwVAUH0DLMOeFmKQKKetughPG+++7eIojZTMTYqcNCrXPbcOMSQlLIYZs7wfapdjiZ9ujMKo8PqESYrcSMtmzJrF0AmKLNBp6ykiOHmAQAKOwCVXh8553bDi5GMgO6sAC1cvhNkLZkO2mIUcIixdpmYPpNeIgQchlpcWnMebpD/t5wzjhStJbJz01yJSzvR+MAm/HK6RfhBq/xPBqAyHN56/yuyS9PSSMIrt8ZWChfzaWXOSTPlscKz4f6Vjqtkun9Dz++Tb6Wg43Q44aBdABXMKH530GAuezMDrlRrs3z0IYzvG4IX7noGXHnoGshNZyDS4Vt02LfPexYxWLVely5rmrV0CnYt6YeGqJVDGToT5DAEFLqM2Kt0OJoRvPuA3GWt+Mq03MSuExPKSKMnfLUBgRwKlTgyH/JvPmpuM8ZtiBl2i1dQTR8buVCHLMsN/FluVm+bOth64VdSecre6iG7rZT0XD+8GO+mtpbGMCfJ9MH9ll55CrRGMj4zB8M59sPv51+CpOx+D/Vv3QbZe4B2RCwKpR41UAybfxZDMmNOu83mkcG/a4VZVDDVs6mF2la6Xdk3zRNvgvxsIEPq6odDVxTo7k2GA8G9fuCzqwxBDHUML8hWn/rjxkJVEpVemBhBkShrNKJPjM9NGISeWOUqSWxuXNXHhmzNYrgJgqgAhODH2NPoJfnb7muYgyOVS5iAlaDcXYnD7Y8HQgQIEOmdOE3AHTQtErT2zAEBVWtg9TMpBIGEUgKAApm2WJe/gd6dFoyKY/F0M0q0Du5bV8w3omNcPy45bBfNWL4BSfwkKXQXo6u6CUkcZ0B6gdGB7XbziFDvNYaMQYhoMQ4IHplGvkdLHm+yw+QiWBdGteXynDeRLRe4sadAJ/os7TWIjnjqzLLksJY9K/Jv6WlHVLO+riDKtCF0EFAiDkXlcE/48Gw3KGjKfJ0BCeMMpEjEGZDzoUhwci1QgZWjOBJxNu3HcVyxhFcCD38PxF/K4JqzIrX4yddYoo2Qck8bdrsaeQYAgxhHHXh+vwK7NO6AyOAEvP/4SbHrgObpMp5gpKOSXDDNY1dYBOrMwa+UiWHL8chhYNgeyHQUodpehu7sL8vksAzY8S1m84jcDlcoEJULn5FZMXMNajTrdZbM5zm9vNDDiwfeP4Bbnc5Ar8OVJYpiZUDR6hvLGzJ5aWeW/03fUFFgsdZdWVxZNzzb5V7abLOep2cuatN6uYyteOrOmI6DJr8JzgXM0iNJqRdQpeEV1Lp+HXI6z5ClPqMFnG88Ejo/l0IVycQ4MRNRYNcrxUFC7QnYgnwuMsjg36IzU6jC0ex8M7dwPmcEqbLzlAdj70m5ipBBsEew09ozKwxEgkI5MbrU8MwABL65i+RJ4JbATAUKppxMKeOslNj/MZmEC1/2fP/+9aPZEbUYAQggGGETxIrcFEILPeVt7AADBjst4Crhe1M6XhpbOIPDYneJmoymf5yRISlBJcGma3eZotVLoZJiBHjyAIJURxtBZh1cxBG0CBA74C1pNAAiWDROAkHbXxWQBgjGMaPTRGEQ1qGcB6uUMrD5hDSxdsxxKPUWo1avQ0d8L2VKOlPnE6Ch0dnSS0sLrY/Hq2YmJKhk9VG6Vag3yqMzyOcru7envI6AwMjgEI/uHYc7s2dDV2clXLe8bpCtTl6xcAVDIQaNSg6G9e2F8fJxu00M5qVYq0N3bA8WeTsh35BlIYFtUBBw5voHOenMiV4TVeZ3qlSpUJypQGZ+ASq0Kxa4O6OnrhWqlCrVqHcqdJZLUoX2DkMOgYSMDu3fvgc6uMpQ6S1AoF6FYKtI1wXjlLgotKuqRkREaH64F0+wZUn71qAHFQoHGJjQn/k7OsQUI1hCxl4PnAzsOuvCfKZfOcRJwHR0TfKb5LAEj7DNDhhOvrEXjkYE6jhEi+j3OH8edz2IwlIGXKDy+fDAEVhF1S8R/6qMVGBsehd3P74Cn7nsCdr64A3KVHHW5w9oF7dkmmRICfgg8M3WoZGvQtbgP1rxlHfTO64dGPgOFUh7KHZ2QL+VpzAgiy+UyjIwMQ6GQh3wOk8AYcI6PTxAwRtCZbUR0JXextwcq42MwsncQxmpVmDdvHhRyORgfHYO9e/ZA10AfzF20AKJaA8ZHRmHXjh1QLpWho6MMlWoVMI2of84AFDvLBAK1p0l7IJ3xiUBzMkZr3ogIHI9PTMD42BjJQ39/P+TzORgbGycZQflFL3libAxKxTLsGxqE/UP7Yda8WVAsFaAD557LeVtQqVRgdGyMvosyhz/4rmq1aq4dz/GeY2a/3CKJVw3TpUPMoQqAwQUjgIJ1/gjECFmIhwyQzbu8Jlxb6pti9FijjsC2QfPBueFz8Hc8Hn4m7hFLkOn0athaZ8uceBFLWWtQ34yJoVHYv2sQXn7sZXjunsehvr8KhahonQHX9ZfB94wBBCP+tD65HNQ1g4AwVNkszSAgGsx3dUARAYLRBeO4BP/4+e9Gcyfqf0QAAZWhoGtGq20BBJ2Tb77PCywnLoDrWrscUBWDHBBxs8mUWIVLYzB8MjsaLPCJZY4x5GLOsXLfXdiCJ8CIU7Mcwm0rkJfAILQDEHiobt0ShgfoottGSRL6IOStaO+YJvc9clIAmYgUeLmvBH2zugkA5Hu6oJptsNGvVKBRrUGxXCIvB4HC0NAQ9PX1Gk86A8ViAcarFciUS1Ds7CClNY73mNTqUC4U6fpcNHYTExXaHwQR+PmoWoPK2DhE2EETS2qxmyY0oNTdAVAuQLmrTICBmIkoQ4q0UCzC8P79ZGAHBvqgWq0ZjytP40FQggAB1SjkAHLlIpR7u6m9KhoK9OR6OrtgbGg/GRao5KFaq8KcBXOg2FmAiXqFPDpUjBMT41DIF6Czq4uMFvXqN+AclT2CHmRU0GPE56MSrUxUyJD09vVBjoADAqk61CpsXBDsoGcs4adiuQz5Al4Eg4CB2Tw08pXxCj0PlfXw0H6S33wuT2AK/92H/eEzGRgeGYbxsXECMHiHQKlUgr6+PhgeRcNbpHVF44PKP5PN0bMZgDRo3aFWg4nhCdj36h7YtX0XDG7eA42hCuTrGchBHiK82lY1molTWnyuCJAYvh4rvhAoZMp56J03Czp6O6G7t5tYgigb0TgHBwehjKAQFXA+D8PDw1AoFqBcKtK6IijAuefzGSiVS5AtFcj4VsfGIYM16dhQp1anfcY1KXV2QbGjTMCjMVGFsWEEdHwAcM8zxTyUerqg3FEmcDU6OkYyiexYb3c37N23j2SvWGYZQ2YD96mY5zVHIEP5XlEG8sU89PT0QD6PXSOBDHpXFxuQfTt3EThtVOtUIjdv8XwCkWiAUUZwbjiskgHE+0dG+GrnTAaKpRJMVCdo3qVSmfYXwScu68jwCO0dnjsxZij7tXoN9u8fIZnAZ9Twu8UiFIool6yL8MwiGCPDH7Ec4XojQEEZwzHhGErlMnR3dcPYOAKdcRgbHycnAMc9MDBAa4mXW9E5jRoE/OmYZbPEohGQMXMdG5mA0X0jJFc7N++AsW0jUKwAFDIIXlUdV9QwTCE35Tv4AIHPHElwAoNAAKGzDIW+Hsg00FkwIYZ/UgCB72JQ9xtQrOMAQgwSvvUMUHMGQYwfHUYjUBxnDekdQ1G3FWII4z2mhNEcLFLa1AdBaAm5aYvXQ9NeRksY6+ksUywma//EtIB5EguduQfdxd9dSMfrd22eMV0MQsyOJvyCY5iaaWU2YbIhBkqsJK6bkbnu5iVr6K4jiQ+Etsag3RhAMMbLslFszRKnJ6QMGl7c1XqmBhlU6mgO0KgZQqiISjBCKrRu3ssgjEICivmi1qWUkMYgEw8TnhtmlLGFqYwDoaNLTqLhsSbjd6PCQEWEVUNZTowjdj5iTxLfjYADn4KAQWQGDzka2omxCWIpKMyAnhI6bcU85PIFMkb4HFRmDTTko2OQaxQJ+HT0dkClPg5Y00+hAgIlLH/FYokUJa0BgcMM5LLcz53oULzBNZdjGa7XSWmjQia8nGGPDD1Q9OgQeKCCxh8cO46ZwjPknbAyJypcvEOk1zG0k0O2g0G3sBP4XZwPGjD8GxoQHDI+b6KCSp9NNwIepqvRu2R2gS6roftiMlR6Fo1zG9xslIEc7gXJNrMivPzmLMbkiYE5QwQ5r1lKPKN9zEbQyPCc6L1RnY1/o04GRS62o3ACyQHrFf6nQTkxRLujXBgVjMAL9wNfQP60yJm5dC4X4Xc4XmzPLP4N9wllCqt56nVab9y3cqkEI6OjHE7K5WitcQ+zmSwZW9w/Anfm0KAcIYjA/cZ5VRHImOuAUa4IuFDYpAi5Yg6qjRoxAwQmKng5Ee8Rzg2NNIVD8EzleWyWzQAG3zh/BAMEIopFXEUGSPRMZN3okgyaC7Ft2QyFc3AMtO8SkjZhGvwOGnqJmeJaFAu8JzgnlG0E09Vqhd6Jz+D7C1AW+V1oyHENcC6yjnQeGuwaknxVI8hWM5BB1dHIQJ7AJu8D6w4OBIq+I4Cgoj3iZNJnTB5QLMRgGY3mtwqz3uQXx5IUMdCRdHskjhH3GgFCbzefiVwGxvFR//z570ZzJupQqnEOghV/mZzpg8CeXngXA+kCk8/Dx0a3LLYURlsAwSlWniMrEbptjBCXyvqR2CsJsk9fizGnj9h4lnUClbHXxj1igCDNK8RAajpdbh5MCQNwvNY1VZL1krdI4l8cICjDRv/prpzWGIOn7Ey3y6Non0EIYx8CXeTRomi1pbXvEZA2iRADP0/u6hCQxvNNZAsUTjJHywk6xT0D2l0rdBWOSkIK+sAJ2CFppuFw0hUqVVQe6lQrg59kPMyAg3s4vNCTQltyeEm2DZgIYK81Uvqgu7UwaMZjXfAJ0oGSP0lKGENmkh9ALzEtwoVl0neFSL6BMXwWEBp+R9tMK/4i6vasWD1sjZU79uGes6EVAODvl7v8i+WEQx8EwIL8GN45VkBi3CnvhZZDMnjdmjAI0PBXJdDR/uvvBg3DGL3FHRV6lTnDRpZQD0gbXRF0KUuWsUrlj+R5sMzJTvM4iSLXeswkA7PQ4iRNQqVZAy88T+CLwZll6axCti+SxTG6Up1LA+r5iCi7YMbJRo4TiK3Dk3D3mpsXP8XhZ+ls63ZfaUIDwpwuRGMuZ9PgQdfIzjzCgTu3ljpUwHLtKsK0JCBqRKBEIbXgDhvRgZ5etOyAAW5ePwwjK4ZZZefIKTd8DwND5XgZVeQAQjxPgJniIIk6VCBmkATuYyGG2Elz4kchhjIUurvZjiNAwGTYr//VpdGs8aoPEKzyiKMVZaLI42kXICQnXRia2EIPdUqMFSFvKDAEpARtb4A0gMC/17BDGzu9VCToMYCQDFhoiwSteuttT5+Ia/BXPmQ+QNAjlMGacWsPxuZbyDvCEIM655MOMZi2WLFOmU6xOtClAVDrEENzgJAk2f6aywKmMQiJcpHGJChmxB14DbgYiKJ3oBWCNmI6f0azF/bgmu2UO961RHi4Ujp6pgBn/R5ZA5/FcqqUPxv2zsD8NlSo5vekoIxyEUBv2JnQSCfNUcbgrYvRweIQyHOSGCg7BxqOhKjSAAKjRwatrH/wHfjf5IkrdstXd1pe7RvtR5LAiK+TGCByzN5qbqfWDTh3OUd2VbwwGQMfBSZFYSsWVIf/kuYghegBbjPjUlVGKa3ZaZUNaAovuUtfsyTm0OmiJP0t4A2dN5HvFHsVvFaAbuLslf5072cdgCmcsraq5bt1OMi0GW/QPYbZOwmV+nkZzkgws4Uf5BsQ3Y+Ve7qN0deL3ufo++69dBY4O9FbHwaiwhY4WbH6Qt/aa+Sd/6bXzdMosYXEOSd1UvTGq57NOQghQGhgH4TLov7RSgAQODuWqX1ZECmhsalTLQFC0mJqlCihAzd52n63CZSkwt8gSlL9tRlAkAOi3VStcJKUYhqDQMpeBQkkrd8hQonjO+Hhw+QflUQGodn5oEmIIySNkhyWd2DHoH51myN+NSkHIXwdK3MfIPgskcoQUAwCromsMc00JQehGUBIGovQvFZBG2XQLMTgex1GVnlw/iusPAu4CsFOc4BAWxEcdLtFmkEgT8LtfVNgnDBGqiTABaXjp4AA/gIzy8n7UF6EkTV3Klny/GvFFUAQc6YAggY7aSKpz48+X1Z5mrGGAMF+1shJM4BgQVAKQCDPLincqJQ2aRA5frrjp1Fk1o9LUMKcM2Gtjb8Uwt7ZpGSr3QKAwExi4r6Lyxg4PDHQY+QpBhCM4+aYtKTGagYcGAZAAAJJUgIgtec4IbSoFyANtLKx8wFCDIwl0oVGts3knX+tHSWnZyhEowy3WsrgnBsjan0NrYeFcQm+QqAOgaippggBgjHoOl/KgX9d+O/OJZ1HfYYdXcAOpum54zmtCfcZaRtqZZt+aUpN0w6sAAR1WZPoK6O8PeCSChCkDwKGGCz9RhQZx81IMJj3sBhGfHPNIDBlwnRgGtoM5+LR5J6v7z5JSNjQPr4HI0YzziDo92iftBmDIJSZh4QtQhcK0+mC0PuIO67TABBE8XmdFH1UL0ygNIVqlqQo66LHnggQQiVsSqlYebafpJgEEDwZsD0QPPXgWDTjiTUFCAkGoz0vs32AkGT0tHkIGQSJVSedXc/TDoQmDUywOhCFY2hwS2myNQy/2w5AkMs8wu+m6pzQqFIpnHQgdR5/uP5inKxtpV/EGYRmAEGo32Z769ZWXCN3VsRZaAcgJNaYCwUcAH/W1cowkA5MZhD4s1z6KEY1ca1jAMH0vTBy4ABC+mq8ngxCEkAQm5E0X08f2b4ILCMCYMQGxHVY6CK4/08GXgkjMNcLkFNFeTmuOoc/be7wYUE2vxGiwnW55fcFej8EZVjySNUl/l0MSXbKs2MKgKedT9/ucR4O5pUIgyFr6bGfMqNEBgEg882/vjLqGh6FAjVKkiYhSR6QLIxmEFg5aEotMV7jKXFXXy3fcxvpbylhQRNikE1zk2sFEPg9sj/sAZmQRkwxi2fGsSJ7pbVZDwZ/gnj533FlHm6br7QFfGESDG1amz9MscplTQkMAo3F7I2KAUoiWJKQ6fFbJCy0N0uRl6shipvBorpW2nwujUEwNs2mTtDa2vNruqzQADVFblv9mOOW0ChJ5Rt4no3y8H1PU1IHferaBzvIIKCXgkmMwpy5KheJB3txVEvyUAaDaTBiVZgXqhA6iBLUTJKi875N+aKX46MMrsfkmXWz6xhnq1AhSLJVXMyMh0WKjM954homgJd4aEZ6oRiOTc6XyhWR96fphWQD6e+TNnZaQ4TP9ACCI+BMkmw8T0PnVkhSZKKzm2jV2BgI+DELyeemDYAQxrm9VyCVbQCgc9BcCCAJFnCsnZ8i5xX/14UYnD40u25f6Rw1k3Uv/qAVZVUOqYw2O4QcluF3ulwvPR9PZycCQ5fnYNRPLFcsDMukgXaai2Ga4kBFZN/fUJY2znfDs9NWWEbcZWFuyUaI/XCNy3gMBjqQE82JlS7p2IXxPV2sq+3F/tjQlQK+abKJia34HkyiFP0RyKZ9Hz4jAAiYpFhBkfrOl78flYZGII93QFsS32XuO0MYAAREQsZ7YPYtnqSYrBycggtjtWFiHwmLAQmTBwj8dmcauAxgEQAAIABJREFUUgAC1ZWbpjYmmQSPA+dWaOhijLSdlDuwju5yHca04rXjoOxizvaW3/mI0z/64jVqgCDeqRgxXnr+HgMgVhQMEOKxNHvmjSYMAYKseehpuTic6RSnDnrTEINOFPXBtcRPYuGYUObbzUHQjBStv1OBckR53RMTLhkgYJzTKVsXjhCmxaaYm2cnKetUucfeDEkAwUhDLLyjgBrJGGUhu9XRxoMtg2N3/GvF1YraRKc4sNAsWpLeccBJVtfoAFt1IDlFYSdOFdZRD3YKPFhFkzPB72NvToxdOkBwt6/6Oksxo8b6JDMmJkkRMXBalzq9KAkbb8ebAhDEqAl41f/vrfcUAEK4X3EGgfUuG3F/79MAQng3ixhAfYayWS7F9BJbSUaTwyyWJTIDDr1Z/Wxt4DVAiHnAmtkSttnsdZIcc0KCOkjkSTL7PSmAIEwPVq5QAq0DCM5BEdQkYByTB+MMgta7DHKMhbC5E5JAymOVdaKVDlGtyZXI5bkJGjMgvBKJjZnwD6YPQqG7i9UIVq2gJrz0b66Jivv2Qw7rWScBEJxRTa9iSFWU0kfAxOq0GY7H7plFmDpA4FEwg+B7xqJUUwGCTahSSZGizCWRUxogGnnTHkVI5eMofAYh1DJxrRMyCMkAgWdoY5YmI3uqAEGEjpSMZ6Qmn6QoSjDJg+SljKGG2JlOBQgGlFo5k302/3aUtTOcWgH5/TAMg0BNWKxvHZt/qOBeN4AgcyfNbNbwAAFC6h6ZBZ4KQLB5NImhIAMkTF8Lu/HTBhBcFYRKpkqgkPnNkoPQHCCIptXCZpwnOSuqO16SDrTGzljVuAyxoaL1JhrOJXZqQ5Js/IwhiCUpTgEgBBjSgQtnKYRBoP4HNF7JyRLD5cKHSfq3KUBwi+dyqtSZT3RuhNVUjkniOqmEQz4/UwcITsbxKa7ygucWBwg6BKXPXGw+HjshAMHpTMeYBTrUABcECBxicBkLmt0KGYRCdyc1S6JKG2wQh3WNV3ztx1F+zyBkJqq2kUJopO1EGYsw/rRe98wBBDG2uBCTAQjholsBORCAYBWc81QcejPI3CT6CI8eAoR4FYOppbfUkYJKVjkocGIZjaCKwXgElkFokqQYC40E4MkzoAGokhBDO9c98wVThiQQjyJGLwqKd1S32zv3t1Y5CFoBeNSjdWtYwYYHkMMCfOCQPWA5C0IMtoI57hUnK2s3bt/g8ttbMgiBNySAJGQQHFDRoQKBwi5J0X1fKWpLR8dDDFZh29icKtAKwaJpryyldC5kqClpZ7DisjfzAEHkuXUOQkIVgxEslnuj54IEVGaWDH1v2lALM6rlUsuCl0As71AfZrnUgN+wQ9TzIIlnjZvARAZB93pIKg9PaESWNgf5vcyFHRnXGEjmy3lqEoJKcNBSUI4GDqhPfeZV4v/O8ZPH+Do3tGTiJHK5o/sxHT8nyyBI+37p1qjbGOsQHYmPA/FJOQhalySBBgNhTT5g8xCDMD/MIDCL7GRUhdl1SDabhWJPF+S6uNMrylldAEJhzyAAdn8T/lKzL5bCMCg5ESDgAeGkC90HwQLAgO4Vz615iEHqZiefpEgTTMo4jyk4pm3bYhACxR0KpEdvJySUJFYx2OQmp7zjIq3jcxpASFWJ9nY5xoU/LUupzASSUHhTFZSUpKjrea0HoWgtqwSTqTGNhDkxVlAL/0crgJBMGRsUS7LQCiC4zG8LEEz5uEbZNvsmlgGPnwooS9vt0t9bbpIT1longwqfvZF8Gj8/gpeWDRgrAWYUpPGXDxDkDLMC0BeXJQHDNKOqQZzLddEgeWoAwfcmZU3DEEMyUOMcArMaAeUq+sDBJxVmUnkkWex+56HaAEBZi2J+b0KYdoetfklOUpT5tQYI0lbHZUPZ27gU0E2xrfTrAwIIZi1jgC6BBUoGCCILKqzLg0rtQ6PDCbRPKgTaEiC0DFK6lRIWzIYMbW7a1HIQSF+lAATHYE4XQPDZiHDNeN0ETGIOwiQAQi4LpZ5uyCKDQHuFTeWykLnyaz+KBCBk+e45Uh620UcqQJCKBYPGCCAwigyTPHwKLS0HQU63GQDpMJO92waDoKn98OCEtLAvgAog0FxRIRk9SyPg8kr7S4t6YihK0Wv8N3fAJLsj7IPgU9/uAf4M4hSkvnjKvCehzLFppnQKQOD7BwNuUQ9HgRpr2EXJBofam4VW2gGAcoLuDK2rR28NEHQ5a0xpSjyvKYMgAAHLaTHEoCsFTD6OUkLxg+kDBK6Vbx53t7JB64nfD6nJMEnRZf3HvHy5Q8DkonA8lZUJGy+/sojluTVA8NiYJDbJYxDSqxjEYPlnQgFf1TrbDM0AXQPsjNdscs+sNxaGRELKVU6o/lxozO37TKMsYQv40PM58IyVRBiMjiCjFyTuJYVq+Hf8JfQgJUnR59CMbg5CZS5mzuAvrg/iUGFKACEhMVU/2c6LciQcLY/r42SFE3b1+sVHp34TJBbLX3jNuUEWSXCO84Pcfjk3JlyPQDN7dQUeQNB7OcUkxYMLEPzZ+ywIr5MOj2EVA975wfBEWK5kBiGiNvS9kO0o8XMQIGD/ziu/dm1U2D0EUKmYTop8GpMBgk7MO0QAgkG1UgPrvCpRYA4gePRVcJg0YxEPMTg1EOukqGPwJmQVHiihHO1poSxjyZo3ViAACOhB2kY5TU+oUUqC7qcCECRe6iU+ula5zjA0ZxCMKlCCbrxhU/nhyrvixjNtiqQQTLvwkC1xYIhBLlUqWICgS8skzCOANb5DmkE4+ADBgUQ/nvrGAgitQgze31UypWE8sWOySrLzWYA0EELGxZQVismXz/qMBbKf2ALYrKUFCL43G0R7Y0214iEdfb6E3ZMOh05q9HN91kqMgmOH3qgAwcx0mgECK8XJAIRm6q4pQDA6fTJVDJMBCLRvKWWOnumPMZR6Rg7+JAMEVxGGrcfpFlrxPE11imM27F8gymWgPNAL2bIDCDUECJf/zTVRYe8gZLF3tonLSKEfT0i1XuPjY0fLMSfjPRkGQdOictjslKznaGLv5OIIXWcDHLYFBHnvQR8E+0xaRKFdE0RCNZ1I+qBuZEHxM9O/wWMbqH+/q4mNe27BeyUpRUFYRtbMzODTpAUuPyv0H5L8CVJxLuhmtsDd6+1iW1JRQ/NJoAPbwAmmfavsc6gOeSx2x+xwHeXq3uF71eKNaUXugIN8S33HunrIIGC5DifRJtH8redlZIvAmBm0WX/3POznzlfOGu7KRO58ujeJ1uNnar/FlX1p2dOyxXKhv2cyoAMaNjSqdqUUQNVMFf+d6VIKnRtPLP49xxIlGW4nmtIwzeW9uN1yl2YlHkYde03dpDSZl7VBWWb1yT354zKZRE/7YStx93kQJAWKxeIQhAEcph+++6Qv0TpgRH9pEnrUMxMGgSNMXJ0hXnfsOXqMSv+yLjZyY/VmfGF5uVTlh4298Ih4/ubMNknmi8mF5BjYsmopA9ZlyunnvvU5dZ8wroRhkbGcFh0eqf7y1aHMqZ3nNw0xmPl5jJFmDgMWkbfGhXqZleNz5dlBsSPmUNHfDDOl2aaYA6NllIVEEv7McdN5FLwKes/yxLows88bHzDWZsEo1J/LQEd/H2Q7yuajyCBkIXPpV74flQaHIU+dCo0AWY5dt1r2D7IYbpZTzkHwdGSz3ZISE++wW17flqCgcdYx25hyTplwO4ISE0WTAGjnYyiZdrLs097nBM1spCmlcX0Q4gDBy22xtLw2PuzNsmIyVLY1NGxk8MdrWBXEZJuvjwhdvH0vf8/NxT5HKSu7R0nYIgAU3jgSlBhrMjZ2Xt24KDWVa9J8Trhi5nCIwlVrIgaD4ukWiARx6pT4Kb/Xlj3Y/03KJdHrxVAlGSDouaQCBPUhlUZoVZgkjEm5lHyc9sfIus1eCWP2NCWjCxQ7JMrVzJhnQGxjEIYL2bVWBzKJOZPQCz7bhEs0QAgdkZavEHarydjkmbE1l+/SRVD+j38ylVYJ3yd60p4BztmyaymybORTjLyTGfPFlKqfkN2U73tNf3RpXxvVQ6lrqvQ3M3QzAxCswURJUzpA3slddtN2oMle4J+8Mkf8hbnQS+c/tJJj2VO9UEnrqu2U6iMjexbz6Js6d96qJGyRa69Ol1qZhkzexYCxJYsgymagY1Yf5Molk2YQQS2Tg8yl/9tVUX5wGArGo+LXuyfw4J1KcIrPJKLIxSgi7IGuTBSyJMPunxaLhuSyJrkDPH48kyxRE3URU0aM+Lhch+7f08fWY0yaKyHzPS/WLnXh5ppNaoHrmmSkMQjs0LiLZFzyqAgHjsTcw+ypmQAgyD3pam9aKVILAEzSKestvcZMxTuULDEtiXQlH1iNrJ2WbXK4rYHyr3uWdB9rIAKE7xlX+z+anXIenPd2ypQ2d83b9tPJRjK+hu17TeytqmYspDAYvGh6Wnu4+vTxyjsP2M+/MPJhqjKMM+MYEaIYFSiVsyD7S183e20BG4dV2G4Z1k6vq6n517iruV4NQXGSbpFJ8rnBfcG1kfiqZX3oq60NRGuZN4bahKOSQZmiK9UrnWSZt9BCyLnXqsQxnl6ZowxOgV37eMNsmNGZfyXou4BNEOeNzJ50BbTGzMlIu+uSLO8sieFczLVnym4nORrxPXPOlCTQGrtjBEuqGJwD0ow+bjGzJMMuAMGegTbkKnyO/UqwR9rmKKZKWDfOEJDEer9KztNntjcP/zYEhd6s8X4hvJqayhzlwi4coAOm7vN4EylAx0Af5DrLNn+EQgxX/801UbRrH+TMQ3iOTuHRoSSF4y867huVsNhs70CxNENiQc9pZ/bCCziYqsF/4u0v/UViDNNqUzkejc0i/IV3gu5YiiRFFhc8F3bgK2Ntkoi+Lc94i7Eyx1i6kQYA7l0Ue7fdtNTYhTnSjZIsg4AJKnqe5uKQllrBJLcZoY6VbNkeFlKxogBCU7rSJe45hYfzlXbezBZYfWn2E9d3MlUMmmVylL4zbLSOZHB4PE4/p1TL2NwMBY1jchYCBDePJJrWO9xtJCnqMervirT4MsuAl0kCKTtTN9j5FJWhLWVHpMW6Oke67rzdMkf1Dnc+ZI2MkrL3gLjmYvqzQt+yGHD2Cd1REeiVNIZFvheKuz8e/6+S69OUcDMhgsRjRCEdZDwOtIpBKHTDWFgxjZ/hZiEoWmmPyZA9YBmRtUxjY9JkV89ddLNYDR8guPf4nn4CQJDmVCoEY13VJmWOrXV+3JDSvLyLl3D07tpsnX8nc42H4TifQM+LI/ROp6TtjXd/RZhvQAm7yXaAnyc2Uth9fp+nA8wQGCBwkqLTuX7SLT8RKxYAyv293AeBVEcEBBB+9LWfRPXdewHwHnf8sJRLGdqUBnUoAQQytDMAEAyoclEBfTgk4dFVMfAuePvmzl14fmwzJl9wjLPid1L0AIIf9mmJn1gCaFxGFrk7mNaYCiCIRynsQJpSNprInCU9OT5gfGDNgkiXMAoJ8OGeFEDgQXiGxLsd73UCCKESdmsqSia9ikEEw2cVVFmh9fZFX4nXLWur1jww3rpFr84TscLYAiA4hilhPDEnwc2VwJtqaq6ZKstUmJyoqQCEWDjSTKgpQMAyR9M2OEgp4fBvIipwv+Rjkt5qWd7dusxxugGCWXd1xsShSmKtUo1iggJpBhCQkaWv8MvU6r25AALrJ5+xIE0cAgSaqwNeaeJyMAACjoIT4jFvQzxJx1TKjjiAEEGxrweK3V0BQPg/fxrVd+2GqIoAQQizQHG3AxCswx00D24ST4nTxM0ZBL3giRRsYBjiSsJXxuHziMa0XrCdUHyfgw5+Dp1pwW8OEFjo2ixztKdMeV+K7vVaLascBFtK1R4ycGglASC49XbIJul3LXSo92dOitUAQWEk0WmRH2LQSYo0khR3T6h81on8MMPizjiDELITScApZDealTla9WrkQBhDXv/QS+P/5/4Esp5hMpO1lgHr5sssG3GfOdEGhcrQLIA8AIAQljnaBGQed7sAIQ0UGLRojqnOq5Jf8bnNGIBAMw5ZEOn10YaAk5zpXvpCXxtZnQ6A0Iw5cWsWNCmScLAkOkoopEl/giSdG9Ob3m2OrsyR70SQ8tyDAxDaWZc0BoHu/QnuYkj25RnuuAR9kSMX4pU1Cu0U/n6qAIH1ndG/GpxIWpGAMLJj2AfBAQQJNyZ3UkQGIYJCTxeUenuSAMIeAxAE5/kAwVInhnaW8LgXYmBIZeqQfA/d6yGgY20x+tYHCPg8fVlTmqL1FagoP2fvlNkx0NzF90UDMu2sAALNNU08krSEhcrmj5ylbAXFeEtTKnOkNXOAhWJWMwUQBGyavRbPzsX+zJoI1SqZ8h42Mg/x6Gy3Em5R3O0fsV4GFuwhQOD7K8IyRz4w8QtzjLbn19hCmRkACNarsGjGvDJutO3yKBDLayqNj5IZhLikSdmm0IrJAMFWJJEMJl9zG392c3pUToNjQ7hOnan/ZIBAOSNe7JSf4jEIUwUIHqErybspFlzOYmr4oz2A0JJGYOFToUYWQs2Q6F4xSW6IXWepGLLb4kIM7RhC3htHQXOHPXYyxOeYDgbBv+457INgDqG3LVpZmGNqQwxOjgSaorwl3WFDT2nD+fH1sJCVDjTzIzA05ABCCDYTQwymkyLNkO5iwGf7ORcOxCsrRH1WknIB2JlJCzGwvhOlpuxNGPZqAyCIaTMdEijEgK2WCSDQnRLASYo/+epPosquPQBU3qUBgtRWm5ue5aBLnrwcapWDQKooqVFSCovQDoMQdp6T7/BytzDgKmNU8ipoIyVGaBOvTJkjbQAaIhv9isWptZz7QhMChCQGwdE+Ek+yVixFr/EsxYiIcZ45gOBTvy6TPx7ndn+jfBQDsGQavqeZNrlwzcLP8Rq2CjEk7Yk+4LGLT+hyFXOQzUkhL5VyXbBRkrphzYu7G6lTiZuspFT+idX40ktfgLMYCv5AuwxCnNg2xscqBV/OZC10jwcxCk1ELPandAOkgYD0jnAAwZ1Lb1eSX23vk3AMtC9nvFZpDIKdq3TfbM9e2CNHc1TKVUrW3N6Yj1oja5Rzy4Vsrgtaft1+wJz7KQKEUBf7AEEnAybBlOQ8inDsdFYUgyBnwX0uWT7bWwO5BMkABDybsVhP4IyyxASPj18cFctBwAozc9Y1qNJOiZxb9wZcQwYaFiB4QFRK5N0auAq0FPazGUCwzK5hn2WeTQEC51ohy8y6SnKv/HWLMhnId5ah1NdDoBIBWQ17w/zsqz+Jxi1A8HNymYpJBghUOEYKVRrKMOo4qAChVZljKkBwtLYYAzJwHkAQMVAsQIBWmwEEU+mqjjo/X+JCDiDojUoGPAcdIKQYSKf8tVfC51F7SNoANvd0WgEEfFJ6iCFU5N4B1p4iYYGAQVBJUdYI2UZJyQBBmDMvXm7ApG2YonST3U1iY1hJaMqxPQYhHh7gxOEkBsGaTNN7Q8tWWtlqmu1OUrx6HeX+Cmn6o9k/v8+9Ttzy3jYjACHunSbOUDFfsieiCw59gGCSWL3QQtyQx7zmlByEmQUIrFuIQaBSfI0C08BHXP5ieihMUpw2gGCkTViJIAz4+gAEQ+43AQi4yLmuMhR7uinRFkskiUH4+Vd/HI3t2msYBEP56tij6r7E6kG6L00NIOjYcBqD4FFCqopBH3RGdmQSHGb06EP+kw3fSxKhUa7y1XSAYLyXIB7J3/PzLISd8BVREoMgSYohohVlnIzk+Z1iTCVpVGfmG85DyiMncRdDkvJM8qAdW+MMgYQ5+BkBIm2aCu4MWevUrxkECNqYk5xJJ8UUgKApPqUHvFik3kLvvw8EIBDCsFs1WYDANGKawZ9BgCBZtGnvbhsgGA4kqGKwUuQxCGpTLTALQINZijiDEIQZzQtEH/Epc43TkleOtaQv11P1omeKQXgzAQQG1VMDCCLzSt/aYxCEGKYAEOy5N+pPcpyc4ZkOBkGd/SkzCJMDCPVGDfL5AgOEn371x9FE2wDh/yfvPbjsuK4z0a/q5s4RQKMbQCMQiQhEjgRAACTBCEqkSOVsyZJlv3nPlv1+xZuZZY/1xhIlUbIoMYkEMwKRc845NgA2Uud4Q1W9tfc5p+pU3brdDZKyZ9brtSQC6HurTtz7299OetCSVgdB9k0YCoMwGEAIKpqwIA9px8hI+88AELSbPSCDoDX58fm6woIUAxGt4pBo7IMvBkH4ZQUYljBHRfIXMoD+VwEIGmvjVdL8jAAhb82CIles4V/ExaBAsLx/wsXwxQIE4ZOU2GkIDIKg0oOpaSYMrknhRiIJ94gEzqGZB0zEip4apNCIOxBOEHnm5JjyasVoy1+Q+dHiBbzy1EEXg0e7KuYkFIgqWOmeKZ2FEHE3rJRNR2ZXaXfFd4dlgy/pjlB4lb9r0Np5Nf35zskKjwIgeCXBQxmEQDVIckGSshr4R2tUxhbK4OwNjynv7su+NkwYSSNAvnrwGAST2W9meJUzVsYgcP1bGdbkxYd8QQyCqhrrGmtDBUcB9pSHbfDppblHzMjQGQRmB/zy1w0adTfOW2xhREp2TwtSFPfR33jMBxZDshg4js09h4MAhACLKc4txSComCHlDlCbrrLL7tfF4AEEWlG1NrpZahODQC6G0hLk7BxiMQkQXv/7151sIYDgCk/lL/EDBFGaVlLMwtPh8996CN9vkbl9CwYLUtQuvApGc1WujqaU8AsyCNJ/7xlf0qflFosRa0XPzncxFCpYEe4GCLcaPLZB0dK+IEXpplFBW6o8ap7wcbNsggV1pF0fqIPg+dO9wLfBBJoCZsHYAZflKUQv6hsywEvC3AHhzIv+ENGGtRBACC2hrQVlqSeFxiAMChCEFlVMlR+o6sBPiV+pFDTW4IsACEK52dLVRwpD/nmwvDvlG3UsV0Hq+ocZBZYzlO/sQJUG0Z2MrmpxKNaAniN+lK82DCBwPIpqDyI/T+8gBeguDQMnVQ2U3u1l83jHzAMINgMEersl/J0BTeqxiUqRevKKXiN20c8siPk7sGU8EusI1qhKoemfF7JA6KyBK8Yq1yHN2bRlUbFgWrVaFx2whd4dAxZXqTQQkSV9xTT0wM980ET+5AgpatNhgOByj1qQohKBlgSlIY4sr0w3Ufvkgg0xXoIxCIb7IVozE7x3GoPFq+vW5xBgTQC5AMMlAYJFLYOMCAcq52Tr4kI2lKtvJECw2d8ulbyG0fznUIFnRTeLglxqPNzAUCBKHw8mnhGMQZCFgQxZlZj2TDbX0kEiKWNWrQoguBBOBwj0PovPPQEGi2Pj1NlXrII7Ci1YU9xli3RaNOrGWrlkHu2F/AtlLtBAeO8NIJJKcJBizhEMgkUMwoAAwVWwiqIJAgRHAgQSYv5a8vp5D1LW9wMQeOwhxWrc6PSwvuYywl/4nf3HSdGz7mGSaXZhMQiiK5l+cNVVK1QdrPDRFYJDKDtKP9SDFIXlSmhTVSkMSIv7BAgsxAOlSQcGCAqx+qv5+dZ+AIAglL8XdKMglL72CiDw73yBPANZY/+JAIGEqcx9VxaBGLffItIFhe9s6Wlx/ADxvYFiEMIYBAdRwMmK28XyQantgcWkiYgEv4I/8NvQQsnQ5aVnZqNAVFqpaj7itCrwQ8/KCcvbolbSqm1vfpAirVGUYpPoQdLSJkGtbo58M9uF/HwbMEnv87t0+t7L3HFMui80VguGGQ0JQgsofzlO0+29ofMn4iaw4IUNKwIGCREWlN5zeLd4whGQ0iM+hmrOsBEUKLQWvFss2GMGTDsqWCmeqXeYxNpKIW/ZUkmG7acBUpAsxKmRlJyGbvmJAj8qul2cTtsyeD70FVEBX+ZdsvKmh9A7bQEOo3RSJMeiIQBPYUdgkGxyZJfXgCLPAwgyqDgnC+nlpIKUuy1ZAVqLiDhLbOh7CtldSzmWHJXrMU3ugJlzT6Q/Vk59R1xPAwafJ3omS0Lxaz3tVGYc0N5TDwJxotSqCgZAMRc0b/4yt4HQmCEt9ojPtHymaQN2JAPTjFKjANgEFDWZIUgH+TYaJz9XcXxBgEAHjqocOrBMelpEgAQPqvuOniCrCJjyDiMSiQq9Il2jbs6YLI1uxQTFyYY+HEQTCaTKS4TBQHqK1vKNv3/dyRRgEHgirlAUV1sJf1oswSCIIIW/BEDQrU73z65v2x+DoCszKQKkeJOfUwVytBgEZg4kMi8UpKjrRXUAw2lTKQIlIheIU0+nFApioDTH/Ahduf+fAyAEAVI4UPg8AIEQtzTslPWeF5Hgf6sHGPX0zQIQxhg4BkHtuyckpALNY5NUfI2qpCjPspTT+S4GTwgpvC5tNd/s/vIAQShnCzYqGqrQ8MBoVmgD/ThpG9fPXUNfS7d0MZiIMF2vKyECXzkU1ZSifupYxGP5fQaYjKT7QUIpZ+H25Wa0Xr+DqATV4QyCg2RpEo1TxyJWSo1fSMCJ9/psRDortonWT++h+dx1EVztgh8hRLkSJBtpDiKJCOonj0ayUhRy8X7UnNQ7HKRbetF05iqcTFa+l+STf/6kIAlr1E9pRHFtqVIj7mNlXCsLSZJ1Vk8G105fQ7qr17W4wvaAFMvIsXWobqyVYNDkHHMF64SaEdS/nc7hxrkm9LR0hQA4IW3ZReQ4KK0tx5ip4+CQUPf9+I0VJ2uj+VIzOpvbBNNACkOBch0gwEa8NInRMycgFlf339snacBTWDVbuveu38Wdq82sfHyrr2Ux8NziBsbPeACJ8iJ+PxPM/Fhv93lEtoGOO21oPn8dyApngu/HZRByMKImGqaMRtmwylAWQ7/76Y4+3DjThFxvWipe6tApfX3uEKhIAFDdOALVjcMRcSu4qhvu7ReBw1x/FjfPXkdvW7drLwo9KM6GAEkE4B2U1ZahYXIDzFgEFp9fFf+jwzoTdsbCrUufoqO5TbJjStZ7LgYGxbARK01g7IwJMJMxDRwHz4EBx7LRev02Wq7dhpMzYHBwS6R6AAAgAElEQVQvBk/OCf1CDIINMxFB40MPIFGUIAzMoCAaiyKeSjG4z/Xn0HTxZngWg4/Od60fsck+gOCWWlaemr+Ai0FogLxSy7q/UB0QnQ4XusrzIbmWG6c5DjGLQfpb/cKIr3e+bKDDoJ0B13eltItEkQMCBKaFfWJUvMd1p6jVL5zmqAwVvblJmCDz/9sXDxCExeRXSPnj0O3KsFEOzCAo5kIPCHN9hEop8abIi6yQtLKA5d/FUFWWg7T2fMpUH5vYe90XqajG+2YQXLtFnKlwBkH8LgsLk5dOw7znlwIs0Av/WN057Pj9Rtw6c50tH1oBYR3r+2Ejhyzqpo3Bw998DPHSWNjJc7/jZGwcWrcPZ7YdRdyJyDTNfAaBldnoSqz+7lMoGlHsvlLv76JocmSAi7vPYc+bmxHNyjmpioXKyiIVZRqIViaw4htPoHJirX8aIcvQevYuNr3yAXKdaTljsruC87dgJA0s++rjqJs1GmxGaj98C5WWNIDeO93Y/JuP0dl0j+n7Qj9WxMbcNQsw+fGHgKhUuGrZAxx9350+7HlzC26dug5TWaq+MYgvEr1c/9AYLP/W4zBSoiW19+OXF3ZfDofX7cP5PacRpb2XQon/qwEEx7BQOqoKj/94LeKVAsjluRDk/Al0nNl2Akc/3Acz419+nUHgBauM48kffAkV46tkfxGFEPRxGoR5cfXQZZ4/uqlvoH8ewpwS7AJSBh7+yio0LJiQ74oIrEb75RZs+8MG9NzqEM451on5xbGcuIEZq+dh+uOz5N6HyF16tmGgr6UHO/+4BXfO3GCgzf/MMkDKFU6bdkB73zCrESu+8SiQlHE47oe9gZJuyLSnceC93biy7xyiVITATb336iAQOCDDoGxUFZ74q7WIVqYGPPsEOs5sPobjGw/C6CeAIOotsC5ScSwGlSy3kKhO4fG/+hJKGkq9jE+Wg8SaA333+rH1rW0w/vwPbzh9lOaYU/4ar/iMe0lcWkkDCL46CF8cQAgqSKXYBVXi1TtVk/YFAgbrLahGOHKj+c5/DoDgdcbzB8CIrR/AGnaDOAdmEOSx8x15dRyFnhscIOjdHF16aSBtwoviD+oJuoTCAqL4akghHsogBAMQtT4L7nC+gCBFsbWe4vu8AEGUJh2I2QgGn0rYrKSrqwykEawUTZiLQVGWMpAtPEhRwNGsaWHiigex8OvLGP0P9JPrzGLLrz7GneM3JN2qpJQfIGSRxfCHRmPF99cgVhF1ixcpHOHZ5CacfgNHXt+DU58cGRAgsEBrrMDqHz+LopEEEGg9w9wCDgggXNh+Crv+uAXxtJyTBhAUVItGDBhVcaz63lOomjIceWZsYDFaT9/Fx//2Huy2rAsLBHuinRMSvUUGVnz7cdTPGwMnKnLs/Yyb186+t7kbm3/xPjqutSKipcgJ/espFytmY94z8zH56VlATDAwnu/YP9Du5h7seXUL7hwPAwji3fT/WeQwfO5orPrhk4gmowEloVSpeHau18LBN3fzusZz5LuWYwsABNu0UNJYgSf+9gUkqmMczOnJV7FWQpY4sNIOzm08hqPr9sFM+8FRECA4VVE8/ZMvoXwSATmqzhtAXnIJnCxwbf9F7Hl1K9ApywFrx9MNzyOKvcjA0m+sQuOSiYPv/YUWBnJ9NzuZkCf2huMiNP3PoCMBTH9iPmY8Ow92jMYpAn+VLKfvMDlvGEjf6cGO327EnZM33b0PBQhRC/VzR2Pl954ACMi5NQeC4NREurUP+9/ahau7zhcECLyfsFEytgJP/M1zSNYUyb33jB79RFlpC6fWH8bxDw7A7DMZIFDMEsX46ACBAGesJoUn/+7LKBldBpvdF5JflHqm914am17dAuOtn7/hpO+pSooaCSkjfP3KwbWL+QCxi4EDLbx/15WLGnzYvynB7g8+DFRSVEpIVjiU5JxUxzJyOSQGQV80pVKDvl9dkQhXA3ni/IWSFCUTDNxzAYHvvvsRaHDOaoXyghSV7FYgIy8URgXI6BTV/RVKCu6Dby1cX5r4VKEgRW+qGoekrPQwF4OsQeGVRlaCRQks6YLR1zAMMAziYsiLMQlUVtTPr9oD/96I+QgGQTBVYT/6yc87X1qQnf93uhvMe4/wZSqwrS67WBc/OPOeRvb+hJUPYt7XVwwJIGz95Ye4feJTUIk08vMK/OI/o8QgjJg5Bst/8ARiFXE3gdk9L1pgYTZj4/hrAiDEQhkEMXYKqisbW4nVP34KRSPLZMRi0OKWARppB+e3n8SeP25DLEMAwYvR0EcbNQ0Y1XGs+v5TqJpMACFo7fn/3nrqNj7+5Xtw2rIcfcHrGsgSIOvMKTKxnAHCWBhRpSA8LSW9tyxgu291MUDoHBQgOJj7zEJMeXo2EBO+dQEQfBedx9TT3IXdr27F7eNkmQbZQ0G602hyho0Rsxux6oePIcKKRz9l/qDJXE8OB9/ciQvbzyCeIz+yum/KihbnkOI6SsZUYM3fPo9EDXXwU+cw//TT3p/fcAxH390Lk5h77SePQaiK46mfPI/ySVVCmRdKlVEA4Y9bYbeLPkDC/hMIkXzi4lo5cJImFn9rNcYtnhAOELT1aD3fgs2//gj9n3YhSnET7N6R2SBy3FztMGFg5pr5mPHMPFjxYOqqriyBvrs92PWbjbh16gYi0r8nb7NWLp8YBAcNc8fhke89BhTJAMWQfSfQkelI48BrO3Bl13lEdAaBZYDp9lykXxGQe5IAQq1gegr92Gkbp9YfwbH3DyLaT3Eb1LBPBBerjpG0phTXEa9J4amfPY+SMeVwIipQ2Ht8371ebHl1K4w3//FNJ3u3BXaW/HVamM6gACEgzOSzP3uhJGkr+w6/txReUJ8KnfoPAAjSYh88At+P4tWow5RToSwG94b4DoBKb+Hrkn8xVQRwIIuBPqgHKboCP1BzXQdngwEo9+W+iHNpYxYCCFpXO9V3QRzw/KhgfYyeBByKi8F/YNSclDXg3wNJW4ZU9hwUIBSqBqqoxpA+8B6UUsrBq0svxhncVT+HRMdPfSZnWJjwyDQs+PryfIAQkBnEIGyVDELEklQnp/sFAUIOdQoglMelMvNYOv3AZfptnHh9J05tOoqYEwtxMUiAwAxCOVb/6BkU1RNA0PdHf78B9Du4uOMkdv9xG+IZAugqklx/s8gwMqpTWM0AodaNOxOfyheYrSfvYP2v1jFA0K19DpyUP2xFFhlY9u01GDl/LKAAgs5GuZ8Fupu7sOUX76LjWhsi5LRVyiaEQZj7zCIJEHTSIqCAHQN9zV3Y9eoWBghROyICO10lJpgjgglZw0b9nLFY+f3HESkSFLDvk9rZy/XYEiCcRiInm0/JM6qbGIZBAKESj/3dlxCvTvrzYPXHk0Lps3F+41EcfXcPjLTfGg4DCE//5Msom1wt6H3plvYJL5IhWQdN+y9gzx+3w2nPCmtdkaQE1BkgkPVvwUkZWPitxzBh0QP54DBwvNoutGLLrz9C380OxKQLj5QsEyj66saBmU/Mx/RnCSBIJ6R8lvtI+YW+O93Y85sNaD51E4bcezlazelOgYQORs0bixXfWwOnSLg3OK40CJIMMEA4qAEEDkDWMrBIrStwWDK2Gk/+9EtIDUuEuBi8Wdn9Nk5/dAxHPziAWJ8oykfFpQQbo0rSk9fR4j1/8m9fQPGYco7Q9cUnOUDvvV5sfnUzjDf+8U0nFwIQClnNulDzWTuDAAT/AfFyRYMMQiEXQxAgyC31CQgxHiVkpUWmfFmaTzqMQjdNyi6g7yi7IT/N0c+m6FZROEDw3zOhLgjVcY9ucR00cRD8u3cRxTf9lq1/ri6edZVAGEDw7cFn/oun9kQdBL0Fh77mek11BSblMVQCjS9tAUToCv/B6yCEuUDCpqdGXojlGpBB8MU0aIpGMjBhiuq+AQILFM/aId1qOjYsw0QuYqBh7ng8tGZOHmsrIq01ldFj4cC6Xbh37lNEbdojUr6Wz39LO0ViuWpCLRY8vxzJ0rgQUAEFKdhZA3bOwfn1B3Fx91nEIN0RMutGbwpG4ihZV4QlX3kE8eoSUMqd+PHvNKWuIefg2pFLOPrRfhGDEGwXzndZlEY3KpKY/+xyVIyrGtQP3XWxDbvf3gK7K8M0swh2DDSRo5sSB+Y8s5RZFIryEGP130kKsCQB33+nEwfe3ILu5m6OJncVeRAgRG1MXjYdE5dPZ4Wh4i3Ek1WcBT0TyLb148AHe3DvfDOirHgCYFcymjkzh9opDVj43DLBIOh7zfPSQFKfg9Mbj+Dq4Yscg6DEhsio0yCC4SAxvBhLvvEokuzbzgdn7m2meIE9J3F6yzEYmYEBglMewbKvrEbpmGoOpnVTdLW5sRTIObh1uglHPjwAp5uydOhfPfAjJCrJvBwccgc8tRhjZo7N2/ug/Oi51ol97+xA+l4nKKqGfk+pnD4mg855FJiweAqmPDobWYNugv9OK4lKDFS2vRdH1u3E3Ut3YA4CEIY/WI8Fzz0MJCmLQborvVwKaR8ZsHszOLb+IG4cvYII31Ht/SxXhS4iF0NxQxUefulRxMvJFeTbfb+YyzjMSJzZcQKRNAV3R2FR8KTKMGQVIzJjIiVRLPnaapQ0lDPoEsyNiUgsym9Ot/Vh34d7YbzxT286uTt+BiFIv4vnKuXrKXd/Aw0x90IMgv9UhwGEfPeC+o4S3Jxx4MtX8dezdseYVytfRppqzZjyXAyUlsL0srLsCtVBcEcVECb5lkyQQaA90NeMCTU3rkABBP05knbk4hsFGARXqHmphnyF6SDklSb9bKjAz6AEAYIKIA2mOeYDBK9pkG7LBMfkNwkGqoMQZHZ8gYPqkmnL9kUABE8xFAZD+gnxXi9FjtyvMAYhGINAAEGko5FCNpEpsRApJZWnrxEVUtL+TjXVLQNWdxYUsCbyi/z0tRiJKKHkJA3YxSbiEX8kO82BbgNZXyIRzAI6szD7HC8nX5av1gECzcsma5zGmaB8B1JoiiyXK6My/gj89OWAbkrNIqXpdzHw/eA8cBsO5cEXm0BMUuwFgAef/Qxgd2Y5+l4pnrwoeVoDslDL4rBjNiglkro5uvvLS0prRErLhJGxYHZmOLhOV+TBGAROayuOwaYgflVFQ1xI8Xd2ZYl6C1YuB7srB2QIwpEqyg9+pEwTmkU2biJSFud0P7+K8KcIkjvJ6swBfaLJGb2Hz4sv556TCECBek5ZlOcuet54T6YjxeW5HM5ZYSWOPksGUwaUmdZ4KBdxEC1LwI5Ls51jUPQxG+yyoX+hLA67y5alJQzOKPM2QJxAUpGcilhRBCtKI/JUuQAR/vWIpg04FPRo0Wdl7QBunuWXKwSIzOIIrCIJHmVwHr+fLy0ZirQjESBrwe5Kw8h6mTDiaYofESOh82TTPjEbR/pSuk4COSqUtsn735WB0+/VINH1HceFEevn2MhGDUQqEzAigYyVAH9GdTci/YDdleX81kgkJo1e1RyNzrwsPmU6cCpicCJ09mkNDJixKEoqykXSpUHnyILxOrkYqN1zhgJ6PBdDOIOgU6AUg+D5bJWP9rMDBL6xgboDXgBaKIMQ+HwhgMDk3pAYBOW+kILFp7zDFJkIfuH2viEUs/4N5VvzAYS8+fptTnWx/FS0p2hctmSILobPBg8C39LG7DIIQ3AxeHPJ32NN3ASEydBcDB4QC66ff+zhAMFbz6EwCMEy2wO90f+7gQCCNgZfJUUhrUhIU8R0rigHij7nGAAVSElCS8YB8adZY1EtdQpQUn+XykmTvvwvfIBs5KhIiiULqJieDKDbwDSxLXLg2T1Gn5NWqz/NUa9XIptemSReZaGZPGeACPYkH7kAEYID9seUiPvFMQhwkKZaDMwJ+JWCKKIkfhigUPVNI8KCjv5MACqM6qanUMwEZ0nwuRbr5OoImZ+ek8WT3DgG9/XBNHAxjWgkioyTdfPxBRwT1rFyZdE7RPEbDTiEsGkkW2j8xCIZpCi0uBBvnGrulte9kYZCUp7W1w3Sk+uk3WHbNGBaAkLqhdoYQMq95zMoI+KDQ9RdDDQTrtdAjJedFQWwpBWtK3JePheAqGJClBGjIxTJIVDwJBWcMj3jMKDqfZecZb3Uo1yBM6RQklwt17ImmcxKW/vhktp0bhyTG7hJCOBinTCAIIJcKTCUYaVWW8GfoyFqNHjZUkEGlNeBmQqK4SADwYBDGTE5dV7UDPIlOs8FEWTtHN9XzqyS90KsuyzSRDqL62RI80EChGR5GSipOkL1Mcw4jN/9/WtOpK2dAQKXU1HBPIPFIDimBAjixKo6CKEAQSe3ePLhDIIcv0wfkfhwoF4MfBo0Gy3MtzxkFwMdBAUQdGTKL+F7ockhTacpNRBm4ev2o1ih+4tBcKVenqfV52IIAIRC/vSg8NWt2MEAlCeBhaXBBodc70JZDL7e4yGZBvrxVhcun2a9z14MHGvmgZABYxBcpeClOYoshvyfoPDSOZB87kh8Pww8+NZ50DRHJQhMlNVUYfTCCUhVxFj4cGJYGji/5yw6b9z12ygUdBtRZXqFIFI52+qJHqkpYxP4uvmpzuD+6EBb3NVC3RwpPkgyLC5dmr9KnqCXDBlXbMwPaBSVG6ldDBVK8oMDtc4+4S5TWz12Ttw99U3Xw+VLww2qW++JvrkoMEYCVXIMYftP33Hdp7wG0vqk70l5qb2B73cQ+PC+5dcIzj+cPgZJzINhh2phr8CkLsDCDJrQgELvFPs8MHIULO9DujmKbqkS+OZLL7eIluTc5WeDAEEUc2JFTcC1QByQf+/1m6cDR6WEZEVIt3y1uvsCsOa5K9WaBd7tAwjueRPnWJcVegVRdcJct5vYdK9onrozfMa1UyUtwVD9o+2ZKNEsFJWna8IBggsatMw4YhBSFWWc+RGNxZk9M175+WtOtKUDTob8dSLaVugb4ZPyL5gey00AwYRNbaK/UICgULwHEGgywehyHsn9AASJPoLMiDp0NJdgX3MlTMVX83Np1b+HahTXmlPKYggAoUA0fH5zKN3lo/JxVT9yJRw8wKPG5x1cscZsnajYdZ1hCQA63xngMUqAID93vwAhuF55sR26xP1MWQweXTogQJDWm9pHWoJBAUKgD0cYCHDXO89qDjBZPrs2vA4CWRKUkjZiYj0WfusRFI8skcFPlJzvYOPL7+L2EUq/0nzTjsMWgFexUwlNJYDF3RI/Qe9rmMoN0UnsDigMEHxCWwWmBh4TVPVC5OTT7OrusQwQrlKtl0kh8q5wjJDQjTJ+Rp57Lg8dlorrGzMVdxK9HUQPB1GgpGAcjZToAnsJm1K5kcJcHmFyZEjxNb4YFKHoaFpE2YsshvymT6GMZyCWJTgemq84715QG4GQMIDg6Tdx1vJ2I2Sf/e/Tz6iUoUMACOKT+XvvrqObKeWdPmFQCafbQD/5ssQf2yAAVMBQDGF8/LEumptcflUsTSGzQxshf0Sbq3u9RSnuSFRU7eWnadld6snePso9ikVRJAGCGYuD+DrjlX96w4nda4OTJgZBUuYS1eQrxQBAyGv3LHxZbj9tZb3fF4OQDxCYNvwsdRACVpyajz4vH0DQUb9rb6joz3yA4LfI/ZugNsVTFgMDBOVC8bNs0goroGju18Ugxqv+J1wjYZH0+iXJOwMSILCVokDFEFwMwbVS78gHoFrBKeacBw9S9FiHfAtAElb8OqXM3XOglWcRQuJ/RYAQhWVmUDt5BJZ8ZyWK6kuZPaDofLPXwsaX38OtgzcRdbR8888FEPIt9EKK6z8TICjwQ0qQ/ed5PwMHEZNbQmS/izLDUbr7gzZhEr0NODGE+h0o//6AakXZyLJUkzxnXH50CD+fHSAQU6FkMfng/ZDtswIEyqsXIkAwKEz9hzAI3tuE6yroFhCAaUB1nCf1hsIgDAoQWDALsObKZt6T/Cyf4OjyAIILNsQnwxR7YQZB48/cVNTCzym8UiHryHpscICg7xGDuFgUxRXlnDVDAIESVoxX/++3HNxt8QMEhV40q1IOXVMo4mJy5P8gDIK6wC4mGtDF8PkZBB/Fo+W2DwgQ3Ih8hZI9a0v5CX2Xlf2i2g933JPHLm/dxIX6j3Ix0KjIp8ZATbN4PetMjDyMQVAz8tGqOrelxyCwQCXho+rB64AmLEgx/5jr7xF8m+7KuT+AoKybQhc7FCDITRsyQJAPd8ctmHlZrcyj1VlgaPEEakx0F+hdYm90V1YhBoEAQhbDJ9Zh8bdXoXhUmVwgwSBsevldNB+68R8GEPQ7nA8Q3BX2CWDhUBzIxSBWZyAGgX5P2T/kOkkWJUFZR729vVxeNhzSDAAQOEDPhFmcQOWwGpSlStB09gKsPorD0p+mMy7gDCQjZSBVW4Kq6mrcu3Yb3Xc789PYJOPo3iUNlPO54GX67ADBlTPuCwJzlZ0Jv2iAYEaAeCpJQSHo7+3j4nrs/vn/KUBw6SzeTpFtEzzn9wMQ3FIUfOyGwCDw/n8RAEGcRTMeRXF5OVdtNeJx9JGseu2f3nSse62w0xkRVMKnT150t+mRGqzMNPD+Kqk+JRgEg8DCU6H6QOqUkgTh01cXUvyXaTgZXUuuDJ/iV+Uj5WKKYasmMlqcg8ZiKJeJGq24rOI7wsUgfUju9nifFJ8rjONcql4pEO2jPET5nrBmTd5hIMo2xAoOYWKUMtWIDlG+Xh4sleaoz1UdJl5HRpm0pmrL/QyJcsUUnrHIyOA1cX1kfoAgxX7eI9Q+sgJVwsW1AoO2hszntUSAjpqf35pQ5yWY6+F/dUGAwKl0IoqaeqEr5e6LInBBn//y+tc38L4QSlREi2sFmTRGRp1HoSwVQ0P58VnUThyJJd9dhWKqLaDuFAGEXxFAuC7T5NTIRUMlAu/ekVXAWx9/uOL2FJuDWDKOeHlKtKCVEdAMbnJAb4soRpOzLcSjJlI1pXCinh+Urm9XazfQT90AA9Srtsru+6TbwltF8R2OtYPBbWirxg3DkmdXIF4Ux7FN+3HxwFnZxCYIE/znSEVXUFBeSU0Vpq98CDUTh6Okpgx2p4UP/+cb6Lze5sskcIlxx0KyLIlpS+dg+IN1KB1ZBStrY+8fN+Pq0Yuue8c9nyGIxQUebgZHUJhEuDRzqjIOMyYS9ETUptgvkTFJ51MEjtIq97b2wupnIlg7eOJ7dD9EELmEE4MwCHKlA8/RdsJwUDmmCvOfXoLyYVU4u/skzmw7Bur7oQCC2NL8yesnT52+vKBF+SqXoQ+kpeqyWr9l4SI5BBz6hLcco4xBElfSb0yFyT0h6vQbJf1d7n1VvIT2mTwXgzyJ2jpR9VHaMy7CxNkUFJwY+GLIfdHvTdh4KYtFtfvWXQx+Ceb9TQGEDAVoxqNoz+VEFkOuRQAE0bVMpEJItcEBg2LxFGjwhiL0DC2GqhRGgoCUhp7WVEirik3yKyIdIHgHnT4nuh0qAahZbNp5FEqjEDLXrQH9ENOGWdxvXBjc3nj1GIf8AKKwLfFEq3dU/EUoRCS4bJ0ri3fw+rp5wEJxa6vsUeMKuEi/oqvAvO1yvyasB28fWOBIH6NIJ5LvkQJIp9zy9yV8rgIMygAw5ZaSB1mHCgWtR5kJNdBKsoLgzpTBdClvrYeCtb39C9hf8ssEEOj8cCCcF84mV1zsoZqr11RInuFgCqo7If/GcCy7pFa5BCq5ONzhiPMuUnldc5qVgm3kUD1xJBZ/dyVKFECgMUqAcIsYBKp14PmcOMWNiB0PrIeJ6eBd0QADudsNoGbscExfMQvJmjIY1FiS6if0ZtB1owP7P9wJs9+GZdlIFEUw/0vLkBxRihg1gEnb6Glux771e5C5Sw2OggGQgfHI5mZ+V5RfBlAFuPGLJmLRNx8F4gaubTuNrf++HjEnERLg51cjClpSumRxbSUaFz+AUXPGoKquGta9NN7/H2+i+xrV7/eUi+c5txAriWHC4ulomDcW1eOHgYpR7XnlEzQduYyILeI/OChQKnaeh4Yeg2oz33VgIFoex6zH56J81DBE4iKzw8pZyFGGGclhLkxocNMeI2vh4Lu7cOfSbUR85YzVORI1/UUUO6cMaD8hpeJZuIq5uy5i1aqY7rnpYMy8cZj3tWXc5OnesU+x83cbkG5PBwBCvvpRDKwuHfXR6FJfK5GSV4QxzMXw2QCCLl0pQ8Kvhwq5daQ3373tYl4eIBbxJeGgWzEJ8kT76oNwVU84iDmmdF9ZfPk4q9AHuPx3RsRM+CpA+USpa4zqn5GLrWScikNgLR6PsYshQ8Wp4lG0ZtJUB+EtJ9fSBrs/7dZjViS7eFve0fbEHy0sr5qmfH1OX5ULW0AT+Bzu6jm6AJesASk7siA5ulMbD4MWQe0rRSKiZ7UfbTzuAVOWHVksEZJ6lvTXeTP2Kzh51wekEMS4dBjii6SSVh9T/9zuWUEw5RyXQEsiWW+RVQZFgJVxaUtpJfKyuW0fpftHMjBy3JTnraCI8owOSmXp++lfWWFVSlDlgjOXOdJXInCNdXYp8MzgX+myqopg7v7l5csP8hD1a8UwKUuAL7QCvjIGwWWq1FnzlJRozhIuAEJHoDEIrhBkAO211fakoMygkb8XVqDo/24bFqrJxVAIIBymSnz+YKUotxX32Cgx9rzV9VOZgQArmmm0LIZkQwkeenwBRk0fBydr4fj2o7i05yx6m9q5EBNdOUrPL5pQifFLJmPy3Ok4tecIrh+8gM6mDjh9pNmCVOjQAQLfKy7wkkPZmDIsffFRJMpKcPijXbi85xyiNtXMC5ufmq+obUI/VPiIlsqqNLDohWV4YP5UWC1pvP8vb6HnWnugFoFKTxNpabkSE7OfXoApq2bC7sli1yuf4MZhKnTj9ZEQQkDcVfcGaD54N24nIEvY7RQHikaVYdz8yZi6bDoXrbl26iqO7zwMIytS52JFcUxeMAN19fXY9psPcfMklWnW+x2INFThMrs/gKDleYj0SMlIqv+WN1ZhwdgnkscAACAASURBVJeXoXx4FU5tPYyzm45ybQDBvMof1+DwztrnAQi65PAM0uA5Du79YAyClPMBtqPQ3qi38Q2VIFwFydMdVYBeAITCriNPIupnX8hsznOJAcPG16GkvBhXjl+F1R/MqMoH+YXzjoh5pdo+0hjVl0zKT79UpvfHUFxVgZxjw45F0EFplR6DkJVVx7wsBjFxmTLGmsUrZiRoeY/CEovrp8d1+ykM6eUhQleIKaFduEb+/WYxKCGjGAu/j12k0ukCldezUFZBAX0UpHH0j4XFILgskq5LQ+ScWsd8+S7pKDnWMBeD/zsq/FvByKH5QQupX/dCBYIU3bVTwrLQA4b47wwQBnQxDO1B7nkMS4cNS6cNBGQKd0p+pHLB9QnxJOYJIXXmpXLW74T4rAAItZOIQVgVyiD4XQx8GDgGhauouYooUE2O3xe8lf5/E3fMQV+kH2MWTMSq7zwNI2Xi4s5T+OS3H6HISrIrwyR2z44gV2pizpeXoGHCKGz4/TtoP3cbSYMaNqnaCvrhFnPjPZHDCKaI6WBMxG3YyJr9sEuiMGJxWF05xLIm1zAYCB4Iil7k9bs4uiyK+S8tx/hFk5BrFQChNwgQuJa/+BKpgXTCwZy18zFlzUOwerPY+dtNuHnoKgMEnodSjjw1MSYVB6TisAorISHqM5Ecxi+YiPlfJUs9gXPUzOq1T2D2iaI5SEYwe81CTF8yG9t+vwFNx6/6408YWEqmioaexyAo9kA3xNRKB0GcJx9ob6xIDiimAlgRZlBi/UA8EvvCAYI4haIXAx8NJa60AnjunZNtzMURUubP/QMEMtqIqRyoAm2+DhNn2AMIYgwDn0Uxcv1Z4nZYnKG04PlHUFxZgo//5R2kW/r9oiUQFOkWfNA+xe+WwMfvzvY+FOY+ZvM0HkNJJcUgOFycqocAwhv/+JaTbWmBnQ4CBLFJMgLLfbpu/CnqV5TI5Ovg99HoFltAiqqJ+ASY+oyrmMMBgvdd/1LnU1B6zISXthkUwgx23JQg76DpykD3IYYqBEmRer/TtX6BIEV5+kWKjboJ/mOoCxQx7uD45N8DzZFCezEwpa0JhlAlMTRlS59SMQjiwPndM67bKeQdYmUGwr7+NRgIIBQETyHTUASgPlYF3JTF5Uun1daU98Fl88LgrnqhbidoMRNSKIg10xS3W4tBiMV8gCCK/dROIgZhFYqpARJnnwgXwycvv4dPfTEI4jwI8O5pX7ewkjvMQgBBXzixR1RNMTm8BGt++gzKxpQjc7sH7/7zn9HzaS93NDatHGwngtiIFB794bPobO3A9lc/5sqL8WQK8ZIUkokEn5FsJod0Tz8yvWlRAIcZEtLADsyoiWRxEc+tr7ObS9UWlZWwu6S/pw+5dI6VhZmKIpZMIdOTQ7aPsq/ILSTTe6MRxIvjiCWo6qBIw7YzGaS7+5DNWiynYuTHL4tj3kvLMG7JRGRb+/HeL95G7k4vilJUdthALpNDf1cf7BwVzOEKMcjFHcxigDATud4Mdr5CAOGabOBDriAbRsRAvDiBRFECsXgcdi6Hvq5eZHoEQ6v8DkEaW/CgIkNiwsIpmPvVJYiVxHFx22nseW0rV7AksGLFgNrxtRjxQD2aDl9C56cUJEmd+wzEE3EO4Ez3p5FNpxGLR5FIJjndLZPO8jiodTMFesZTtD6yxbd0IdtZC5n+NDOD9Hu3sKQNpPv6GaBEklEUlxQj259FuisjKu5RwaeIgUQqgVgihp7uXuTSFpLFSX4O7XW6JyNBlCi6lChOIJZK8N4SiMn09PMeGZaQcdxBgOyZqMHPTBQnYWdt9HZ1c7Q9nZNoNAornePvWVkqIibdqATOoiKYNRqLoberixnoRFGK14j+3C+/QztLHTLjxSnEk3Fk+zLo6+jhfdd/WEJHwOOIFyWZ3aHx9HX3IU1nmQuIUY0Fm89zNBFDKpWCYzno6e7htONkUYrnQmPt7urm7ysQSes6cdEkzHxmIXp7+rD+X9chd7dPrBkd+yBaYhGab+CxXJAiSDGvweC5QgCB4g5KKyuRI4AZMZEmw+/Nf3zLyQQBglJWPigUICRsLQhGFSGTaq6QDycos5UwdC07d3IuISjKi8igLmVRKQzmKUtpiwQCCQWQ8OdMe+2eaeUpZkIcSK+vgFJ2urUoqGifcpZzdoP08hSSG40kgl0lKvahOremgB/N+/GlEio6AhSuFxWrxvSxRgkq5Z1XO4LoMBX7oqydPCtyIIAgDkQw8yAIEMRcpYWoAQQd24gH5c9NY/xdRmpAgDBYbrReSEQBVllARndXiUAlUQHQDQDlhRRK1kPmYq/cNZBz1S+mOhO8RxJVKBDoA3x8PpW1IyGiHKPLdMl9oiDFRd9biZIRZfJg2kCPgU0vv4fmw16XOXV1I1QoyccgiPf45zEQ0HFvGS8CKabZLyzE1NUzuYvvobd24tTmo4hbUVYQJP7HzB2Nh59fjUObDuDCvtOoH1OP+sljUFJdiriZQLQkzr7sjlstuLjvLG5fuAXTjiBVkULthGGobKhAzZgG9Lf14tjmvagcVoGJSx9iRXdmxxH0t/agqn4YysbUoqK6Eic3H8aVY5dgUncI00Hl8ErUTx2HysYaxAwTsVQK0VQMfR1duH7yMi4fPgdqZkTFgy1iEF5chglLJiLTncWJbSdQXlyC2voaGHEDPW09uHH8Mq4fu4T+dqpfa8KO25i9diEzCFliEF7ZiE8PXuUgxSwBj7IkRk8Zjfopo1FUXAwzCo4laLvVgisHL+D2pVsc3EnOEi34RElNBjnUc2PCwkmY8+JSxMriuLj1FPa+thlmL2AWRTF83Ci03mtHd1s7IsSqGTGU19Vi2NhhqB5Ti5r6YWg614S2m3cworEONaOGIV6SRFdLJ87vPYWrxy6jKFGEaQtnoXJULawEnQEbRo+NW2eacP74WaTKivHg4pkoHl7KdzTT2oOmS9eQKi1CZWMtakcPx7VDl3Fq61HEohHUNtahsqESVWNqUFxajN0bdsPpdTBt8UxUNlTh6pFLOPHJQS4vXFxTjlFTxmL4pJFIJuIcFByJx9HT1oWbJ5vQfK4Z/R19XDG0qq4KtePrUd1YjaqGGnRcb8e1c5dQO2YEaseORLIkib62Hlzdfx5Xj5xHjlL1E3EMH1fHAZU14+oQjydw8eBJxOJJjJgwCqW1pcj1ZXD91DVcOXEB1WUVGDF5NCrG1iJVnkRfay+u7D2Ha8cuM/igW8PNjUqTqJ/cgPpp41FMIDZiwoxG0HanHZcPn8ftCzf4XpTVlqFq7DBU0l6MHI7O2x24fPoyRowejtpxw1FSUcrg5PKhC7hw4AysngxixQlMXPggHlg6GWWjq9Dfk8b5XWfgdKdh91toOnYF3be7QpiJ4P3VGH7KZOM4pHwQIYLTPeWuTAUGCFWV7IYjscSF2v/8j285/XkAQeN0hCTPoyOptrVrpX5BAMFlK9yASD+D4AEEmSKm+EIWfILFUKUlXUNJBwgyaEdVGGPBL+MoyOLiWbrWsAYQ2JIcOIthILUqAIJe3UoyLXkujDB7OEAN0yilj9Flj+V6DeZiYH+ZL/7x/lwMQXpU7UcoQAhQ5+Hr4wcISnm5NS/kXD8/QJCchQqJkefALRTilsBVdRDUmnvV1VT2gQIGSoHzjulARyOOJOmguSW02hEur64Qv+Y3lgwDv1MGC5Lwn/XcEqSGlcg68TYL4d1vb8Pt09SUSSuUxLUjChRKUqEsLkD0Mwb+fVJkL7WftVH50Ais/NYapKqK0HL8Ftb/258R6XG4tGzasLH6h08jVVuKHW9uRkVlFeY9uwjFlUU4ve8ELh08h3h5EnMeXYCahmHouNCC9S+/i0x7P+qnNnLjnLqptYiVl+Du1TtouXgbox9sRFFtCayshQMf7kZZtAR1k+tQMW4YDMvE7j9tw/ntp7i0bPmIEsz50hLUTR2D7nud2PHOZlg5YPryWWicMRaZ1l4ceGsbbh68IgL2iEF4cRnGLZ0IO+Pg4uFLSPd2o3J4BUZOGsNsBo3t8rZTOPzRPphpA7mEjdnPLsCUNbORpRiE332CGwevigqUSRPTVs3C1Ieno72tDYc3HUAml8YDcydh4qwpSLf0YeefNqPl4i1QSf38cCbhhyaAMF4DCBe2ncbO1zZx58uiEeV49GtP4dze07iw/yQiOYst1UmLH8KYBZNRPqYCZsJAz71uZO5QOz8HicoUimpLWX51X+3Ah//2DjLtfahqqMa0lbMwas44WLkMLuw6g/PbTqH7dgeQMFE/cwweWjUfLfdacXbPcQwbNgIPzJqIsrFVMOIRnPn4OA6t242KylJMe2QBKicNQ+nIUliZLI7sOITx48ajelQNW/IXd5/Dnj9tRmVVOWY8Nh8jZzais7MThzfuRefdNlbc81Yv5oyM87vO4fjWI8j19WL64ukcGFrSWA4zaSDblkV/cxdbuPHKIpQML+a97LzUgp2vbkLbtbsoqi7BrEfnY8SsMUjWFsHOWei63oZsdxbxshRK6kphxExkuzJov9GKhBVDNuogVVOEZDWlz5rouNyCPX/ahtaLt4XcTgHTls/GpOUz0NPVi4Mbd6O/P43xc6diytyp6L7bgcPv7MGnZ5vQOG0cJi6ZiorxwxgQZ9rS6LnVwzAjXplAcU0JgwtqIb33jW1oOnoZpdWVeOjJBaibUY9UdREy3f24ca6J18PptXF+x0l0XG1hpig/JrCw5tELJWnmpcxe8wMEuhKUxcAAQZT65Horxls/f8tJtwZcDBKreO5LLxreBR6U8cB+TpmHrAXI6daVGliYrRJkELyALWmDkiKUxUtEFoMI2lIhuZ7fyQMIIn3PWw5fzOQXCRA0RRBKuChIJcmBIQGEIJHg2nzKeaqOh6QBJDAQ9LEXVFSQQVBR8y56GhwguOyOjjjlAoelOXpxCQrNhlDZ7rMEQODzEmrMDq0OwoCMlaa81VlwAaJ2t4SLIRwgiLUNuEQkffOFAARGkLIOQpBBUDiVmqskTfYNKjFBneWo/W42IzKQ9JgrwSB4Lj+91LLHrPktCXG65MHmI6bVjCfGty6JxV97BKNmNsLutPH+/3gd3RfvIWfZKG+oxFP/5au4dvwS9n24E/MeW4IJKycz9Xpw3W5c2HwSfXYW056cjTnPLOaU6o//5S20nbwFO5JEthx44vuPYcTUUew26GnuxN3mW6gYXoXKsmrsfGczrhy/hPop9Xj020+x4tnx75/g8s5ziBoRjJo5BvNeWI5YXRG6zndg46/eR7qtB5WTa7Hmb9cimjRxdsNRHHtnDzL9QKQkjoUvLmcXQ6alD+//8i10Xb/HNPL4RdOwcO0jiJZGkb3dh09++QHazt9BNgnMeXY+pj7uAYTrh66yhVk3vQGPfPNxODET21/fiFv7rrOLpGpKLR7+5qOoHFmFm3uvsiJzuqy8kr4q+l0HCBSDcPvMTVzYfxamZaJkVBUDjqMf7sfFbScQy4q9shJA3dxGLP3aKsSKYri0/wyOfXQI6c5epCqLMO/5JaifPhZG1sSGX7yP5sPX+DyPnjcOS7+1EkbSxJlNR3Hig6MwumxkzBxGzG7AwjVLcHjLPlzbfxaRaAwNsyZgwUvLkSxP4tRHh3H8nf2IUMB9Ahi9bDIWPLcMZsxEx81WtDe3wEwZqKsfhbN7zuHo+j1YsHoBHlg5A3bUwaY/fojm3ZcRz5nIJHJY+PVVmLJkJnrv9mDPa1vQfOIaP6tq+igs/spylA0rxZ0TN7Djrc2cOkvKftWXV2H4Qw2wuyzs/uMWXN57AbGIiUhVHPNeeBiN8yYi3dmPvW9vQ9OxyxxJO+nhaZj9+AJEEjG0nr2J7X/cgL7uLEpqy7Bw7TJQN0YChkff2oNLO88g62RRN6MBS7/6KMzSImx77RNc33WWWaOKqcPw2PfXIFVRjCs7z+PQW7uRyfQhNjKFNT/4EspGVuHGiSbsfGszMh29SFTEMe/RhRizYBIzSSc/OoQTHx1CJGfArElg0VdXYPSc8Wi7eRfv/+s6WC39XBCNmo9FLIrBUVE7A5qj7i8/D0AgLMKlE9/8+ZtOppXSHLUYhDCAwMpLD1L0KnUJpaByNzX6NUSp+OyVYIyCGyUu0/CoGnQQIEgO2rO1lfdexkEMCSBIBP85GASfdehyt4GNU0pvqAxCAYDgRcwq+a09WLmZhwAQvHRUOU5SSiGhaqF7FAYQOHBMMEwu2JOfE+WXaR8LgBAXE3gKKf/Y/2UBgj73AQGCjKIPAyJfCEBQ9yfwHhoTd+fjts+i+yBXaWBWmNZGdhqUMQkiplGARe7FoNGLAtNJJkX+MUg1etaJ/JzcW2JaqN5Bf7GFBx+bhZlPzkUkHsOpj47g8Pt7kOu3MHP1LEx/Yh4O/3knzuw9hURVMcoaqjj4t+dGB/pvdyMSM9G4bArmP7+Uhf+WX36IT/depgQv5IocPP2Tp1EzvQEtTXc4MO/2xRsoqShD3ZjRuHv1FtrvtGH0jLF47IfPcMT39t9txJXdFxhsUIpg5djhcIpMRNottF6m/hQOYg1FePpnLyJWEcflnWdx8LXtyPVkgeI4KzsCCNbdXrz/iz+ju6mD17s3kcXK7zyFxoUTWDgfWbcfJz8+DCcWBAibcOPwZeSiFoOWhsUPoP1mG3a8+gl6r3cy61JcV4pFLz6M2ol16L7Rha0vr0cnW4N+RBwKEMpjyHRk0N8mgtUipVHEElEcensXLm47wy2yKRUzZ2Yxck4jln3nMURTUZzcdBjH3zsMs9dBLmpj/MrJWPDlhxGNx7Dj15tweftZ7spoVCfwxI+fRfXEWtw924y9f9iKrpttQCqCGU/NZVfCtj98jL7mHo5/qJ8zDku/vVIAhI+P4PjbBxDJGrDMNEavmIJFLz7CsS+kEM9sO4F4Ior6MaPQ05lDX18PnvmrtSgZV4muG514+7+/CuNeDlFEkTMyqJszGiu/9wzMZATnNp/A3je3cwrt8GkNWPTNlSgdWY6mPRex9ffrYXc7yJoWJiyciBXfWc2dGve+sR0Xt5/hjBazxMSCry7jVNae1h5se2UDWk42c5nseGMxnvzRcygbXombhy5h88vvw8jEYUUcTHt0Jua8sBR2JoeT7xzAiU1HQAkiS156BGOXTUJ7Syc2/fI9ZO9k+D4kapNY8e3HUdZYiZZzd7D337eh/fodmMOSePqnz6N0dCUu7T2Pzb/dgHgayJkZTFw8GYu/9SiMqIkzG4/hyLt7Ee1xuKPq4u8+ymeu9cZdfPTf3oF9jxx3gs10axQNDRuI86KVWr5fBoFYmgyJmDeomyPXQdABgnic5zN2E/Y9K4WpSh3VCF+WKgjEMuh+AYKrrpTSEHUV6MdlEHhgukWnAIIXFOBdPTeJTdji0gWhKl65PnyyjihYRja5cMkBdwFUkKG3zIoO92j+AXauEEBwvUp+hR+MQXAD6fI+LyS9GGZ4LwY/0REMC84HCHp+rJiRYnM0SkoxCGxVq+JUwVzi0Jop+jmVTI/3XPd1+uEbpNTyoPelIIPgnzudDaL0qQ6CZ0l77IcePOgDUAVdDGo/FAwRe+wVSgpSJvIc+1IjSTDIDEGp4NVplwHbolceAwS53i5A8FwM4vx4Lc8LMwgeiBACQNZ/4CwAA5moheHT67H4GytRMrwUHRfvYfNv1qO3ux+Pf/dxpKrLsPlX76GjqY2LJ1E74VRlKaqHVTO9XFpdgbJxNRgxdSTf6x0vb0TTznMUiQa72MFTP3kGVTMacPfSLex+ZSO6m9pEWiLbHyKwk6jv1QwQHBcgRKlfBQVARh3YKWB4TQ1qhtWitLoUqboijJ07CUYyhmv7LmL/H7Yi150GSmIcgzB+ySTk7vbiw399B91NPQwQ0sigccVkLPnqCkQTEVz65Dz2/mkTu/Yeem4hpjw+GzmOQdiE64cuIV4Zx5f/j28gMaYU6bY+tJy/BbvHQo7wWwKoHF3JFm+6NYO9r+3A3fPN3I5Y56SEx4cUOjB+4WTMeXEx4uUxXNl/EYc27Oc0x/KGKix6ajmObTqIi9tPI5YTAMEyshg5eywe/u6jHHB3YuMRnHz3ECL9BivSUYvGYcnXHuGgxz2vbMO5zcfZJZWLA7OfmIfpa+ci09WHQ6/vxsX9Z5EaUYJlL63G7au3cOyjffwcy7QxctZYLP7mI0hWpBgwHX97PyI5Cs7MYvSKyVj04gru57P5Nx/g+p6riFLhMTMH24yi/IE6PP3jZxArj6H56HWs/+V7MLuJsInAMXIoHluKJ3/6PBLDitF2+g7W/9u7cDozzCjN/8ZyDs5t2n0R23+/AWaviYyTw/DpI/HYT5/lOLJ9b+3AxS2nELGiHkBYNBG9bT3Y/usNuHeime+SWRfHE3/9HCrG1OLmwcvY+dsNsHoBK+pgwrIpWPTSMg42Pfn2AV5HoyyJNX/9LKomVnPwYvPJJjiZCKhlWiQOdneZpTH0fNqB/W/sQNvFO4jUFuHpv/kySsZU4Mq+C9j+m43siiOAUD9zNJb/8ElEi+M4u+kEjqzbiygFoBZHsfDbK9G4cDxab9zD+v+2DvbdjKuHOcDVbdkdkJmBa6u+JACCSpX05E0w205qbp+LgYJmOy0qlPTzN5xsSxt3c+RkHa1Zk0+E5TEIqu+CCDYTxX78DZ6C1qkLGEJLLXuAQrfUfEFdUvgJQ1tdL1dkuhrJ+75Mr9KBClteAcFPAEGVJnYt3oBq9QXD6Rs0kAUsVcnnAghBdeQ/HMKCFRpVxSCwspD1FvyzUM/iT8jwumD1QVX0KqB63dd6aycCO0Na3g6qteX7gzpSP+gKnH1egKBoc+l7Z1DIQYr+PhQeQFC0u3d6fVG/gWyVggwC95PnfAIfiyLS3TzmRaVmKRZG6EIPLOQvpdo79RuvsJZ+v6gssOticDMl3Csqg3dVsGv4+4QgkZkv1JqZ9qIqieXffRR10+qR7Uhj/2s70N3Zh5XffwzNZ66zxRnrj8FMRjFpwYOom9GIVEkKXbfbcLWpCWUNlXhwyQz28e94eROu7TjLrW2dYgdP/vRZVBNAuEAA4RP0XG93C9Fwmp1joX7GGKz80dOgVATFIMTIDk3EMOKBkRgzfxLKh1ewz/l60zV0pDvw8NOPsEC+ygBhG3I9aTjFESx8iQDCZGTvEEBYh56mbq6DYFsZDF80Gsu/RRZ5DBc3n8GeVzdwJPpDzy12AcKOVzbh0yNXUTS8BM/83VcRH57A3abbOLPjKLJdWeS4RXFO/g8w0hG0X2mF1ZFhIOK72TI4SAAEClJcgnh5HJc2n8Gu1zcDaQup6mIsWrMcF06ex40TV5l2pvNFhbTqZzdiKQOEGE5uOoqT6w7ATEMAhIXjsOTrKxErjmP377bi/CcnODWU6kFUT6jFoz9di3hZApc3n8X2P2/C+DkTMX3ZHOx7bydunb6OuBVBLmKjflYjFn1rJRIEEMjF8PY+Bgik4AWDsJwBwpaXP8LNPddEuXcjCztioGpGI9b84AlEiiK4fvAKNvz6A8T7KIuFUFQOyfoUnvqbF5CqL0fPlQ5OO7Xb+1E3ZRTmfWMZiolB8AGELIZNH4nH/2atAAhv7sDFrRSXEYFZamLBSyvQuGgi+loFQLh7UgCE6Igk1vxkLcobazgeZfuv1sPJADkGCJMFQICDE28fwPGNR2BWpvDkz76MqsZy3L1+G4c37gM1KYjQnTId2KboTWH35NB+9R6s9gziI0rxxE+eQ+loAgjnseM3GxDpIQYhKwDCD55EpDSOcxtP4ci6PcyUoCgfIFh3iUEQdRb4/+mMhAV2BwGCPFseQPCypnS3vrL28wACGUqGjXtUKOm1n7/u5FpEu+chA4SAgleeEZXH7I/wDlwEjdLOy2IYJD9dBxxDAwhCmPqYjIIAQTU20W6uFkSYZ0EW2qgw5fi5XAx+gBCW8R0ECGypSoAQrquVkvGsaHd+0lLN2zV38b0qbF68AZuxg8IC9wNDXrvBXQyDvVQVaRGgUtY5CQAEBQDc8tSMtOSEVYXIAmmO9wsQ3MBOUXVFrpt3svVzpp9bb56fESB4qTRCLvC87g8g0HcyEQcTH5mKhc8vZ5r//NaTHDD4wMKp+PhXf8bdUzeQjCUw6/GFGLtyGjMJFLB3Ye8ZZHv6MXHpg1j64kqYccMDCCT+iuAChDsXbnGVQj9AEKlv9TNG4ZG/egaIWZ6LwTDQMHUM5r6wFKUjK3H9xGXs/mAHum+1cfDZV/6v77GLgQDCvj9sh9XTzwBhwUuUxSAAwkf/ug7dTZ2i4qOTQ8PD47Hk66tgRqI4um4fjr63h1P8Zq9dxDEIxCAQQLhx6DIS1Sl8+f/8JuINSdy6cBNbX1mPvuYuOAblS5BgJyuaVHkMESvCRa2CNiCxQPRTGCCIfifRZJxrgiTiCWaj+rvIyrSYQVj63dUMEE5tOoYT6/bnA4SSOHa/sgXnGCDIoO5iYMV3HseoOePRe6MTH726Do88thJd6T7s/fN2ZFsIzBiwI1lmEIIAgWIjyKHuAYQItrz8IW7ubUKE2Z8Ms1w1D47C4z9+FmZpBDcOXcOmX72HqAYQikcV46m/exHxYcVoP9+Cj/7ft4GOzOAA4WdrWb4LBuF+AcJVbP/Vx0DWYAA0XgMIR98RACFWnsQTP/kSqidU4vZ5EZiba6X0zqhXDpuNAdrTGCI5G8WjK7D6h0+hZHQFrg4AEM5KgBDRAcICikFowUf/VbkYhggQQgThgAAhkMWgBylalOZr2GgRAOE1J3evHU42NzBAkNa7T0kHKsUx0tG7Od6niyGohPkSaQVsfMJzAAZBsnV54ID/nZtqBBCV7mLwquHIJQ+xrnxNdgZQUZrn4LMHKSpbX8FECRG06MuhAgQPBEgNocUgBBVTXoGdQQCCKleqRjkgXFAAISgl9aUcIoMQqkT1lswDuhg89kTEIAi/SIqU2AAAIABJREFUvVgLocD12ArvaHizCwMIYqlUuixzAu7M7h8gKGijHvEZAIKskapX2xgKQBBvFPFAyu1lOQ4SI4uw9r+8hPiwFLrudLAfufNeOz745zeQSJuoGlWJFT96hq3B5rM3seWVjUjf7kPEcDBh+VQs/OqKcIDwN8+ienoD7gcgXN1zAYmiGOasXYIJy6bBMjKs7O+cuImUE0V8ZBJr/+HbiFYkJUDYJgFC1AUIVP9AMAjtzIiRVTjjS/Mw/bG5yHVlme7uOHsHdsLE7LUUpDjLBQjEIOSSNp744VqMmD0avXe6sfV3G3CPKhxyhUcWOqKVdCwCWr+oGYWTE+4bdQUGAwhGWvGmBldTnP/kMlTVlGH97z5Aprf/vgDC+U9OstInep+s2tFLJmDp11ZzdP35o2cxprERJzYdxPntZ2BmyWwkSznDDMLCb60SDIJ0MZg5mkEWowk0fmU5l/wmgPCpBhAoFCY1phJrfvQMiurL0XW5He//85uwOnJcC8OhXiPT6vDoX6+FmYrg8u4z2PnHTxDPRFA3dTTmff3hggzCYz9byzonHyAsR+OiSYMwCEGAMAmLXlrODMKRdQdwasMRBsHLv/M4xswdh2xHBjte+Qg3T16HaUc59oHWxkKWuuOBa5HnckjVlzJLUTJqqADBglMcY/DVOH887l2/i/X/fR2ce1kOzB+QQSgkQ91ujgTPQhgEjY2nI0quPJXF4AcI//Cak73XBuQ4qUFU61Wmliaw9R6Hrt4LAQiFLKDQAK9AkOJfBiD4FXheSh7HJVAMguqZ7u+DIMtF+QrY8BMZgQd7Jvg5DqXjOC1RKo38Ogg6YxGexaLZl0KgKOAlqWhVAli5GAZnEIRbyBuX17RKPN7LDQ2WXxVWr1hTnUG4f4Dgj1EJwiy35sSQ2j3ngzTfeZMpl3y+dKXvtn4SY6HLSD67AQFCIN1C7I2K7ZCAVhwQaaXLP8shFgYIfkDibbOKAxCLTtkK7NZx66EM7mLQWRQF4IYOEJQEEueU7komkcXyb6zC2GUPcl0DZIADb2/F6Q3HEbUiqJo4DI/88AkkyZ988S72vL4DHddb2PqduHIaZqyZCzNqYPvLG9nFwP0mihw8+bPnUDNNAATyDffe6OB7xvvCSsrByGmjsPpHT8OJWuyPvrzrPIrKijDvhWUYv3gy9wXY96ctuLjvAiurygeqseoHzzCle3XfBez7/RZY3RnYpTFWBuMXT0L2bg8+/MXb6LreDiMawfAJDRzAmKpK4dzuM5zOF++maHsHs9fOw4MKIPx2I24cuYxsxELjgol4+KVVXESn+WgTjny8Bx0327g0NbkmyqorUVs3DM1Nzei4285R8DobSACBVjgbcTBh0UTMfWkpYqUJXNhyCjtf38RsgCrYlKwpwuJvrkZpRTHe/69vI9vRh/o5Y7Hse48JF8NGcjHsRyRtIk3xAYuIDREuhu2/+wQXPzmFOBV/MqKwnSzio4qx6vtPonr8cGQzFvputmPzKx+i61oXIjZ9xmYGoYEYhG9LgLD+MI69vQ9mhkpEZNH4yINY9MIKRGHik19/iJt7rlB1CsCwuB4HV9mkFNEVM2GmI9jz75tx6fAFLgJEKYzzvrQEk1ZNQ097F/a9tRU3919GFDEMnzYa87++DCV1wsWw9XfrEe2NIEPVRaePYBcDAYS9b23ntYpkTUTKyMWwHGMXT0ZfSw+2/WYD7p5oZrdOZEQCa35CMQg1zP5s/dXHMDMmMwgTlk3Coq8uBxUnPrpuP06vPwrHznGw44IvL0eyrBh3T9/AwQ/3ouNGK6yMBTMW4UyRyuoqtH56D90tnTBrk3j2Zy8wQLi89xx2/HYDYr0UD5JD3cxReOT7TyFaGsOZjRSDsA9mvwNQkCIDhAnoae3Gjt9sQsuF2zAouIaKMFEMDgcdawaCZKbzpZ9gSvUYBL12jesy1QwpHSCIuB9iEDIw3viH153MvVYGCL4kikCU7ecHCGoamvX1FwUImuWv5qLepwMbBRAGqoMQFsWeV8PAU6y6falq6YWVWs4r5Rw0FpVS0dwyumJWxVZUxcv7AgiBZxdmENS+6eDncwIE90TrNlR4bjiBmMHqIIRfkHwOQ83Ac22pWvsKIIg0x8IAofAz9TG4oL6Ay4wDS30uBqW2g5UUJRPBN5NiAYRwYJ8nRSlLy95fuEr4UXwxCOr72p4PHSD4V5fGnSW6+aEGrPqrtTCLTaTv9OHj/7kOHZfaOJgxWVeMFd9eg+opw2D3Z3H3XDO6brRx9cPikaWoeWA4W6unPjyCC9tPclXCxLAiLP/mGpSNrUR7cxsHb1F+eycpUwp2i5pIVJejcVYj5j23EDBtnNp4CBd2nUVPdxoPLp+J6Y/PQrQ4iq6b7bh9+haDqVhpBPUzG2GmYuz+OP7OPrRcFSmLi762kps/ZbvSOPjuHuQ6+1E1ogb108aiuKoEl46fx7FPDqP/Ti+PoWRkOWaumY/GBeM4R/3E+/sYdPS09QLFUcx6Zj4mLnmQUwLbbt5D+7UW2N1ZRJIxlA0vR8KJYde7W3D38h2RvqYLe8rYIiBRX40JCydg3PKpiKRi+PTUNZzfdRxGhkBolCsXFtcUY8KK6Vy/4P3/523EEMP4RVPw0DPzuDATuVJOfXgQfbe6OIDugRXTOfuEAhiPf3QEF7adQvpuNysf6m8RKYlh7nOLMH7ZVG6jfXLDQRz9YD/X2RAWvoNUVQnGz5uAB5+ag1h5Alf2n8eJ9w+g9243kpUpPLBiGqaS8kcEhz7YhRt7LyDblkOGuk06NqyIjdJxlZjz1GKuM0G1CY5tPMSZASMnjMS0NQ9xBsTZncdwastRZFr6UVFZifp5Y/Hgk7ORqilBy8nb2PHqJs6qMItiGL1wAua+sIjlw+mtx3F+80n0t/Wgor4cs9YuRN300Ui39+Pwu/vQtO8iB3pWTBmGJS+t5CJQd89/yrU0+pr7EC2OYOoj0zD1iVkca3N++2kOIuz6tA2RigRmPjGP6xvEqPDVjVa0XW1FrivNtQ5Kh5fB6LNx4KNd6LzXjYoJtVj20koka4tx+/QN7HptM/qbu4FUDGMXTca8tYsQSUXQtP8yTnx4FF032mEnMhw0Sy44cv3du3iH32F1ZXHt2AV03LjHrhpfHQQ2PPNlkvoX1RjQNVEoVlC5VwdiEEyKQXDQTg0c3/yH1530vRbu7R0ECL5XD8HFIM3KQKU9IWBC6dnPCxBYoUog4Jlc8n0eQAhDT75/4yDFAQolhQCEvJgERnP+lsnKElfkICnyz8cg+BWzKqUo6giIFNRgu+cw5RlUZjy+IGjSAuXCEKcOVERKo1ZhMQBogmMQ66KqLXq/9bEj8tBQx7L/HQFCcE1dmCUDANyCXl5/W59LQx1nD2CqRY2K8Ecqhyqpa5XC6LpbwgCCrKLpipghxCCEAi+b0i4toNLAk99/DsXDynD9zDXseWsb0C1KEiNmYNj0Bsx8Yi7n/ztpCy1Nt3D++DmOSZjz8FzEyouQ68jh3rlm3LzShIkzJ6N0TA2QtGDkLGRbM+hq6sbWdzfDIPdncRHmrlqKmsmViFbGeP5OZ5qL/2ynrpJFUcx4dC4mzBrLLoKu5k5cO3kNVy5exOLVi1EyvBJm2oTV3I+dH2xGW1sL5j2xmC1vaphMvQUsK4dcLoeutm7cPHcJt07fQKY1wwG/FMuw+KmHUTamBg7XqrLhtFm4feI6Dm/ej0xfH5I1STTOfQCjZ01AVd1wRCMxZPv72SpuvtyMmyevofXCbaAvJ2lar/CNYViIlccxb+1yVI6t5HRNUCO5vgycviy3eSbql0pbR6MRGKk42m634JM/rMfUB6djwvwpSFRR6WSLo/LJxXJw816MfXACpiybCaOCAgJtWO022i+04NjG/ejp6uG4DificMGkhx6dz10EP3ntY3RfaUNEpozbyRhmLlmACbMbYVZRMScLdo+NtsttOHvwDKbPmY6y0RUwy6lplAW7K430zR4c234Cty59yimVpPSyMRslDZV4YOFk1E9qQArFyOayMGIWOjt7cPHQKXx6/AqcTnLJGJixZBbGz5/M6ZhUcpmqPd48fhVHtx9G/fjRePDhGTBqYsILRuO52IxTB49jxoIZqBhfC4fKSedM9N3uwtFNe7nE98KnH0aqrhhOzAH6bHRcaceBzQcxvGE4pi2dAbM2Bpu6KnZm0HruNva9v5PLRkdrkmiY3YAHZk9EeW0F4tEE7LSNzrYO3L52E9ePXkPb1btomNKIqQ/PYMBLSpbqlLRdvoO963ehckQtZqyYi9IRZeyWcLqz6Ljcjl3vb0V/Tyeqp9Vhxoo5GD6qnlkMKvh190Izzu08wWCP+p34YtAGKZWfDxBU50oZiF2AQaC0asrAkQDhDSd9754PIIQWnpHW7UAxCHkAQco01yJz6/x6ik6lXIQJVPod0UduRH6I5f9FAgQvejwf0IS5Pwb0swek69AYBNkYK++7gcRHVWuAgYGABKI16BcPEPyKzd9v4TO7GNRDtTLIjIxlRUN3+jy3gQGCDlQEpii8K/9RDIK7ZiFAyXMxiKAzeRPkf/0MAp99158n3BeiFbsHZqkTqTIiBgIIwt8h3RSSpQwLUsxjIwJnUZZFg2VmYCVsWCS4c0AqTayIqMvAfQtMi3O7iypLRD+Czm6uCkcdRe2YCSMWQZxyBnI2tzQmK9WibqNUeICUDJ1oJ4ZoLoKIRT0KRAqgY5IdJUZBlDH5go2caOSUSzpIVSZgRuPoae/hegd076KxCDMWxLnE7QhM8v/bNuwokKHUSGo4xU2xbGQp/TDnIJpzuMeCUG4OrCjYLRKJU4yC6AnBD8jacPqzoGE5JgW7AUYqilRFCWKpGNL93eijkrm9BmLpKPeBoDl47IHYE/LU2KaFbMKGE6WJmcgaEUSpmymfadEnkD5NjacoNtC0HVAMgGNGuN4BZUwIQBlB3Irx70h5ZmJUsoly98HpjQbVzc463KeC1p3Wjix8mg6tQyRjcpdOUnDEsXEz4qgJO2LBMbOUdIKoGUOU2mxb1AdCZEuQy5XmQevG7ARR8BnaS6rgSm4i0UI8F8khWhRDSVkpnIiNnp4OZPosRDM2EhZxEBFYZoTfZ9O8oiZikZhYpywdD4c9vLkInRnRhIvWJEYUvDRWSMHReTLpTOZsPmcEX+y4yQCSGChiR6gTJsWD0PNo/pT/T/eJPhKhM5CmNTCRRQ6ZaI7XubSyFIlYCtm0hb7uHhjpLGLU1ZRqUkTFWSHgxfwouZIo3oP3SbwjFqNDYsOhs5YxuNYGnTEqUEVVLIuLizljh/ppIENjN0XHUBYZWtBBSC8G/bq6AEHFVDGDIIKTldxU9125GKjdM9VasWMG7vX2DcwgqKIrmo0uD6D0hGiR8mG0ql8gK7QwsIshKOTzg8d0ZoA/LSarTC4lagMWsL4gedayClLktqUqXVA9Op+J8IT6AMooQC+HAgR3s3XfwgDUeGCOqmSkZ0FqlPSAWQzeMQoqzeDBCQMI+nd4B+Sl9MBKeGHEPNZFXHlR3lpF2QcUEt2Kwbo56oGK/9kAwQVNsn9DcDddgOALhmVtI+IgAmmOJrfyzXHJXCojHCmOs8jmE58zcOPURfTe7nZ7lvDyhTAIXt96VS8hPIthcIAgrF5iL0iKUgobWaZxy6FQLY6PIIHKjYWoliBZ2hTBT0FQRKs7oqkRKxJWerRCgiolxaYCOrnPlNd3RkxL1mPgPzG9Kpo9CdljiyYz/DmtKZmsPqeoWK/zBb03wkKdxkMD4voopHQ5+MyroSJhlRgDN1aT2T8EHmjsDj1FgDf+jawuS5a5UK+0+lGYVoSbwjGkd5GflC+y5S917hQ4TrSgEuMWo3FXSco2sVrinUSLi9LhYqV4raULg5th8TjF+ijnFK8aKSotCFXEOYiur5zWSk8noM5uLWXA0LNohDQX0aCIxip+LYr60N4SlCPFLXaHnimyN3ikhCXpHXxKRBaAgHAqs4rAIsXXEMijIohxAVT+P/LerNey7DgTW+ecezNryMoqUixOahs22hLVL4aNhmG32EBbkp/9ZMCADduSH21LVpMU1T/DDy3ADUGkRrIGUlbDogFZgxvwiyXKasBGt7s1lEiRrOJQVZk15HTvPecYKyK+iC/WWnuffe69maLbKZHMvPecvdcQK+KLL4ZlTlEFBvrkGmjDPSP62TpvLWLGGuzKWhKydSe0aNBa1vsBjdwecUpkfjDItdeEnrrzilAqaKvgsc5SbiqtIK7KX92HyBFAMyyVVP0j1ZFYbxmCgtM6Ldw2qmuta48vKVBtlOMSgGDN0lTdBEBIOtNOXU1SVICwL9vTTfneg/tl9erPvbI/+14TYujKGEFBq+8Cc1Zf4r0bYKhnExdx6LLR7aPbsRDRWKZpbIPkMIrBjAwQL4Tqzv7GPE1SNKVi6Ao5xioWSKizOyA8dqgHr/0DsJL6OUAFcn16AxAAshwuUDIi/wyJltgI2JpRHwQeW1qLdDAsw4T79HMlQJogoE6fpMgAAbV0QKv+CGGRMFO4svZbKpWMtZjPQYi9sbPUGeZ4UgeGqD+AAtFlOQgsrwxMuV8CM2P9HkRzKTlRshdjgCDu2uqivPhDHy3/wX/+4+XZjz0fj3tQyu//ym+XN/6pXhjka9ECBIs96rtw8dRhgOCfJSbQ/CJR/HKazSMRr9au6I1m0Cu5Oa8amhr7xM+r6agAAfkUamQ5+db2zIyeAoUKROJ2WbntzwwAKoTqp6Q+XTgINZg4N24uRdFD+KtxMehQla10vNamULJK8igYcGNtTHbdIRJ51s9AG0hDHnmGtqqu79Owmq2Bx39Zd2AkOmL978iRcbqprqVZCu2woWcokXGm41TfhWUCeIDaUQNsvWtkD7SSx424md58gvR59Wdi9KR/j2tJNcEG2rwxrgc+U1qmGkYYfZlG/TYuqkD4RWd4sjlRsIk+JDL2OgCY8TiVPmffP3uubKm261cmThlYBU9VLSmwVSBqe2pgDeno9RIpeatfM23gpCZy2mddNkx2eEdlmsgBl2dAarDqlWmQe7p9H5w3aExN1GDFnhiNLE/ly5oWA4Tnny/nFfCdnpTvPrxfGyW9sj9vAEIbs4fi0QhBDEtKGsWZweY0xjeFGAaGtG213FhaCKuozwY+yRubRMEhQNDBk32aAAj1elwIC8ZtBFvMn+bQVTHkwbegZ1GIAcDDXlOVqmoePQyj+nWf84IcBHivejD4NkjKQZCLoGaoelrz9rrnDBCAeOfuezCAELszBFzHMghp7b2kcqLnAxS+lzkeqmLAATfDQfLVshetDLgBh6FWdDELENQ72pYXf8Ruc/zY7aiafLAv/+svfaV8+4//stRugiynnuuiWkuNH523+u9DIYYW5CBU6Me9Gu1Km1ppaJyAMCl6bHFJFfb78B0gPBfdIs7voZV1g4EQStwbY4fHDZotEIWheIdqJ002yJgNjdXOTDrpdl4a1aXnS1SPGmFee3WsWJdMhRZtPP5R83q7U5Lv4WiBquoQ+LDYjwhHht7UMOWY/+tmKD9AWbvLvhvtqbHqXsq9OsI+moHEBXSanGR/ol9EzcivOSLtn8w+GliyXjdsq/C9kGG6nRd6X7r28lUB/i37S2vDWv2FtRt9zuwm8t1Ep2uDwWB+1KZxPpeU+Y+XfhhO1c+q7EEHyE7LMjchBuy0MF96WdMzz9+u2RFlf2NTvv3wQVm98tlX9+ffHeQgNEl3vrCMyutlTVu1XO1B4DmNqeWssHr4YJnlqim6ayv/egGCCoZsQ7N7UxT3dQAEODVCcaaKDN1pZxC8bXBWxMsAAik1W/s0JwIiek9GjT1bPN3zIVRIVVCNgbFnJVlPbg88CP0Ev/NogMDhnRmAIDJkNqIPZUGRwtuP2zwZQKntUiG4DoDAz5E9Frp+Wz78CQMIHzeAUE/8gyIA4Tv/59cEILAh6gACtsTDcdcDENjLjr3FtZl4KU73ZQECh14MCIBebXteWAxZjRAZwbAQY4Bgl8/BozYpbIzl6EZXBdS95QqA4OheXUlr6c3Aoy2Z1qc5g3AtAIGNGYc4OEFZffpJi4RJEgsIPeRg0vuOLAMIvm4Sp7T9GgKEk7Ld1iBW/sNgKHSOMgPzAEHDKLolFgaq+kxAYISafR+IKXKp7vRXOMo6Fttw1Q6mI+olh3RBHVgcO5ctQMigPgvayNZkgHBirZYPAATqg/DM7dvCIOxOT8p3Hj2wToqXYBDqQOQ2RwAEI/RSfN88f23J2//hyU8CBONjrsIgKJIPJZ7GSGWO18EgjLxGFSiLsnYtcHnmdoiHDAIf3HEDn0NJiosAQh2r8r9Do8elmfC4IuQRlG7cHjgBECZCGOlYmaE/BiB04z4EEOwgizxvqpdyeQahffdIFrAHvmbEIHTmdCFAAIPgISQOMRCDAD01YqLk3YNKluRjW7ITRb6k7I5bQ8OjA8+onmIPENrPDdRDAsF1HPU9IGV7Lxc3noJtiwZPSu/jUPVMhM7RGIROLtu+KC0aMA+YJqDriM/p73lt9c4Puklzgo184gBhISvKRllZRGNJwOrCOHr/l3Z3R553zyrVhFZ1Plbl5OQxAAQ7EBIGlYv7tJRYDS8BP+xlEwJN17yL3mSAEOHsAAtmCTSCkBgmBh1GriT9y46IwI2JHKdY6VXZbC4PEB6drsu37r1fVi/93Mv77fe0URJiHUtCDBJNq/WSDUBInRQJQ10aIKjmuhKDcF0AARujUDcSdlgA3MClJMWI682WOXqIQZGnC4ohWj5mcwxC/dyo1XIPECIhUxSvAV69V2MOICgi7ozdMQzCACCwSkXSYpXFgwDBZITXB9S29y4fdo0MZS/yvKmA9+JAoySKISIprHEh/fwMyNqDAMHj02awFzAIDhAop8X7ILjepbkChw5aLbdn/+oAgQ1qwyA091p0ZsTOUM5DYmeDtAoBQWUPWNEfCRASZgcAiCqQNM5BqZm8O0U6MqCvq9ABBE1Rz49GfoSMx3ZiaHQPhRiasTdjBjucdVoP2djJwm+XAATVFs2fJuQxbtUeYZFlAEHXSd61hEEYAARp2iWJDrQfDUAIPUXripQV+SXYAg6t2QpYWGHnFUXU5dAAFgMEBgNtqLzfoWQhZgECQDP2peZerE5PyjMv3C5nq325t96Xb773blm9/NlX97vvvV225zUD1LJMDW33HkXkIEjWqQME+7lU51Rjrt6uivQIGuhEJhkEGCpT/PVzGuckRwCCcChJESDlkgyC1Fs3iY1xku3QJrCQ52b/8rU4DBD4OMG3GfhL8OawxotyEOwiJgzbM4YhWFP8RxY8BUh76x1hHpueSdp3HKMmzDE05uFhqhIKaq6i+w4gYK7+Mf1+llfLgfBBjXIQ7AZQ+25KUpSSPchc9gBj/9E+DLusYPYqAKFtVb4kxKAAodYARpjG44++tGqcpdX4lQBCY+wIvI/Os7MaukP2nywTQZUmOOK5MHrBVcMg2G2ykYGfZbf12P0dDXBX7kCXbl09Vr4uviULBhrZdZx4oBGOgmL3k0XntU6nBwiuql28YkZYN/NskcSYcY+9ynSGzVPnHTF//VBN9oszo3YSkfBpfR3TD3bmIEBoq7naeEx3+ZmeSSd8TG40B6EPMYyMJOYcjlvPuEpComY8engcvXAQMeW9G4bShi33g3kIpiV2El17xUZadLLVF/nMMBORZzsKMfgZq47VyQEGgXPz6lhONuXZD7xQzta1pcmufOPduwYQ3rxTtrVrkpRsRCyVDxmkNqoYKkCoHpdl/1qIYcQgjDZxEiB4UNjeOHcXAynE1kC0Ju8yIQZuPpTXonn6oKtinvMxDEJ/QEdmW72USHJZ0ihJD4WFW6zHwBJIkOaCzH8HCLjfguTGwVt9+og6zJo3GYicji2ZzWOAEIwH3pH3qLmVcsQguNdp+S5cxVABQjUedm9HejZ5FO36JZByCQbhagBB0vBluyJBSXcPSUpQSouTFFtGowHLzFRdGSCkcwQWwKo74CSIbGk4AV3hDiXVSYhzGGLQtZkECFOKy75ksMUy8ZW1Y/qdFTjCDmLqa8+HNsTg76LL0CA/ohLMKAuDoFo43AfOw7abSlNeTE0+5DM3BRDmJky/E+9fx3kQILRZHBNsWzxdwQwbzbpDxwOE+mKMU06AGWQkZzNA0DVTgLBXB9cLXRE6qF9vgW19rK4rkjtl3JwQDDQOV1mSFPuwHMsh71UH5HgbmsR9PegAk9xqeSIHoQEI+81Kyhx3JyflwaaUb7x/p6xe+flX97s375aL2pTBa4rt4MygbamClUMLtkATO1jBuRkdZvFAcWUvjG/R08OkiDIu0bGNdko8DCrT7qoUGw8vJfaRwFhmaZuDwPH2FtUtOUps+OBpzDEIiNeO0X0TybI4p5d4TTAIySebAQjL52ddECXOTZnIlhXvYSrnS+NQ+TsGyjrRnKQs6/arctCGQOIxWjkWyAE9/KDz8GVLQnIPeoJBMKqrvl9sYb0/va5Tjd1LZnXPIIUCQ/kal24yUBozP+LJi6FVtaDLoev0WAACvENWZpeuYmji6dwLpalK0umFYdJ54mr40QnKDIKe4VrDDq9SFbeFiDuAMPK8ZE2r4kc9duPRsmLuGARL2MsgMOuboJPBYMWUjwMIOXHQVspTwrn4MAqNMfoMEKRETuLhAEZhNEzrKu9I5ZBL9Bk+g7tf6jOWAARO4h3pGejpkJUeIFRds9v1VQzT486sC5fSqpPUAITaqcGqxoRFQu6O5xb0AEHfnatDkLCdbZHzTHLMpfzQyulhp6YAgtuxGRua1wD6+RIAYb0qT79wu5TTk3J2si7ffP+dsnr151/db9+8KwyCK/dBiAHmyQ+LlExURboMIIzokGGIgRgE1S9xyx4vRMTMe4CQP5dTpMBKB/NqlzUNyhxHQVSbAAAgAElEQVRbgOBzaDJ1p94XPz/MIKgale4hvcxTbD+Pe4ZBaEupSJihsr3hS/PGMVtiHyIGAWWYMHZMCzq4beaTwwBcUmTI3gxAnAcFIpI8iLzkDiBQwpdrMcQi7QcLGQTt2xAlc7rebfmuraDSbR4Q6WTrcTAItcxR8FBUMUSIYYJBcPrYPG/TnZcrc1wAECaUmS4tVTyRJ4z6bUqjsHhyMAigjqcAAvRFGDKi0Y9gEPz7nKgG8U9eW479ZzjIyZAAD/p5qe3h57TJgQTkZAYGrOC1670cBihE6HgcMwyCPywSnkOnZZA7MrzQ/VqepwM7BBBg+MalHvqWCHtZoqkzkBHMU4CgPQiW/QFAst6fmbT0Bm1xeDVEJEe/2jRiMr3c3EB8aweEyZLQHTpvUPicGQT1YwjYNmHRJhzezpMdx0lmwcZdxUMua9rWtkd2Zivj3HRSlPU3HVb7L9QQQ7119P66lG++d7esvvwPvry/8BCD3eYInWobFTGdyhCYvEpZUByCVMsp3w/cHaDCmnIYcsXPee+g+6CUjcARxBXoE2VPStfp2yyenA5wb2xZiYehrBnMOhewCBwvFZDiC9micUXvXlJDTabCU7Q3WXZ59VJp1GRGYkQuHIkqDJHREcUaC06zQ1vnwW021VsYjDs7eCSP7DO1a2isAYcYoLGTR5LHZ6qgkXne+eynQTVoDsJaKVmzi0Ky4h9gALpcF0b2yIXBqocMQ//W5yldjmRd7VMnZZrqcpBHBolTRQvPmFkMZgiQU1F/Jl5K7Zpmsc9QgeEtq/LXtVEObFc+9EMfK3/nP/0Py62PPCc/lYz+h6vyT176nfKtP6mNkk4MQEkPwrKpc0EzoyBYKQ9OW+xCwUtSV1Nt1HrAfF7l2QbejVW18epZ6P+w/JmmdD2BT7sJctmu79FyWu23IJUzZuh0vMTixKGxvw3G0bCisifELIbhthOWAG5/hrJcY17aQE520M5kTgKuc3GoT+cY2kn3fm3dArN82UPtoxCVKOnTNQQQV++8Oh4qqP4G70RoM3AQgkXE+OLMCBBxTafv8RCTh57aJFKeZ/tsXyC3OCw3yD0JZnpJ/4zQKWEKQt7AVHIYA+80MdNmTCRjUTmDzoaoKUcpKwFvkn21iZAZ/W7Vw5KnZ46IqrFq29DzAkxoyK7uWVO0KY5af8q4ekYbJW0tXKN7p2cmKsvAIskKnazLsy+8UPanm/Je2ZW/EoDw81/aX7yVGYQ4rlbCQodQ5AzbicPWxELQ8FNlMtOwrdIZTJEqkgweePxRBcpAc5QXyztqyMMyUF1VjRSVrqsqT+GPZIyqKK32hJLkdHxcUz0yfLL1HWVHTovHC6vi3lYjBH5cLR0dkDxm/y0ZDYzJAYKDEhz2OLiZDWBh1b8fDi2wMo8DLYbbyoIUvJn1du8xG2iEAfJ+twqX34Xv63uqcdADpkaTwdB4DlPvV1kROTRBgjHXvdFegWj7KzXSCSAYKLV4uaxvqoQDeLU1EQpSWQk1RiFzMoB00BumArJRS6+e3pSnPvxcWd9UwCDG/WJd7n33nbK/VzsT1rav6j1WxXRSSzal81ydZKxFG4vW8Wsd+ChEF7pgjCbVQARUDWA0OnvecLaR+VbThRzgbMreW8lbADYViMpkqmy0xujQWaKkQvHs7BkwlmbcQ2ZJ+bWKK/JddSwiE6gSsv81707DSFTm0LCmHNd2k+5Tc+2qXSAFiNT/qrrLzhODGvlAk48jWxnp464jurr+sf7k9Zf936rDI7LFQCONw3THkCEdWDr5uMp6/aP5btLQOYWt2EkKp67dnBZYjIAe9gjdcnX/9HWavMo5CB4SJSsdZyvOe/xMn1UfA8faGyU5kAfgzeMPG6phz3DYzT6mj6vFUB2g+kxfrOs/us1Rt63eArbRHITTTXm37MrXa5JibbV88fbdspMQQ3Su0ngvaoshzDmmP5+QGIZvirKeikfxfLsQA/S6LXYg9HpTVcSuxgZJn8zoGt0A49AmlQjSxzOqA7ZNKJ92s+TkAEmi1v7C8iOgVSYOIj3LhSQ9H8anDnPBbY5cCmahgksBBLu7vu2kmMfYHsIR+p8DCCr8qGIQgGA5CN3tkUNKu3m2KGQ78NIQJdfXaJhbc2rU29Nwj+d42CEDmldBQovq5l2I7yuf6HuNBlcKUHBwIQOG6lMvAry0NksyTGnj00NtzzB2I547uDUUisx1sbX2HfQ+4DOSziKMMHncAsqDvjKQPCXP2ZuKZ49AdzyDqxhUJqC4DXSlc6+KkLRi1rYDZaqAsLKIRrcmnNHOpQWeeCDVzQMg0H0L6izpuLo8rdkQAzoLcpIimCWUUyq9bdqN+CKX+Gy4RS5jXgEQcjx9XHqYlxMMlOSIGeOlLbWbnIoEXpo1HbCb+n1byNoHYXNSLgadFA8DhNbBwfh7BwJqJDMPlq9g3RnZOnR9EFwNAAzkMkcQrcogWC6VJUGr1JquSNsAiAhmhvcZ9pn3JOYLFtlXu96FYSEGBXMUHq3/tiqG3cm63Nlty1+9c2cGIKgGBBebzzIdUG+S4qaUhNIRWI7H+SIPFDszDFBUqrjRPTAOJBCYWpLIiQBzgSmEwhgpYc3wXK9OLLwQgq6w2Iy7KQ9/V4uEzdsL1iCSqfCM+jihfQxxd0SFWp/xHzAxtrGBls3QgfWyNR/1QeCeAOq5XoZBCAU9arUcscYFAMHa0fKhi/nHIUtVDBZP514NowXLfexB45kK9WQ6AyHm6TFA8Kxx7+iP8+ALTUoWOQvBFisYgLHSjfUQg/w9AAIarDjdxwbQQgzadb+mP8clPHJ7n1y2UzVKBTSKmuv/5TLHEConrmQpGtA2ARb4vCplbTJQO3ZKHlIwhcq2yIHstwX5K/K7RtGl8TBgsBtdrbmQP5SrKSYBogEJM1z5cLGBJIAt9LIdxGEbZZZreHMJUViyq+oO/RMMAsKVfQ4CrUnKQWgBAkwizketUMA9DgHA4Cy13ibGw/uTvOGwJuN8KJsRQAXnINhUU8UFTgDrq142LGxkYgofmGVEAYKWOfas6EiWwk7077N1sq/BXmiSYg295TUW4D0CCB4+MDzkBFM41B1Y9RADdBH3QQiA4CA4XFQ7MeO5qsHHeVabIPdXiK2x7xwACOvTE8lBeFR25d3VvnxNAMJnX9lvPcRADIJbVzABLepTdNR1UXMlc/0MQgiy68IGCetGsgBpzCULC0YG/a0AITJL/T0jgCAPQ89ynBZ6Q/JusLvRAQ4XaCjF3fRgnwAIebyMIJRBADJVr1LHMg0QTHE5QGj1eItQWJmberE5dgAhPWr0nOZdgzpiZTTinXWdhmWOoIN7M2SDhLbBOPoqBtyxpnFsMAi4K12vZJUVdWNEKDi0YZPJjM8Q0HQkGB5FXGIV/e9bgCDVOwIL+CY6gJE6L73Lz6+Alq3XtctljgbQXSFaMlaKjTS+2Cjbf1AFlACCJ2uFHPL2BGgbAYTpn8m11+g+yNBiMEZTu26Yw6BMyyOAnDJHuATI1rKjxJswQ/q9un6uq/22PQIIRvMiZKZihORkKHIdq59n0znwqsOAKrBB4mfMPecg9NQ7gxEkzcGU010IbYLxYO2XJCnGURnfOaGOqDfOib0zhq7Ob7P+Vw0gGHglx5MZhM5RdpDLdpioBvdMAYpraehp2V7UJMVIvJ5jENY3TsszLzxfHmzPy/31qvzFe3fK6suf/dJ+e+edcv7gQRdiQGLWiK6HNxQNHyKeN2IB2p/h4Lb6/TCDQAvUGNgOWYqzhzIyaEeN2YktNs9DAQKDHTssBhDApGiJnf2u8/QbAIVQGYdESHED2SfnJ4boy4LXje3gFEBQz67N+j0cToCS4MlhXj0ImgcIU5Y7zr/KNL3LjLToTMTORn0QOi9i5l0UVnGg5QyCxa7F29da8VTF0FynOh3jZq8yjHRA5Bif7kFmEBBr5f1xsOArxOixahU2KvY7OQ+aVIlOiqPzpcA41n3qbE6dY5wzhP8qKNfzZEzCgD9Q1wO9K3CL4AEZsV/nRknkV04CBDOVA0Az/ca4rMlLIluafNFwLRFMdHJ4dKGHrDx8Txn5I4BA/Q5U50RNf8gVlIuyCPyHw6ijYcvuE2AUR6/TafkHnCY3YhBkXDMVXpPLNxliQJ5YBQjrclFLna/rD3VyRLiOk2FHa5l+luYKeaM8GDC9jcNTgdB6AyDaVkfplmQ7lnXH6KzmJUHCZAUIJ2V7IVcv6UdmGITdelVOb94sN2/fUoCwWZXX3n27rH6zAoS775az+xUgaIKVPgxKZIJBsFgakiBYaVwXQAAdJ55Ud2OcDTMCRj31ZAAhl9hoG80EEFIfBOhOrAQUc3d6DohqJIfgCUz9KlXb5iDoWo/M8/hlUwBBu1xeD0DAm4OOxv5eCSDIY1vDGrMMGRp0UmwO0TzwCYPMwFDXX5WuMgjLAQKM/Jgm13AG9rGFjQEQog9CHLg8/+l58brBG8TPLg8Q2vchXADPuj3jDhDQi7/pgyA77IFd1S7K3tuYh6GBLOkASsKXTPQ1wTcC8MM7oyTEBYZF+pBYiEGfkPMKFjzCPoLcgDgzvnZlY1nsbOwol8jPhY3Awh06Nk1ADSYGzz8MEDpZIqbEq9G6/WjOp70f+6pOYnMXg3dthFwuWbVeD/AZUgYhAMIyR+fQe6mfhrzeriSXCqPe2YMcilQgwV30d/SCiXJItZ/+ndTa2qoYLIE4sd1ududtjYcfps6PDd/7x8iYLYw2kYNQ2z6cPPWU9EF4uLsoD9al/PndN8vqf/q5L+3P71YG4aEDhGy8xgChpUNb74y3Zw4Rtds4xyB0W34UgwBXDIlnBpgtC90zS8nz9/cpxPTqCj/DMzKogQ2FBlMAIQAZBHLkc7pr1mTv1pdfP0AYnI187wSt+XwOgi1O+0BnbVBrPMUgwL05DBBmVcFBBiEDhAqqRAFR4lhH/bdJcK0HZAphGYNgNCH1aWgNXp7fmK0IsHUEQBCvkXpRHKDvO4BQRZMNxAAg5Lkwm9cr4al9hKNwCCC03w+jPMyI6F6njZI4PNIn1vqobe3CoYrSVI1ZM4NAFSISnqxsJQAC6HV6FypksB+JQbgcQJg7I1P6mbvyKShQx2oWIMwxCLZmQz3e0Rea5Ai264kxCF7qHqMcrU9mS7AmjY2QhRJIEScrlTlmtmDOhvqjBuzc1N5qkqKCSoRxpkIMFSBsbt7UVstlV+6v9+UvFCC8uj+7+065ePDoKICAuukuSXEidimT6DLHe6S0FCAcbpQUVIvbKNssTmKUzccd3UCHyBg3b8dj1WTHD6NYXNelQqObP8gub0uBBuDRBUdPJsnD9QOENrdMpuwlfTgAuhDzVQw6zNF+xs/bHvGtqFcq+jBAGHlHdLwNpE3lIEwBhIiX9mA4Moo7RUEK4RBAUMWD/bQEWqp3FsOIs+0TugRAIMXs3s+Afk/ezAQb0K5F8iCPBAhc2z1UwjTGJQyCKlHqCNCAH6jqsUKtnt1GdZQrjAxizAkzudZcFQmdGKjQnbSuj0OAYFXxEv7TroCqx6LBlT7cung+YYAwrLVPZXzXAxAUgPMuDOyAGdVDAIHP/pRnzTrI5WwmxIAQE6j5qwCErh34JUMMo7MJ+RnJc11eTYi3PCqRq+kqhgpXNzdPy60PfrBs16XcW+3LaxUg/NZnXt0/vNN3UkTpj6l5q3OnkLF1hEKyzRIGoVWYKijhZSMLu52wIO4mxHAYIFCYJGAvUb+K6hQgWNMnp4+UyFPgFc0uvKwstdecwm/150QxmuKavawJVMPcI+3AqsBYPbMB1EhSHIcY9LEMN5Z4cerh4E4CTmXTBjPaToibzfDw58NNPbUIeYuxTgGEyDYfKQmMIeQYJbqI+/FqoOmP5m1gbV0+UpIid5wblDl2ACFLvY41ut0FwdLvhSTn2Y8VqNUzrg1VFJgQreXAUWUuyZkXoIHTUqDZAZ9BFQOPvmUQ6ns0SbHpozDwcvSs5xDD4wAIyewMAcIItum5QBMml9nBTY0ocMAmWAs1ag1AOQiSw6AbF2yGdYa1BNHOKNMEfKRDBoG8UuQnkNXFmcjnjw1xyNs8gxADGvVOmEtSVJGMcmKm6ZOKu2IOwtSOjtRoBgiRO1PHKTpswqnp9Jh8zvSXDYAdT6hZCTvwbbzOIJD9QWI7hRjmcg0AsHKhts2W1nJzgoo5KJEDAOHGaXnuQx8sF6tVea9sy5/dfausfuvnXt0/ePPtsjuvJSRxWZMbYEHELEymwmtzFA2LKWimxL9jchAQC0a8c0QGqhHXe8Gz4jetaT8cCzqa6pBidrG1DlYJIISnyUg+U7Hs+U1Z86bWWBfJqwtUubdZvU0ssvt9GFRdE2rugUiEiPgMQHDrMpVRnOcDLxd3EvCYnUGo47CqgjDWcWyHCF62bgQQeN10PcZVDMouzOUxiNo3hsj/7ve+R18E/I6BqJ5ZUuxIdmU7PuqD4CIKOcp7KqxArT1IVy3HWrEMV4W1tvdtJf67KvvNieww+jxudlqWpYYoAOnsnR864SsBBLCBAIYyhBGD4OzTcoDQOhu6ZjkHweVscG2464gEEJCQagFZspWzVQzN8V6C4b0FvQAEnQ0bj1QxNUMZk1RIjkzkIDRd9Q4CBD1ncTbjsiY+F2NNhoXKPXCw18cAhB4UhDbv3304xHCUq4PSUeip2nPAGWMtEcRdDG0OgusQtoMMENz+oPw36w3RJPAEGCBwcy523Q4m30auzNyeSatl6QzbX9YE59zNQbUatYrhA8+X83Upd9f78i/v3C2r36wMwltvl/0xAMEcl2MAQlqkxqBreYd66y1AEOUwdVmTPKdFwsgtYOHDMsBzw+/UwGQGYR4gAL1xyi+8u26zvNFOUJ9TirtPWASc5KeaknXmA53aMGeshbaOrh0b5XhzWMKXC7CXnj8RI8z9JsInWBJiwNM77wEFIU6x+ydT7LF+bwogxN5PNa/RZ3qCjhFWo1sAWc6svswBQsxB/0bQxzx5AjoTAAHKGcZum8DdBECot9hVA1iTtJ67WV74Gx8um6dviCJb1XU735fvfe2N8uCd9135qz1qqhgIaF5XiKE1wsxGJNaB7xe5BIMAA8b6I1HJBBBar5m9dpxXP6ud02O3CNaKjJT4HOcDP9b3zLBvBt5dWAgg1O/q2YyeLGMlD9lV3XUMQBBppNwQgGjVMfW5Y4AQAKJ9N8KkfffFYZIiwhKjromuspnN6FdA3zTOQWjHuSR0LeyVqEIrWzaAEOdZ247XZ6GNOI8Kzdkghwb7PK0fqjMcXZ1oP1ZzEjXZRVMDnE2yHx1M3h3kxNlgPScYdzEcCRBuPnerPFrtyp1NKX96952y+tJnXtmfvfl22V/UmNghBoFQpNDOyxkEaGpGbXGAxwChLrbQrNZqt2MIJpMUGXujHIwYBEdolU7Wm/twF7j0xYZRUb9lkBxYP9AYpZHOoDI5UIk9QGjCGE1tejZI0ZAnLgiJvIBFIQasGcc5Q7q7uTKDwMa+/n0EEDBegJJkOBJQsS6DXR4YMQg2xsswCPlgoiWtKTq5Q2SaQdBTC8BqoIAYhAihToUYVAmrSCiDAPFQGpNDDIzhc9JS/WYFCNv1qnzgb36k/Pv/yd8rz37kdpAm9/blD774O+U7//fXy4lwChi3xR9RKioAPLLmHTS2SYqXDTEcqGJwcHgJgIDvtgwCgEPLTjGQOBogdH0Q5kz39O9wNhcBhEBapiJDx14rg2B9BvRczDMIGWhZh9aJCpIRQPAbeb3V9GCtWv3ZfYS6Q85UMYzY6mTYHeyp1+3Xt+N+Cl11u+45AAI/AwyCFSx4FYOGoQPoOEuExKEhiFSAOO6kGADBQfAQivats0fSiMua3KWba5RkDMJTt2+V+/td+V65KK+9/35ZvWoAoSwCCBFK0Lj0kQDBZsEeQIQYxgwCrnrtrntGZcGIQUjNJ4CajwQIGpWUJhOdFy4yRQjYTnI44KAAuWJCf9bGhrM3QvXx5KcGlaaXrrjRvVSIwUILTSKUK1OuMnDaOF/Ri/27CkDQOVi2t73H/JYU0ppjEOZCDD1AQAtl6rnfyA6YqmUAQT1IBZNzDEJGjjquhQChhqQqQFitywf/1kfLj/4XP1ae++gL1htnX8r7pfzuL3+lvPHV18ppqaEHDV8ILJGLWoC+WK7ANimdAvDdGtwwruErs4xkGchXYicGgeR1aQ6Cy/uRSYpTDILuE0IM1JgkeV26dnVeCC9JA6JFGKH5VPVS6XppAYg0l8QgPBGAYAbF+4xchkFYGGKQVbTk6ZEH7V7GAdZPwmXhgU+VOSY2aYRDOEOdKH2/wOqKAMHSTk0nwxTn/gZpWCnEwLldwUyyIzzmqtokz3gDn4HaB6He5ngcQHiu3N9vy3fKeXnt/Xtl9aVPv7x/9NadwgAh9CYEX5Wh+jpo7YvWxnpTi05kuvEDTcGTNhKDgDAqt3/FAbUQQ0J1fmdcG2JoPDIbsStmiZejtMsObmUQpHkFalw1SXGSSpRXtlvXq5JIapwIMbTvEENDDUs84MnPHgAE0HHkAY46KepTAm7056l5PwE6JBypcdNfhLGLGGsY5iw7Yz2riN0eRjVCWAM1bB2DgHwLyxjraLz0Mh0HqPUko8RA1WdUwILbHCNBNaxIC2yxmnDpkcDmvTsJqIYdaAGCa0xfUze+guW2ZbfalB+oAOG//Ily6+PP+1ncv78vv18Bwh8pQPBQUm38xQCBSvdasAvP3PeT9iPWLPabGaH600NVDLI3zlDNJykOZYRujRTAM2A58tpy8irVonsydIThWrlxxcwxw/ZYx9chGK659AdKjYdnq2dKn61bhIuHQn4iDNiG4mI7riEHQTd5cYghOUFmFNrM/ukQg57hANC2Nq42D0Ev6AVd1ck+CKw/RgLkWaVsn1Qfu96R7F+72bTuliXdslx1979YAERCP/IdzcPykjXSOXlYmigoDQZT8rfZiIm8hOHZ0OBT/pWtb129zeZkcQ6CiMbpSXn6+dvlwX5bvl225V/KbY6ffnn/sAUImKd7k9Fb2veX7j6IJMV5gKCHxpA6o+qJHARR2ibUqTWpPSVgS1ZgbLzZG5GN5B7uqYoBrZaBlHuAkA69GxfSGIlVUEXhQjaoYuC8A6zNOLZpLVxtLToGAdd3HgAIKsmZQUBsVt7bJUVS4pnHytTA6VBg7KYAgiqjoQTLM7JwyxqIFkXsUS81GgOEqN9PB5nixzrGunbmsbeJtAkgWH26Xfc8DjEYa9BkxyeqUaYU8dM2Ut0zCFiDiEkHEKkj35VdWZcXf+Sj5e/8pAEEe+ju3rb8/ucrQPhaAxDaHIQcO8Z6tcY+eS6DhMOeQYgr31MoiSQ/GeGZEMNIAeLsQw8geWwE1EIeW8xpXqjJRTqR4Iz1YFglDk5g3wMB+sO0jeGxVo5bgMC6Sen6Gs6sPfJlzCG8OormyvSY6zUABKp0aUMzLVWPOWYKXUuCsdb1O+MkxQjPRbUZzoVNeEmIgUiGq/RBYFeFZTz0gwI6zkEIva2gahIg2B0onjDe6OL2fdJJceFlTS1AH56RUb6CkWTHAoR6F8PTtdVy2ZU3tuflX9RWy7UPwqN6m+PZmVClvpgsqHZBjgq0d/vXWIrdbIFb70b0CCsJ0f/yFKLdPGGkMaqPFSCAwtIcBKkZFXqR6uU5wcoOrx8c98TZpWhR8YEyR+A/VHt2z4QKMYOsEt2HGI4BCLMMgpsOl8UwCuGZ4ZfzSYpQnEcCBGJD1LDXsAyueh3XuGfjwCYZIO+aAQLX2psnEWEJAgiDbORjAUI1V7vVunz4Ex8JgAAde29b/uBzXynf+urXy+m+3h1h8kdJiqxk1OCGWfp+BwjY1xQ6aJISW0OnRhZGOZijgWQbeIzfoGxXvz4GCJ7sZmexV9oLAIIlEMdOTDEI1MTqGqoY4pwsqWLoATzfbAq90DMIaVbU3Tafy9Y5GK0j276WQRgDmpEJTS5Q18aYZavOpc7ar0j24xK3ZjJwcMfAvFCNevdAP49qLgehv6xpPKP46ZA9vTRAOJVGSRUgvL49K/9cWi1/5tX9WdcHAUrOq3zDYHioAR4XqCQ0nBl7dn4MgQHkpjQzdsYgqEMaggQFVj8X14nCRDNdCYWAdzvP0eUPTDMIqIHNAGFyw9v+6U3CCioynMEY9UHgPAPzxocMgnle+pErAoQuSRHZvcSONThH1yxkAgp4CUBokwGDpcgJPiHyXOaoq8c3E46al2QAGpnPkJRrZxC8uY16+H0OwvUxCGKqVqsACD/4vIvIvgKEz3+lvP5HXy+b/YbaGgeDMPIU4Zl/PwGEztMizcgMQpzsnNAZxq8HCGyymEHITFgwCOr0zFUZtI4A/3sJQAgjNBUeU2BXc6DgsV+RQViQpNiOBU28/OeLWi2DtdNcDi7vlC0dljbbZvPmVnZ3gkGYDymS4PB1xngF58SEO9wxCB2bJiR6lh7VNJEPoH0iepYxGfmFDEILgObOxxQsOpZB2JwqQLhfGYTdRfln77xZVl+uAOHu3bJ7eBbUsU2aTLVbD99DCTFoLb4m81wFIMDYNxV5TfwxsxNLAQKSFHUZlSoCkECjJKX95Gg3DIIDhM7zxkpMMQi2Hg6oBkmKdmgjGSedkDg1YN4hjzh4uLlyYQ6CH9Aq6J6kmAECJwYFqGOAoCi3/jkGIAQHklT8BECONa3rfyjEwHE4PqDHAYRxDgIGOJY9Y9S6JEUAhPYOdw7LgEGDcRmFGPT7tQ3qi5/4aPnkT/54uQWAsCpl934AhJMJgAB3uj4nAHkDNG0/rxJigDVQw+ZdUZprUGZyEFJALouFAISRk9AwNOENwmGI+nOmmUMuwrEQebY8gVDOowuMsgHSCbaAIZdKArxouXB9zwGA4IZtCUDA+zP7mpv+LExSRNKATbHNNUIfhpjP1F0MugAYYMQAACAASURBVB7uWHCi4ETaJ0cGoxrrcJLihAIxZd+3EmKnNISTqhjqefPk3pAPbbmSAYKefgYICxgEAwgeTV3zdc+WpzK4qXYKIMCFj3VQ/VrHxQBBcQuSQqgyL1BcWQtAqCGGffn2/qL883feKqtXPvPy/vzuu2X/8MwTHuzeMBP8MIQpJpKqGMYAYRrphZFIFOhE/WcoB7vzXuLl5imkemZmECzfrzm/OcYXoGEeILT5CCNDPiuqfmAOVTH0DAJyNtxcN6rUlK55+ei7jdsc4S22AsR5Gv3v5uYSc9dyHVEFgy+w4jr0mfbrzCJNAwRfEWaDTR6QPATlrcAPndOChUENtRgh6wqYSckYmyixYRKRXfSEcJvZC22IBHSnazAXYmBPWQJx1tltu96VF3/44+XvVoDw8dsyoAoahEH4XM1B+LrmIPiC9Lc5tjkCSxslwRiwUWB5aT3EOF+90dR1rf9RinvURTDrDIOV9igY7mNzEHgOs5Itk8kyPaGSUiLiYo/W5l/L7T0HYfIFkaulY4ZWFqjHWR70bzJgqRoJFDkAKocYTM68QejMWV7MIDBAaOUAO3Cod8myKobDWpePBSeLsmEwQE8NuTqNZI0B5RTTZU0tQACIcCCC8mjXkbisCQwLAwStiNJLn3QfRrLen5EmfGMAMwGETobyDCUHQxolvVAelX357v68/Nn7d8rqpU+/tN++814piUHAl3URmSbODALKHA8DBJ4oC3iXiNFk8of3AIVCPevlrORDoe+BRjFGgmS0fZ9sZLqLYRRiqAZgysjpWvn8VBsN5Vbj6bW7lR3QNimQhp6UMFUOqIWyOXtSpO5KIO+5ToptkiINdZCkqJPDnHIiowjqAKjpd+wA+lJkDyd9ZvKU61ynGAR8TVtHmGS6PFjdcx2jJVh23T7bKoYJgBDGdQIgjMocwfL4+oUS8pCHKA8skDIKYj69OqN6kKuyX12UF3/4I+VHf6omKb4g4ED+1CTFz/0v5Y0//MtyUk6GIQZfI0rOBWhcEmLgrem9mBpPjdvvwjuzW+6oZFDp4sMAgXYyGE1zfI67rCnq9/VIThmqfNKA56BCfM7JbuYuqZPiS6wN5F2BaO+lds8QtkFztdRW4LrnqQ6s+XwFm1J/3tbNRwtoXRvtQ6Nz7fuDoDULt1rGeMc5CLSmk+t+vQBhlIvSrmmSd0uShDGu80YOwjAZdhGD0IcY4BB4ZcvBMkcAtpwDM8UgQO+FfKO1c65i0LVgkJlXxwHCC8+Xs1Upd1e78ufv3y2rL3zqi/v9u+/3AEEkRjPAubHGMQABQ2ipS0304SRF8kEfA0Bo40IJfy8CCDMlj6GBrQy0AQhOF+YQg9gNUzruhR0ACH7WoOvMe4cTfxggUAMgN47hpWkCqYXViPNT+GeWzmOZplBq5zn8jhVxBxAGSV+u+KZUbH324RBDxDVDcWvnuQgvjRgE/r1e91wVt93mSF7aXxtAkAO9Ktv1trz4Qx8tn/zPfqw8W8scJZl4X/YPd+X3fu13yht//Fo5qU1QBkmKlwEI2bhkZZ9jo3F1LYywMwOQkwTcjgMIqjcUbwM4dWe3qVrR0bJMq3SO5tSChriFsX6jaeM9AAjuSQ6MYHaIdFQAg5VBaGnsaYBg43fEkgGCTh+rMsUgEEBIOInDWlij7Ln6uASw9JT9CCAsAWNqrFQJutqjdfTrnu1noyqGaaM5pU8ob6W5rEkqpw4wCIdDDIcAgjoY4yqGmiAZYXo+t3y22pmNGDes6cEcBHoYA4SLzaq8tyrltQoQfvVnf32/evdeWZ2dezMRETdrZHMVBuFYgKDvhScIY4X44+UZhKsDhEi8mRS9CUGPA3BNACEpI/UanPoW+68egwihlOw1Ch5IeCIHYQgQmCYjgIAQA2KNOXwDY4D3j7LC9TOiTEfMprElh3IQJgECxTsnAYLF5ZSp+j4DCAJySrlY78uzLzxTPvI3P1RWN2vHxFqxUPd9U77z/3y7PHz7rt36CObs8iEGunVoeBNnZh0WAASRV3i33+cAAeXWopHVcw+Gh0/SmEFgZT0CCCrrZiCas5nOqX1OGQQAnHGIYQQQ+nFQDoK9KEB9S7vHQXQwaCBkKUBgQDbdBtn6B9jZRwJ2GMbpEMPIrkxDgvybYISCwdB3j8scfTzXwSAY7lwCEDIQ7xNyR4BScwzirF0NIOzL195/t6x+9Wd+fV/efa9sLmrf/nxT3BB1IzrifRA04WE2STFFqcP9DUpyzCCACq2fw73WGFPU12bUjBCDGAS7GOfqAIEvOnGRyXs0AAjtJtcvhLEz5ZP6lYd/xH/Tv2cLGrTgCCBkxZ0G2jIHxmRAGS0FCPWZnAjFsWjsmzkIefeTlyCfGCZ5yZhtrAcBQkp8yh4jI3GsaSgJM1h6Q68lws3d5hjP5pDSdBXDVJIi4phI2lOWDoo1xR1phbarczPaNewgWQpls6uhBV5iHaNXfsAgLAwxJDOYeoZwT4zI9VEgmseuZ1Pdfj2vmf5WuRjnIMgaeFTLyr6OYBDAOuhato2SWhxqTIOdr/Vqo50Um7sTRiQFzgkbwDmPVn+n7zvEIEC3XTtA8M1tQwxgapIg9QBRA5kkkaMkxSwnh+5J0LXNssB7iLydIYOQNMsyiBB7FKwKmNfogzCg91uAgPCqxi/91t/O1vjnTH9Phhj6/kA8o8NsCZwDh09FWy3bZU2uTxWltCxPyyC8W/blL969W1a//t//xn7/zrtlbQAhKdSU6KK/cRGaaJTkfaZpdlnsguZeChAk4W67VYG1MU0DBFWc0nveKCOY1tH75GcTOQjeTtriczGlgbt7CCB0xu4AQEgtaqeycY32M/0bIYa4NbI7NkOAEPHOFiAkQfJ8AzVonghosYlRHsYICbOMwSiG0WjA4kwOwthLGysK0MECR5D9TmEQBQhK/YaCam9zPBYgDFJO6UyFDBNAIKWnBiJSJudUoLJIdRKq3J4kQBCjmgDIJQGCs1pmMiQ2XvdjeYhhBBBw46SaItNjYMWssqCGsgQgWF9+1xULchdaUDXapwQQVnohEPSp/kUVfIRoTE6vk0FIAKF1rPrUqcwWebSbGqrNA4RkLybyQBLQTnujTCiMWeqDkCAK5ZfM3OzpZhNhq6YjrBhISw6sN63yH9gITkDUzWLAFK3cxQJZdYLoTx7XNZQ5sqPTylrkY5UEEATH1OQlEbPDAOGdsi//ol73/IWf/cJ+W691vNhWYhqnp7sKtl1gzeauTYYYjc70oPaZLAEIkXwoLABaLbcAAbukJ4skXFajk3gGCKEsDNWjxIku1hl1FpxT0rO/s6oPgB3QjbphrrY6TBx8S/t00LVApuYxGcb3C67aJyaAYOaHyi0nuP54eVuaKfkkvYd46XVK2lYFGo2SrvrMSQbBPEbpcCc5CJa/IEIeCahZxmg0nKQoWnF6PTpWzkEKlBJ23I7iOPaSlsJNDQEExIZbDy6vIRL50qIfXGY2wuoQDJphUf6HPrBfk66KISXJhnwzQDg4OPlAPjXsoPTOStCy0SiJjOclvNRkXBK5o1VYawMIbDzyGLNHH1CidUwAHzNLoyA/AIcKMcvVKEQy0DQAfWnR40KwuqciZ9aaOK/t9E7145v6bFx0tt5sUvfJgYu2TDRcPug+A9PBuTRU3yDAoQJVl2GWLltXO+8O+BPVH8OS9eEyR9km3C6p8q4OTF8mC23QT7JZCeyz6M3KIETSqYfL6BJBPE/g2OmJ9EHYnqzL3f2u/LM7b5bVq596ef/o7t2yPr9YBhBAM5FXjcWT6Q26x7VKScFF/mnEu0xQjXrny5rywWvoWwcIoFr6GuYRrYLtzsoBhhPKPivtg0a020UVRlF00jtCFSpo2J5mzwpqvKYNQGhyIxX1GkhyBAuBZrGA5zlW4t1UEkBQQ/p4AYIi+9wf/Wr7EYqZWljLBUc1lFWZpzqvyBpPLEgColidRgGPri132lzVKPqHRLUHkuLa03JYFWaAoIYYXvP0t7GGrNYPvwvmV+8qMa/SvOEktQkgjAFTR5s2AAEAQj07VdajsF2vNGdgNesnB2d1fMpUOHA/wtxMfRSGMHSbJsIq0xf7zeyWjgDMkcmKG7URQKjJbfVzO6t+t9G0AEFAAp377irmwwBBP2FhaKsM2qxrVdZ2AYxtDOWC9WUAObpbZsEjdOU6Jtx0J/ll0tFAkxGc3UFyfgAE1ZGxUmzEavUb5JRzAXSUDoq8WgRaH/1yAiCMwDQ9pZk2y0TuySBqDL/mfJoBQJCHnmzKrQ9+oOxONuX9si9/9uC9svryp17eP7x7t6zO6q1POsGkMoZZwvqpunDZe1iiYOwdjY6Pg58FVRgEL/1qRYLH2yzUQGRb2pDfCfSomkgPb6DG3hhfBiTUJ8pFLUZjK0WlQhcCkNewF26sAaNX+zbFXJ11SUvGhgx0tGBH+9RYkedVD+nQg4NmWe3eLzHiBz4jCnznVFkDm2YOylh1QOEEQMC+qtLWHvnndstkTQZUo6Ex6TBS3dMXMAgsewrekPGMfWyy5l0ulpwpnFpdr/qHs8vHq8HfwScW7H/D1KHMkXWGahDe24UAIWkexGQr2FH0ezDz3ye6ECD4OBUgKBA9/mRPr2+vr2RWUhpqNO8ELa4EKDV5c/BkzkvSGVh9g4oUFkFOljMIvi1TScON/rE9AQgFe4ScMzbcxqYvX47ZT8Ye1ndWb/ji4qK5q2L5qzr5ZEZFlhmX+MGxYr3cWsVWB9d/4+I/eGq9zGPtRM6oBBihnLC/fUg57IOti4jB6FzBJqpjVbuCYu+CEe91ijzu5KTc+uDzZX+yKQ9Xq/IXD94vq9/81Ev7B3ffSQDBdZMpsr7FJAwS9QonD2ke5c+EGCD7FCfmEANv8lwOgo7ObstCZr8cMI0Hcawe8SXfNNpfN94dDdwLpiR4MpiSfWKT1lcxoNwzntarWSjbyL9QoQgvoymXtHdeCXEPaNXw9nSMdTz10Nb/rYpbwYKLohmIMBLBMsQcdc1o9tyqFGPYayytNpZhjxNoPQ5OEw6wx3YywzeOumFX5aCgSqt5lN1pcxBapWEv6QCCKow0NvyrjTV7loGrYPMEDZAs8M0idBYGBblAIjdOO0K56Fqp10RyS+EU3iUdYhM+tLPKOUccwuvheg+CvZWw5wHkbzmDYMNG3N7V80G2MuupVK5LRxhzVbqcwRJOcJY21y8tvvUcAlvTrjWvGn2VMzvHHhO3p7r9t7/IMwxwWa6PnUD9uevMOHvyo7Q24RiE7iPd5J/V0Cy+r2qU+0nAM47n9yEGBXZ6UtCBlfUlYvJ4P7u5tF8WklJsWKuy1uVCri7ODmyviY0RxQdhC+j86ZloqhgMIFRnSVnEOOvqUFhPCj7VpD/0gjnsO8bYG+K4rAn9fCyESaCuY9aIVXLd3zxavtOE8TQ0i74+YXf5/CRp36yNQViXB2VbvvHwYb3N8aX9wztzAKGOLtAmK9yEHq8FIPQCmAACCT3QWDLCXo5nm8uKxwFCIC+RASQp1uueDW0pjiC04jRVX46HKt6IP0GCMrqDskvJY0noWo/Lt9GSLtkpi0Q62Q8R1AA+vGbDA8TKkZOwkGg5ULwMEDRGFl6qAISqXDnxCj00TKlpLLy97XMeIOCIniD+2Oz/MCeg8chaUJHGQIZdAUJNUjQGwdeU7r4YsGmx/rZ/nYemcdT2UCqtXEEVmANT8Jycagbn0B6ODjzOZgAEqypARMlqY1Wx0B/MEeNAMlcLEOwrSwECyIF4F901gK6saX3NKFq4REh562DnUOMIgKBI1FrjNhcxBUCodDkMLQMait/ZuiWCxI0QZMWABuvNxgBolJETYiHto3JGY1P8ThRdfO/iR55kYknb0KJNozUkDDA1STMYs0mAYPp+CBBwBbI8p7Fk9s/wkdsmTkjOtDLHGYCQ3SmWYfOinXEfgKFJgIAeFQSRjwQIFqkYh8M8SXFQtTRjQ9newalllk7PceQb1NXQHAQtdc+yomsFVtShEAGE+/uL8q1Hj8rqS59+af/ozruSg4DziUxaGM8pgJCVr4HZg4d2jkEYAIQ6kVrF4Nnl5GmZZ8MKMhl272anykEboSBBhxTyThPhpMNhKuRRBS6I2PIe55V1KLWW/jkMECL2qMY+SsmCLcHb5wFC/dRSBgHHIO3lQoAAARtlO6PJFpJYWVHkfBMCRhPJfYfKHBmctOzV4wAIndwzg3BdAAHgdTLE10sij6vr2AmL5uOT4FDKGWKKOBkNO2cjz2YJQIAycu/cvDOPMU8ABGU3KjsVIYbECE3IqSi8FkyoSrTT3WSpw9hZR0HFEgbcjH3hjnsjsOdztP4xGqXsgSE+5wABfKBYlZqbAkcgX9akLFBbTof+BuGMJIAg0dKq05CnEInMvWM1VXZKK55yRHQVDgOE2jWWZbUx6y37BvbDjJ06ceuiVQyZQai/E9DITo7tM3IFWh/eZbgBCFLFUutP9xr+SSN2x7N7mrFz2Jcoy0Vys7IPFDKYAAj8uVYXYyy6jnF/UAcQJC5lnzbmNcocLQ/O7nno3ieIIhiEChBeP3tUVq8aQNicWxmhHy6l5DtB54g5e3Rz6IdWm5FMKCETVxJATEBKFXFRS3rfocua7DwhxEAAASUorLjmAIKjrZQJjDEb/vKErfh3PhbHhRj+VQYIoTEUUJncm7fBPqau4DEAAe5wW4+s5kH3IJQEAJ0mjy5lEJ4EQGCDk8LNPS7IyszOId+AmfMB+OORxKp6lUKG18QgsMHyEizO+kYosLugxgD9VQBCo58WA4SQyqDtzIBHDMJCluZxLwYI1aCJw1O/EfSvGrkJgCCWIZJmI3nvyQKErupkCUCQ5En9Y359WDD/qelyfI68YbC8NRlyCiBoeJjkGlhqLlQ6CRAs16Vt4U99EIhbuF6AANvbMqVYsYMAgRLzHSBUUGVurxUHOEPEt11W+WtCDG9cnFcG4eX9o9qJ7aJm5+gqA30rQMjVAFMIfuSJjnXZDIPQfkEmRGWOSQbmAEJ80OOO9qyKqOM2R6Ozah+EmsFucUF8OyhgxNwoGxX0L2h1yrQezXvEIAARxueDXuw8X6HqETd7vAzCcPwTYLDKjKP4JoFNqTCUn6qX42jfozW53MiZBvm9yiMAggmnqhUOacCDYEoV+RAYN4WbsLaIfuB5CkQvDECoRCcDNxVi4DKyIxiEUTQ1ew/1LNZzuSonN2+Umx+4Wfanu7LZVWlal/1qXe69eb/sHulNrPW79f+qB1Q9LkmEItWsZzuy58Eg8IVVHiZygEAptAOPvWcQcvx1EUDoYuZqTsAgIFfPk3vZkDR7MjJiGhNfEGIwBiGWTL8T5k1v/WOPlRmrmCtyGaIEnNk2ZffsPJBjpfuD09d49DSU4wECsgLQ7yQYB1npWda3JfIxEKtikTNueQs+F+uSaEArrZG+UCc50gFDBmFV5gFCk//lOxadKF2nuz7gHAS9gwIX9oGt9gwUd5QZ6iBWYnOxxmVqfFVsOjbTGKy4vyTrF7e9lwUInIMgAOGk7IR16QGCnrBIYdlX3bHZlGc/+HypQYlH61X55nllED710v6sAoQtuuA0AMHjDvrE6wAIKuATdzGwdTK0XQUYSWphvKcAQhywWIQBvcJoTQCC0plpUxtKjWNzfOChnMVD4atCU5LSglbL9T4A8khgEOUAyz+OBwjt8W6N/6Hf88FyAWalNpO3AIUXCrVPdMtJivDK7K0W70WSItZD/Clbk3nlpglO6rkiRwMKsacRh0wV5QSMkm8NRphGIHvice7pHARWCJ0Cs0dVEdquVuUH/vWPlr/9H/975akPPVXW4vivy+7Rrvzvv/lPypt/+kbZyGVN+q46TnSFa0lRBv9+UgByhwzCYYAAIIK11kS4PsYaJZ0wjqHAO0Bssec2xMDyO9p7BvVJdikHARn4oUuUkF6vNwpoLfSiM8/+73EAgcIFTv1GJVNS0i1Nbt5i7B/7rVi3aQZh3AcjKkP6EEPWm7F26rRoLkudjwIENElTJ0DLHLMu4e6zA8fT7UqweOkMpBDDNECQ904AHHQGbnOA1DEI1kG/rwBBJDc5NeFEytwtJKJtpxkkRDLnCCC4nuC7GAwr5ZyPNuznHoeBx3GIwRGX2xy77tnCMipO0cCpBQjC1FeA8IHny3nZl0frdfmrswdl9erff2n/6O07ZV0T9AzwJgbhGgBCa0wxGUfcFEtq0Xk1BKK4id3QyU0DhEgyhNDazX7c3Yo0TTUgGmJAIh0MVOREwDg5+mUbZkKqAAFHGnEpoDQ91MgN0LnrQ3y8BhA6w+Ge4ARAsKNpJKVCCeRtDGi2pGRnQkOtMuZ/wwiNjGZ8zhq+yCQbU8Xeg9pvQ97wLnAA7QZMT7bJCoHlhccX+2WJkPJ8Syk1hdDOjxVN50kPjGccMrgMxwGEfC4gC1wZtCqr3Um5qJc1/fDHyid/6sfKrR/U655FN93bld/9pd8q3/6Tb5ST/Q1jmBQgZAYhZuqsiQhLr4wuwyCwEUN/shYgyFwlKReDH7XXBd9hfQAoBwFOAp+/ywIENhi8h5MAAbYRvlhXRpj3LkBpBgjQq8ipSkq6i6PbNhuw0fWLmnmV5BmAAKciJe3OAwTWm5AYsDi+bXCYbbwKEDKDoDqNDVtu0Nw1cUI1hr1UHaJIUqyfrwxCdRJzjpjp1gYgQLdG1UrOBUkAwT1/BQh12JWpanWDEm8jgBBnH+s3naSojmplqwVvQScBoA90cV5HPTu65pAeLFqcK5PGIncxkN6UCj4K5TGDwADh0X5XHqzX5esP75fVK3//i/tHbylAULP7+BmEtmwK72yNLwvakK5xRMsHlAyuo9oMEEabL5smNdDmacJ5kPIVteKZXZi/rlQtHqvO4wGCH1I38sczCN1cO0q2P2RjRN5zDbPee1NnzB6Lj2mQoJROpq3hyclJ2V5cBDVpH5oHJ5CJKF1bAhDaWnsHsZNeinqfyileM0AQRVDvXdiVFz/xsfKj//VPKECAWL2/K3/wS/+4fPOrXy8nq5vDVsuxRtwDw7CEWfMhM3KpEIOu9XUzCBJiGLGIzZ4IaJV2yb2Cb6sYMmOhS+p3MbS0iycHEj2eBTVEmpMUXYdDp5ikkMPjZnQCIAgN72fp+CTF9q4ItC/uQyNZb8b0EmfsmkgNl5XJTgAEBUQ9zZ+WblIHhIPlAKEyFaMw3xUYBF32lkHIXXjdIF+BQWCd5wChvsac1hYsjnUb1nwAEIDgOgbB7mKAMzpKUjT7VhmEZz7wfKkAod7m+FcP75XVyz/7xf3ZnTtlXUMMjxkguNdshp0ZhO5MEpoUBqFFdUcxCDnEMAQINWYrv1DlkmOBA4DQNYOB1cLAmZ6MBLljGITvd4CQW5O2GtM51QlViiORcxD6D+/K9QCEXAbaAU5jquQOD+pp8dcLEDRnoErSh37kB8snK0D4+O24ifj+vvz+L/7j8q2vfk0Bgsikym+qYpCfZCpXcj0aBmEEJqdCivgschBUz2qVUHiAE/X4bZJiQxOjN0Obg3CozPEwQACYa8ttLcTgdzG02kjPMhyFGYG2EkHqpyBfGgMEsAK6PeFxJ+Ps95/oc3Qch0MM7nkSg6A/izCU6xdjM0cMAgcOom+FGjYddtNqWX5cqexgD1vAltcvrn12MfVgRay5MAiXAgiNHnbga+OrYQVZ47iLYWsyDCQ+DxBCf4WuMH9hAGakDwIYhAUAITthLUDAucaKslNqIQZZMwPMVC0UjBTl1W3W5ZkXNMTw3mpfvv6gMgiffnl//tadUi6qYrRkFko2Yw9EDyBF5Zh2naGqO5qkAwgIF+AQhGIZ0bAmgoMbDtnLR9SHsuSBnig5A5UaEmKQ7lbILK6rgTLHfIA9BIOkDFLAHKtTkB2dEo4NMTwugMDhGaeZJij0oTK0L/HetB5Zp/AoV4EVYNfG337JNB3uYmBvhA33nMLWsE/9BLoiktEiliOSYZuGTDM5CHrIXI1cikEYAZWg+VVx1TtWXvzED5ZP/tSPZwbh/r783i/+z+X1P/7LcmoAYSWAgq57TomjkTjlxmnKcyUmEeZyxBilDqSIWliOkRoQ6iMBWvQxAQR+Xwt2PAHb5atv8qYMQuggZQFVWYDaHhvyeJvGk5cBhFa998+2sIwbmqsxCKrf+4Y6TskPEusiSTP0IWjuIYOAGL11C9Tli3yU9qwGOwLWhxszhfGqIbNK/UP3gqyT/51kEKaTFDMvovYnLmuimBKePwwxRChF7UZf5tjppksABDf/ba6QyCoz2WhMpbKNJEUqskznMWxTJR+1iqHexXC235WHJ6vyjfv3yuqVz7yyv3jz7bJngECzui6AkMBUBxAsTjzV8MOUVTr0g9h6JyipQxslkVwSICRarnm/Ju2oF4BeC5cFCH04BUboekIMioi11fIcQJgCZ/jSEoAwMoC6SLCnTYlSCxB22mpZklSJrjzk2Tu4grIezbVrlMRVDPCQFjRKGoYY4LnMNEoaKLYEtOz3u9V+DBAeGED46tfK6eqGEgL6X6VebiN9PUZeDGLElgTsgKSRaVbGrbGHchlXMUTXucsABG3hji6Pl7nNMTMA7KmPwA7OQBdikOZQKkntWjB4Z8N+WYAwYlCrwVH6G799nABhug+CpT94VUkABCTwUQ7CDEDogXxmtfLvM2tzOYDQBzZHrDUcphFA8PDyBEDQhE1l+p44QBDBnAIIuM3xIjnSybEalDnWEENlEC5O1uWbwiB85uX9xVt3y+5MO8gloqtJcJEkh4ZB4G52ejiaWL0jPLLKI4AAq+EB1kCP/MwpZdZ5K6afdbwWPrHktI42leuerYqhaZQklO2MlxVCHcKuYzTl0jAI3ElxlKSoLkyj4K45B2EpQJjyyML4GiBq9j2oWDOuPv6mqYl1twzWhfwVS36qazEFEHpvJNYtFAGaGVS6UgAAIABJREFU42hjoORxXBdASF06HSZqWoK8o2+YM39WMjhZChDU4TXZWwgQ+qTbBhiRNI5Ym/a8ewJYU8XgNK2wbi1V3ieeKvHBjZJqh7tIdptjC4agFEnOxzAI3p19YL6dEVMegPfzEIMgYUZP/rZns45xxWCXoR0JENLatJ1FhRWdpt29wU9kG5gBjP2YBQgGlrMhnioNVUaj++NJxBxiqI2StCugOzUzrDV/LjmWTYiB1wpJiuimmXqpTAEEr3SLVsvTSYp1wMeHGDD+YBbJxlaAQFd2IJGyikzVm7XMcSmDsK8MwvO3y7ayP6fr8t3z2gfhM6/sz9++W7aPzjqAkA6acTpTMcmRJ8qGxO2ef5BqQO2GMMTY2g0Fgk8/vxSDoMkonZcmAEEXfdxJcZSD0Iq1AoRYn8sChJxglQX9yTIIVwMI4f3omgA0wSVrqHlMFAocrNFKqxhGDEKvWTKFrvIL4PYEAYJoCOSyXA0gSNhLGISPl0/+VJOkKAzCb5fXv1pDDDdU/iSespeSpSUMwqUBAuhO6keh5xT5NrnM8eoAQfOQpvRP1jWXYRBGZY79WWQljRbjMm/prwKKeT7EgAvbfMwDXabH4fIMgod+jgQI3DnDoOJjBAgKOlRu2koDvF11r3ZSvC6AYDLq2IySFKXdOnqFEFgeAAQZd8qXeMIhBhmAAgT9g5smlZUFQID2ZX3e5iDUEAMAwq5Wc5xuyne3F2X16mdf3Z+/ebfsat9lZhC6W8Z0FO6FGTMAJDykqhPCo3SXjkFAWZNNk2jROhFRsRPZ9yN06D87EGLwBTsAEMaGknFsjCLT4Koxjb/wMkcomeUMAq+6CQISi0wp6xgjVsqlVL0hpWZVAxQ+orlHxvhwiCE8KxlZ0xZ1zH5DzgAgdtRTPKAG3t2Oa4iy7QR1DIJJtHje3pBreQ4CMI2rMoBoy/BWxXc1gLA1gPDhH/64JSk+F1O+vyu/90tfKa//UQ0xnBpA0Lg59p9DhM7+ee8q/CUe2a7fyCBz/kLPIPAdE00OgtttNz1xwRfdf4LytMu2WgYwjLIzLRHUk6N/koybau3KHC2fA5/X/Zxi93iu0wCBy7Zn2VB56SEGISpneK5yzpAsthggQD+HUfQwoC1flDwGE6jAry1zBO0ez+Tz6nkeVmKoDEzOU+C1eXwAwc6KWTUFVbmbJdsI9IAQfWH9IDqAQJChD3CoxpBQxl5L9/VemwBDieEEv0Jhrt4WZQYmQmJ8F0NwCLMhhnVNUrytlz7eOCnvVMauAoSzGmJ49Kis6/+h1FM5Pj1UXq5yOYAA9aODg0ViBmG8lEsPZn4+vMa86LywybRbTekcgzDcFL8hD2pn/L75JMVM5wYDwUoIDUdCkGI8VJrEnQJFt+jdEof+zDE//bxNuRKocPmwQCVWf1FYBsrLFUVUj2RBr7eSqeHmP6ysR4BhSplPhcHqz+POD93XQ7kObEBdDtNV4ctzEFowXP8tAKHsy4d+6GPl7/7kf1RufeyWUPQyt/vb8juf/0p580++VU5KBQghN+myJuQc0OJBsad9kiRdPffDWO2g3ry98yN0BRkaem/as5RTAuOLRLqgtKXMEb1SJox8rH0wU0cDBO+kmLt/htRnT7c9W72sQF6zHOFzI4AQ31jCIPhBjF4qNqjcKCmk1CsROJQLvewOoIF0+R8Yb+xLNuRjgEBgqdEVbkHaOxSGScyxwscwCK4LOicX4wLL5cZIXiR2W84AktKpxB0Mgg0p3GWsLXJmOAyWwSRmo3sz3wdB9WroIOjZKZ3MNhCfjXbrSwHCSkIM57Vp1FM3ysOyKasvffbV/aMWILSxWtjAIzspjpSnBmbrBiwHCCMGYWT4QvHzgei9hksBhJYGbJJDukZAzQDBLOQyxxYgDGdlyXmD5h2mxzSGb6jdDv5VLmviUYyM6UgYW8oqN0OJJ7r3OUGrtoq+zk3KHOm6Z9Vbfa7LaPXSXGZilmKcrwkgBOdX9/dqAKF6GdU/u/Xi7fKv/e1/s5w8f+LXN+/OduW1P/6z8vBb70onRaZp2zLHFkCNAILK0XEAgdcMimmu2mQaIEQps461b7V8qMxRzdkygDCSCyQpyu+cBXLOQX7Mazwlb1MAVMGTGilmRMd6ciFA0MF2pykbySUAoW3tjOvO0ca4Z4bcWM32QWDYGnuafzrha5ND8HgAAulUq2Kou73bRrvkmKPaLNZPCnYIIFh+R6z2GCCoDlQZkPuhBgxCCwiWAgSWyXybo/5mlkFYrcozzz9XznbbsnrqRnm0qgDh57+0f/TmnY5B4KQbPRkqhyPKkUV0eDiS+AYSHXkp7aHrFXfvqbPBirjzcQzC5kRpwdrHPgh9XMc7qOfukmvmvXUozfkkRcTGGgaBysbyXMcMQv3MCCCMvOGWQWhVTRIo3xzruskM0wSD0Hnx9J1ur+0HmQOav6xpxBxMHaY5tuQ6AQKP6ZgQw4hBEJlc7SqWL7vNedlJyPZEFNO27MqNi40VOgVNWz+RrhUfWDIABL7TAuuG8cOgtbQ8g8HxbY59C2V+ZijZqVbLpm7Eo1dl7UDkEgwC9BPUGCtK1l2zVQz1/gtqIT1Y0jAeM9UpVQavLweBzVUT+iAKjn3aaQZhGiBoeLDPLQnjOe6k2MoPQB8n7XLYcUpXiDwfkYOwnEGgPBkLM9e5KngjUIXOhbMAIXQ3JykmXWAxG2cQZvogtGdxpNPGZ0plos7gWIBQ8xCefu5WOa/5U0/dKGcACGdv3ilbDjFcE4MwPkSHAEI2UVcFCDyGFpC4J2qXNakDRcls1gcBByG6J6mHE39AVeUZt2a+Ej1LAAJ3P1Oxi7Kx/68ABMTSqOOUVxCoBI/RNYSbpWD2NscuPNE+d+xdjZTRdTEIPUAI+UjGd0DZM1umRnzlAEHuWRAlVev112W72urFTcLGacY/ZtsDBJZXU39oe8iSTNTvYYCwElrW85A4Qzyi/R6qYSWnhrmtUw92MYy4guDvF4DQtmkeee/orSLLKsvObKnGoBH+85Bco030qzUBbdS+fbBubeXTVQGCSZImEVIbfnsP5BhAswX17ChWOZK7QVxn2hk1Cp1qSbMCfYwMQuwb9sb6INjlc8cCBCWckHOlU1VQFdOGzjkGILjtofyXEQswgopzAAHD8n2rclYZhAoQVvuyu3laHtUT+mXLQagAoQqkzBOUR1Jgqnp6Cs8OwFSyWyO4ohakJ/v4siaZPBkQBgiN9EyQ1FCEvQHKAIHjS3poJf7kl/oQkIFgp9vx5gGC9wEn5qWuH+rTMZc4WIrgYSATsEEZle0qH0bdL12KKOmcYRAaaIMM11x/oW+P8WBsmLNlylv1SVZy2uBgglwblME2ns9gVw9d94zRZvlo/0X0oMt17GHIGZIUG8XOZ8G+FpJmgNEoZI+zyirEDZ3tYY9e8TaDJtauxkGNAe8PFG007wmAgN/59eUWfoISDvAyAWr57HtWNGm5sHr6NypJk3mbp2mKxOQg4rNBQ47e355dXbvKUsCz43Ol3foo+x3nw/KDkIPQjr4Nf0GnoVFSRGwzxNddmga2+D0bR1fcnlRcdY2CKnlPDQ3amkZHZT1AslfQh/Zu3GaBcaDREJ/9+tHaSwIhI9F0NmzVr3ntdbz2vjTDkDvXOZaPBpWIuQaYtNl4eXnWJVjCIYxvcoxYw+ptjucufUkHNnYqGARot/bss0QYc7LSC+Dq6tS8n5BE+/1EDoKDnhYgwI76JDAG2Jpa+RKtlucch5Ah3Zwp3dpqvDFAGIQ0BNsoQHj29nPlYl3K2cm6PKgyUQHC+Vta5ugmAZ3DaOGB9h0goG2jVYSMMsTZk0qDnwUIKOWjeGhXxTANAjqUSi/uAYIdwFTFgNzM/h3hdZpBSJNqcgQQn2KAUBvYpOTBuXnk7Q7F2yotS6pZCBACGQfUy2/KnmYWxyizDK9oPIfWQ4cxGb6VGnaMchcOA4TD+8FzDAUe31OAUEuc5gBCGPJ+zdrOfFDC+UKdpAi8vBfPVcWk2c2i5q0LZHv0+d/WPMcYhOsECNNvjeYsyiBEFzxVetjl8DylDXNyPBRk5j+cr1E1job4BCBY+ZnqIbROB0DQ54S+CU+O47v2IX9ljv1WNkTbrY9kd24HAAw8+2EyxKBgQBgEbiGKPhqAUzoIBwjx7h5UcSXUUMblbMU9HAEkeqPZ62s2wzZLBwi6xyOAoM+ZBlJtHop6263e4f1EiGEpQIj2zTqKtoSSAIIDMWu17AxCo39nkxTJmZIyeqwVe2PzAIHb1o8Apsv3IPFSz3yzfl7mqKWh8nap1oo8GuySYhsFCLeerwBhVc5OVuW9WsUwAghDBoEMnb6s9ttWFKS5CU0TGltfjjHFyUQCTNtIJ+piFSrlSoppZXL4+GKB29wKpci4D8ISgLDkfbZpvm7qMcyGGJY8NtkGum1yQZKiHtwkFio8TPd3l6dEf+9V2ejbV9bytM1BoLFNAYSQAaD7PGmvi/Zrdw/kICzw6dpl9QOIuRqFvQggyH5mgyRdKbuXQCldDiC4vI6end7Fzcug0HE7qXVSHF2IQ11L8ThW662Skhm6hydaRvkRSbiz+nTrWtkChMNeN5RFlmdVLJaD4FUM0wAhlkX3Y66KgZcQ856+rAmfjrPQvovnOM0gACDkGwNHeQEyfgKQYXSz4R0BhKTjZJ8qM0xrMmIQasVT48Grcog9ycmnyu50IQb5/PhRcfa5dQ9+CqNOKytAU/9oDoIChJDX0UVQcRV1hGonAAKzKrju+VAfBHu5rSZ1HtBfIGdGH20voDWE3ay/qipuKknxKJA6ceGV9kFYDhBqvFAbJZVyvlmXOzUxvFYx1E6KzCBcF0AYI6H5KgYYCAYI8KqSdKR0yfa40+YAWxmq1Q1svJlrAAgtZta5U52yVtheCSCw96kzprdeBSAwb9Ui+XRNsx5i2Q94dpf2uPJuYj49QJhulNSCvdET25/B0Cn9aoDpsQCEqzEIss4WYsgGtgUjuMIVMq+/70IMrYdxJEBwpSznyAACKTgNzdltjk4w9B7o7B41ipQBQlX2WsVwPEAQ78ws6civXQwQhms23e8/aSXTB8ogPBmAAIPlcg7QNAwxTHn84VDo3wCOZwBCfc+hy25tccLWaM+H9Ef+qTI0BAjDSqZlAEHkaAQQLpWkSLx1021Y7VgGvhLOttDwfB+EJRrNNPKAgamJ97utNWyzpZxjEBgg1FbLdy62ZfXyZ1/db63MUTDrVIxjyCBYAo1v5MD4WjzHozqyVtM5CFKDrZKtokHlZ1guUUaGVF2R+i1nTLYEjkMMNwEEa5AzZhAstg9v0fMD7ID43plQp77WSjktAQhAnDC8SY/jvgKLQ+L4ZFam0rhGuVLcb7KKwam/iIC7apgFB3VPrBU3eo/H1Ac9CiInAt5L2j9aT8698IPrnNgEQHDVkdm1ybl4bgn2hgCCKLSZEANkCzbfGQSLCTLQUDrNYuPiY9tIG9aBjZ0sjD6cQXX9e71kFfeM6oPdVBtYkw94zTR+GzXQ8Px1sxAr1kfVpMae/UDOA3+2pTChXNX4hvcZsWwzJbI2xnJg7KYvUpKi/E4TLuNdanw9sOW6BHTpVKmrzUlurOzI17BDjU1E3F71DgtYr6jduMDQYe9cVjiObXS5vU9DDJGr47oJYByGqwlBqa4jhS8bmpkBPT8qRwoweR+wtBBkHXyWOddEkSNBCXcBEPDeplESxiPEWV6DeHLk1SRn1NYyJNI7NBlAuKCNMFtD622zaej20VyhA3j+u3xZEzlfYJmFOazraiKqMpBG6wyCH9VGZ9RvSMKmMQiTAMHzjrCOnIuk4848DHSDWwmrYtAKE1cx8mur3siqpOzBIKxKuTjdlHe3u7L64s+/st+99U7ZPdQkxQ30Jj+Uz4cbhRqzQzcoUxI1/qKciXNMYZAxME3+A03be4Hxexf0QZOUdkgAE0lB0R0BU0kg8nPxhJRVEIE15RDwIsfDQnFyp0DQS1DEJoQkQsogRAMjpgfnKCUdY04uiitxbe+pJ0L9vJRSGb3kcjCKjXYUfQhYrxbBICgbMoqbxTpbuMi60XF8M5LuBmvG7I6MTTsp5lbLa1GUuFp4ihrVvYz59GEwYxBSJ8ULU5j1d5RI6+EUPZp8tqy6PX5mRlP8BJTq2YHWeHo0ZNJ9xTN7gFDvYahgGJ9C+119GUpywxtS2W2SYf0doUIBYlpAwuATco6zpcMMtSSrRzpAf80Jk6IONZ7uIAawIM81vovGYJBrS1LEmtHqtzHz0CWmtoETeMemGvKQrpDnNHqsPQueHNggkGEIk54tiXCUhxTlg9mQ1fet5HZJRjG5fTvtpoIw/ZJ8R42Q6jNALHYwPExG38k6FSXe3BURHEJ0UhS9udtZ3gySVFXpjRg+HmP6exOu9JwrWV9lEOp1zy5/tke9vKI3AVbHHE2cWU8WxZ0U0NMKEOqY6nXPsiwpbG7P84ROlHpHuE3PEnIQuIzBKoxsTepcqvwg1wjt/9kp5s6frlON6cWZxfol2TRAHmy1aZcElOMf7qDWsVWAUJMU67yfOi33aoXUy//gS/ut9EE4806Kq42f5oQBXd+aZ+u3rpnyE2XuN7GRxyLaIZAQhKcVahZ4z9YdMAi+IMkAAAnDmEdrXzkw5oWz0tOzoZ6+VzFUsCCd6lqDnD2tkfJ0YUViEOJ+cEbqvQJ2banpWhVEHKbOWBuD4nSYZT5TlrJ+V1cLaFQAQvU+l/SuXwwQzJj6wVElBFClIMaUvhgKdOPTZDTNRDelT39Rahq5KJY0yl3WxNgZqKJ1XdWSv0EiV8ABVVx8uFqAoOoge1w1nq7jyaMNkNZmzeOzMT+VNSs5bORIy7203ztkz05KgC6K72tpI85jNQKbstrXXJDqtdf4ohoAdUjDY/NqGfNy4JeHsberzW3f4izAfY11aYF6MiTipSqDgH2EXtDzbb0MpOIgTjiqmBhwsOerChoJm9bEqgJekiPvFgi5ckPcAATIFwCy6Q3zA3w6GD8bthaE8Axa0KBnugF5fvZjPZndgxeqspkpDQm3JUYXVWT8ueDfwklqwZfKOSRUGvQQ2ziWdzVqFeAJqyP/n8EdA1HVhwFjWRe1zs8kKKXkeF2K8JqrDtjWuwFs0bXJkJ7x7CAQy+Y6SXaGcmbUecG4YNj1Nke9FIw1FdZHWSXWtVot0l83YN9uS4ZNz6t+0Ny31drslBkC2Co0BYOMuWx63o+5JV3eiElSvQV3c6LltOYEgxnTdxhniZBIdUTW6/L0rVvl0e6ibJ59ujysO/qFyiC8ebeUelkTt1rGEvklFXpi/VBJkmLdIEUjEHDe/Jgceef2Q3Wk+iRFOTCWbQmlhYM3OpCdshocUBagdPixKYMcBIyDE9LmvHweoyqV8E55ffokxawU0hxtsWFInBpyoTBEjzU7EGI4tH7ye28hPRiXdI+kpEU7gJXEAj3rBlmS65rPdgPgGm/IV5/ANGYQ+rsd8uMD0OjeUAMskzsGjqIaqhGrmbsOEAi84GdyyszDgNfDiYSOE0Cri5lLRijJs2ewU9MWz/avn6xe04kErk+ePhGFojFNVfhn9x/q1d0iA+EZpE6KnMRkZ3iOQcC5Y+8ME2jPwHyjJGYDFKLo1FRgc9IbAfAm8w7gs72PZV6ew/wnI5+ywHPDr0hSnDmTsjgtg9RI3mQVg37PL1LCUriv2gCEI5IUwWq5TmUwZJc+ycvds6c5jGL5iJunJMW+cRyMtANQ82AHkaus2ogxSHqHPhXJrshB4BAD2Y80fnZksCqDi6D2xCCYHkvXPU+FGOwsCQDCgto+RlJsZlACBBtbvdFzwADBtsbD6gxe2rM3srHtWairsDk5LVvkIFhICzkIOFN2KlXtr1flmdvaSXHz9FPlftWFX/hsBQh3SqnXPR8DENAKdQlAMC9CDQZqbtlzZNJWjZSCnoilLbpXoPUUQO+z98phh+sGCKI7QGtfN0CANtG14T8Oqp4wQGgZhET3LQII9ZCEzx9AKs/v8gABx24MEPTNZEiM+gUrI0YsyZQfVf3m4wQI3gCqAoR1ee4HP1B+5O/92+XmCzfhC5XVo1L+r//tD8vbf/l2OZFWy4YUqZNiFyelkMvwZlMHJwHek8A1ZVaHOylS2fIVAELdpcqILftDMkX7pIYoA9AIdynrJnoUtrM5Z/puAD8Cie2FSDMAocpMUvD2Lv2fSwAEqyIbAQSRbC5zNJmq7E0Kk10SIGjoSL14Bwihpma3ys8OFnuQia+JjvpkTVKcAAh8pwdYwXSyxwCB7buwIVaeO9tJsQUIlLc1BAi2Cg4mKkP9RADCygCCVTEsAQh23fPZ9kLuYni/AoSXKkD43p2yP68lJNEoyeki23mo0cjZRQ5CJDwwxZUUb7qDfL6KoUNCg9iU2XU77yMkTEq/iVkeZhCoGRRKORtWYiT5rc/RGR8T4vkyx2z8RZXRgzV3A3GuqJDQhTA2wb4wlaR4SMGqkYn1m/v8bA7CDECY8wSR0sfvPQQQptE2PFhbs6YUVzvVheNdPZbdDjkIOoIRQIAiCHiRwWA2JNMMQoQt6jcqFYjkqfA0q+Larkr58Cc+Xn70v/rx8uzHbrvSLPdK+b3P/3b51ldfKzdWp+Z9qBFEiEHXZpRSHmACaz2kfgfnh/dmDBBCbNGJz2wzyVbPIPg+xoAino6wzIHxpDkQvZ9iuoNQXn2lA4RkqFuUkPWNzgs/sxydKlOgqeXrGWjWMUofBPuafGSYH2TpqXwkqaQ8CW+Tg+CsyeI+CJFX4FgllL4lt2YGwc/H4C4GnAE7RZNqxNdO1sL0ny+5DqDORRsljQACHh05GJC1Lg0bfQDEZNG+WnUK8jY0NyASYOXv3gdB88ESg4B9dHYmGITQEfE3T4YV+8K3OSJ8ETLF7BfYtzyeZmk9abUChHqHTV0z9Mqx1gSSJ6GKLzEIBhDO609vnJTv1eaJL/3cyxJimAYIUYusDGYg8KQcmljbcoCQlaLuWxhpRpq6MJZJavvLlOcwvEE3KwTCy95RrmJYChCy4hgDBFImSwCCXLcd3+kBAgxanzyH9cZ61KtrpcSFbL0kXqU/vUcWsUSeEWg7/Cy8JzF/o2TQGYAg8TfE5ziPROKYx4cY5uk4bfE6CjFowl/k1CpAqDkIxmxYPXeASoAGOsDy/aA1Q+8cDjEgFKUHn/IlzOBIQtt+VS7Wu/LijyhAuPXxChDsz71SfvdzXymv/+FfCEBQhKEucAIIozrpUcleqxS5aoDA0qUBAhSzvbsNMUwBBHjdkrfxWAGChUKnzdnkb/QXmjMgHR47gBD5CTgzeNgigEAfTvBdNHyAPQa0EO5ljZJaDcajQ0dFza0RU2eOm+rk/i4GNYca8mpZrLSI7pCwweZNPgQQsBqUpCmOlSa7p1m1e8MDWdUkRc31mQUIzCAYqPGVGgIEr1FxXaxA1Jh0BghSJoyE3tCxPkxv5TxVvRN7VrfnGIAg+7SpIYbb0ijp4samfOu99ypA0BADAwQVLDPTJoDIZcoMQk3QqBRGLEIYafbiEe8BFDYQgHAD1aRKYxTbVjASbITgVIMp7QECkv5URKOMBNm4ObQhyD3lIHAM2haioylNmJnrlzNqWcaekcEJbbpy8IZ1jREQhhjPMwjhCWaAoAYMPdPN+xSAEBUZshrUeERFaQQQDLD57xQxJ8At9wuqxyVPGSVmNbkMOQ5slSqNulVoYKhWtaYY9qUMwkh767ocAAi2v+LZgUGoAEcAAie7AgUz8LNouh3u6wcI63K+3pYPLwIIFUBWz7RnEJR9MiOlS2sZ142nNAgxuHR6eBD6AY2Scv5ENuLBCWnzQFQwTTMI9qnIyEeiso0tJ5dlwzZkQSgRk53xZB8kp8NCDO15Dw3dcQ/s1TFTMwcQErtH+RZdMh9yEGzQ5NCH4SOA0DpTCSDIhiNfLQAFjP0o30Snbcxkk3Q8DRBIh7UJZU1uST6vBLK79Z4LMeDDJAcy5GMAguZKMUBoZWPEIJgV04+mKjJmEDCOcK5yFQMzCEjonWIQbA8ZgI6UnhJSChAuamTA0pedEe8ZBACEp2/fLtvNqmxvnJTX798vq9/49Bf3q7ffKfvzSkVYnTvsIlErHUA4mKQ4DRAU2fFdDJa8ZOxBd3A94YapS9sXp/c46TGQY6KDmxyFQO6gF8M4KVsCxJwNGju9PFaAYTWbOSsZ3lIPELKnnjFH25QiWh1n6lvMdTL4qoTo2f5XRurhkYUBVyFM7AW+4pYio1sO27hKOQAQ5ljcrPIfH0DQHQaSx3XPFmIQgBDxZl3vCYDwWBmEwwDhjT96rZwWMAgDgOBeT7AlVwMIuVES2ga7TCYv/5IAgUKLwqTQFclzAKFT7AA89ospgFB/HdRvC6b5HGbmEAmX+lw7n2A6HemQHNVPoQ+CqAmT9kMhBkyME8VdT4fBn2IQIOex77FSkO1oUocHx2plfTjHIKBMXWi4sJwWioHO1amzfhoABJmrZuFPhhistXe6httMj1bQUDRhkkE4AiAcySB4GNHHobkOkhLQ3ea4ACB490qeWI8SLgMQdjVJ8fnnym6zKbvTdfnu2VlZfe5nf2N/4917ZXVWkYYKvyTaId5tsZdAr5G9KSUenKQoSStcIgaM1TAIhnpDoZgXI0qh9wiSMMl3A6WOQwxxiLM3Aw/KeBDKMagCWJ+l1z0jNcbGLUNqvWg6saDFmz0LtgUUnXp2Ws/r2iPcMWpu4t040noMAAL4FvckdFyjHIT8Tv2cJoOiUsjWjRO1BBrnPfGZuxKPUs0OIKhAZbqPGzK1+tbAlT+HWJegpLX0qgUmieaw6FrQ+NhXY4g8uUt3u06lKki/iwFy3yYpylKEUpdv8176fK4rxHAMQDC6WRKhtDRUzkcTYpBtIzo0bBTYhPDu+zCAGYfUarmCEsTuFZOfAAAgAElEQVQ3KUQnckUAwfddDVp6toWdVChtJ23thwCBlT30RsLaxBiS/gyTB1mPL+VeKCSYnS4m/WICYJDZztQgxGBSE3OxMl0bm34/v8hbLad5paihfeUwQIjqJIQ6GCCYsdJDQCNigGAlq02IIfVBQHDY9gaIOq2N7S9jA9NEvZUTUVgKEHJrfn2NFzbrsz0HoUUN+u8oc8zMaor5d1UMmFDowHy+lIGN1K5qAyIZNjHcCL0K/rZVI49RQ5ktqBouGzEIloNgB0ttrvVqoNJouSV2vSpP336u7GuL5tNN+c6jh2X1Cz/9q/vnHpyV9UMtc1T30TqspeQMXWGmuaThh9DYFmJwgNAscA4auFA7ckWIwRmEWASmzXSTjfodxKpzeAPglYVek4fqmiNRDr2wVdDr0CjO6UovzJVvBxu50R75OVMDC4o3MwiQWypdG3gfIRQTAMEER429rl0ABAsRwNBz+ZIlBSkjgrwAGxOfYO9ul9uG4grXChJVLqD4J+LyDc5wcDJYv8hEGHVSbACCU9ehahzGWs9Xza0wD7qLESubpSEGMFsm70OAYAOGNzcEPE8YINQcBAO3Iq3VC5gFCFbSGS1PcmIW1sqAhLIpOXekbqfkIVklStR0p0CkAjkR3YkyR6evsa4WZiSAoKFARXXAaB7r7/0KM3Smy9D0iEywVZEnfcu9UFqR5LOF35k71Utve4a9PwiqsrQPBrSKShqMvIbEVNdSkiK9NE3XHYMwKClcgEZJgWndWPGZh15ssIg7D3p++iRF6Jk4X7YqZORagNpnGU0Zuao1lwIEYvfM/uckRdDzRulLyTZQQwYIKmfMVlOS4ohBAGMxyEEIBsFjEAIQ6sJKiwLPQUCBQHOhUgsQWrDa6FQXEw8xaGKnOwF2A6onBciw9nqNfGUQnnuu7E835ex0XV6/d6+s/of/5nP7Dzzals2j2oTCZroAIIhwO4AAVmsbdJjCTvRZW8VgSM8nHmgY79AJ2ko8LoBgFDKazagSio6PHNvUAxze9li88dMACMhB8Lvgoen8XdEeNbQHr0cLEEyVXBtA4MZCyLJm5iQDBAdvteNWXT8rn1JDTGvETsn8Yvmh9WQoqeet2bhb8giWAATExZGDcI0Aoa2D/34IMdQqhnpu7RzNJSmqhwOAMJGDcBRAsHNuRiEzA0GbzgMEblxjMk+ApA4ZzWOgE/OZbAULOTkG/sIcmJazs0QKdg4g+NOt1XG8jeQc9mYuSdH0JjfXwVmPCiJbzycGEHKOTmCRnFU/AghqAyhJEVn09UrrXb2Js4KKTBO2uRZTKkFA+yKAgKutjUGTRF3OQdCGT8ogTAAE66YrLmK4+7o17Cg3ACHyv+YYBADAuT4IcLItydVu+4zQr+nUKwOEyD0aVjE8d6vsTjbl4emqfPP9e2X1D3/m1/a37z0qm0cIMSxjEJYBBNC3poRkcocBAicgPjEGYQFAcJMvSuUAQBgwCOMkRQY+Y4AQeRSPCSDYIVCBUfYoofwumTKAn+jEywKEoeeHVQ4W6mCSYssgWAKeyuj/TwBCOTE7Y57kiEEgT+daAYLToZaF7WDR1t+93DkG4aoAgYUJRju6Rar6RWc+cKGZsT3EIKhkRjMqmHH3ztyyzlQxHAIIftbqOdyocW3c+utnEB4PQACroPRRlNUt9BEs1LSEQWgAAsKLzlwvAAh+R8ISgMAh1QCI0NN9iIGbKmk33Z1XJHCSIsK9fZWCguGmtN3EcbSekYNQGQSE1MFOWDJ9uj+o3g+9Ls8+91zZnawFILx+735Z/cLP/Nr+1r2H5UQAQhNiQFzQAWAbXwT10jAIHt/VGWiCDHNcFpdOVQxoMIRKgCgLkqdchUEI+O+XaXQhhlmA4NyKhwn1J64y2tQJCoeDdp+qYmgAgs81KhwyQLDn+drBWzdKexhiIMUGBCqvrZ445yAYujwaIBjKngoxAE+1gUe8nCQ8fnQsQPBECgp3KDuls4cc2iGRBE6s8ZEhhifEIIgHtV+VbS1ztD4It6QPgv2pZY6f/+3yxlf/spxWgOCE174PMTjqNvbdGYSUJ+edDj15c0mIIQEE+ADM4ECTHQox6J7ohU1oqma0fLrumePJgdWTmHk+U5ToxSjouJJMRg4Ca94JFEvEmhKB1EdgNklRz0rPIMCJ4ioP874dIFA4F2AlMa8cKjS5hzfsLGPke4VBQwdRWxc6Gu7TTYQY5hgEDzsA5HAG9iKUcEwOAigvR2keDtdqLYQYzJZ0IQZNUp1nEKCTwtvnypXDAEHHpnK2rJNiYE5OkoakZ4DLS+oAwXpHIMFacwSRgwDAbCGGChBu1yTFtYQY3qhVDP/wp391f+v9B+X0fFtWddEk+SvXG8tw3CA1fRBk7ZE0qJKcqTKGvzYx8ygiSRGC2VP6SjPp3dmOpJH05p6JLk1HOSK2ySvnpT74jiI4r03VLtkW56SLShDfb7Lz7Sk2NqbSNGFTvfJIyBo1Sso5BjxRnleeROxHDxA4nn7oHEL9BZXVxwNa6hPjdYUqsTRKrGlDDFOJjm19vqSL6IiChlyQg9BnPNm0mf7NFRuevGcpKpojgj4IYcg47r60ikHnYHFMmSOVuzaJnUG7t30QYCilkXW5/Td+oPytn/h3ylMffFpYnipT64f78ie/+3+Uu3/+VjkpNcRQj6++a10TjbzzIHlYwFEeL42k4gCikVTq4N5zECi8r91ZJZaqOQp23bOcFQYIHhRwAOKOg+Q8WUOrdE0eHIZIiozrno0laUOXyJEyq8YGEEl6gY8xJjPs8jq0hK/z0cRLTwn0mxbb0FlSTAZwDvRBsFyXUPNRgurnFeMxrAKZSiFQRzyUjkd5GzKydB8AwrnKgiSAYDk6o66ZweLqC0VDmBx3AMEqg7xaAmpbmBHItEhoUk1cFsp6nEMMNbk7QEcGQzlsAbcA1Wz5/CHnKtI991bqrkPiEAPmqmWOCwCCrw+tvXfaVN0qTJUWGzWNkoJBCDvaanDT2L6eOXxjBlj+Z6oPgtubhkGodzA9+/ztsl2vytnppnzvwQMDCO/dL6fnO7msqSYroGSE4x86YCcrREj0xkBDtTJOFZ62U14OE7QhBmIlLObP783CScoWmfbszQHEqF02J2SQpIgLJ0XQpwACuvCp8OT7zae4cd4soNZpgNDkI4cyGlh13B6nmxu9GmQklIMAp7iuGy5r6noz2/Pbw+ZgR6UsdJUrGS2lxGEcAQQAOk8C82e1QBHqcSDgpCWX9EEYLBf9yKjlwV0MYgC095SyXOL58WVNcckX5B+60bOM5QcWxkBFz0GAwAmhMNBTAKEK+qbs1qVsb9RAqZaOVQO8rj88L2W9rV1N6wVOlXHQ3yNJURcilHHQvohFWikYon8U+/TENEUe4SRAR0nctoIq/P6aAIKAhgwQWK9whncbz46TmfuejAFCAA2VxgYgoJ08yvUQipsVOJO3iUZJuM0RN62KfjPUkubSODf6OQWGvfbJAEFldETpIy4foIYrgdjww9Ao1mI2wsjROYDgicF6/4nqH/wHRnbU3TMWNs5XhBgWAwTBW1Y9II8cAQRKUhR5s9JWa5QUiaJ6MNgG+BkSZRslv+6dm2pzcAaAIHtSSzbjum/YH2jD0Xq34qb7wc5P8wlzmJYDhMog1MRmBQgXq1LOayfFChB+4b/95f2z9x6V0/OLetmzZjOKIOY/yAjtOimCQUAWbkL1o5N0GCDwt1w4Pc6M7F+UjsRIA3lCg4H6DtOnqA1gB6GxaQZBO9NFCZcenGA6Yqy9oYuDPMcg8ErjGXn1Pf5ExnaOQRCTQFfKzukzjNFBmWfk50xepejs0wbKvNXydTEIMFJgjS2X4GAOwiSDYHslB3mGQbD6J6F+G4BwKQYB+yTjJ1DrynYpQLCdM3Go/4NOJXKbpRmwrdxAaXHeWkI7xSCI7Ia+Vqrx+wMgaCVUVCm4YSEPeEmS4jRA0LUMBgH/CgPYAwSo7fjsLDawX6pXjX/od5kt5eue9Q0jBgGJv7FnqUooDYRmzZUmYBBcjAwgJMDXNI5rbc0E2IC+mGQQPKwXbGyEj3hdbV9I5XHkcZSkyDqLAY4PXdSzATX54QAgeIgY41O7EEC0WVNjyfCOcMxC7+u4wbCgpD7kDvHcJQzCwUROMAidQOq463IqW203vgomVDumaCcApNj0umYnG6liuFjty8XNUwUI/+inf23/1L2H5fSRXtYkAMEoXqZ6dBw5fc0Pghxu85QHACFRRoaicqOkPsTgGwH0uhgg4JvmHUApEArmw4oe6NyH3UWDSgKZQs9lOybZuOEv+d4EhmyF5m9zDK/HllsVupeBYmTTDEJf5jiv0lqAoLITLVXj2z1AYPB2LSEGHqqfu+MbJSUPCzTxJECAF1nzMWrvAL6LIZf2LQ0xQCXoGbwaQEDKqAiCyEJlCiw2aydyK03H5gGCnwqnkr+PGARS1jJO63WPswlWahFAMBZR1ojCKHN3Mbix6xgEEkgHzo4C4pdKrfrJ7/Um0eFCONn15XjUAoDgZkbCq8zvwdjmsEsA/lxUCBDUlq0ym5iMIIVuOz2O36VWy+bZynDq+ckAwWl6zwGY0U8TjZKWAIS+isEsGOxTm4OwRx+EA0mKvmdNpVaSt3A80+5Ugaxde4+4rIntYGLOYA+b5fNUo5pzKGHGHiDgkrZRFcPTt54t2xoZeOq0fKeWOf7yp17an757r5QHjzzEkGPAeQQsnEsBQi8C+hQ21CMCWg+5WoqDiIoEman7NF4CC0G1qjc3CxDSs23Lk8JQinU8TzsoCwGCKwJ6GNgbjpklBsFURmDHyzMIGmvLRs2OVscgXD9AaDPEde16BqEBUu0hYQU6AxAiFqnxcwAE0/YeMgPt1wMEA8aG5t09lfEwlYqsXSSyRUOitn12yLp5lZZmaafAyrWUEZEzVOup5SxpzbyEGCr1bzkIem6Yzm08nGRQNYEph7Asf4FCDGGecGEbGSe/fp7nTy3IzXCkHIQWILgNjr4L8Ow6/dOwR6ZZ5AneJse8JdkVTiZMclPnQiGGYd5MeItZ5EaM3/hnYj47dg/Pbb7TtFr28OIMQGCDYoqzKYKI/WyNTw88po33HIOQ9W8LEECH8VrCycLE7HdXBgiQ1AHLPEpSpLsY0hy4zJEBAlhVWzjP4eG+MY2M1X9Od1I0husgC28P7cqrkZCrDLkAhJqk6CH3+cua6uNuPvuMNkp6+kZ5o5Y5/uqnXt6fvH+/7O89OA4gCOJqOimS0W+FD8LK8fAxQMiHpQMI4AhH5tgXluih7jBlNL+IQegAQn1oVrojgCBe3cEkxTbEwP/Wd6jgwcgY4OAqBtyCRsl9syGGCaOpxilYirzEUwwCN9wh1qb1uIy+82embo04dWOYeDxAQFyflNCAQXCAINQbtVqmxl7gxgDIQttSwy4Zdig1KHKdFVpgBygWMh0cNMDF4LIm9wJT/LbKVACE2KMo4Rte1gSGCy4G6GdSRiGvmuVcZWHkcbJcxIVtlNDrLcoR4kEOz0QVgzfsmjCqnqg8qKIaAoRgIQDunEGg3IaUA2T6rAKqeKRddjZtJ4fhxmMYBAY0PS9gjZKc5kcOAn7OcYx+7VznmhJRogOwqTea2udAGeRDf2ZDDCJj1unUdYqdF5G3uMnS3+NJoDgzeqQuG2JQtq2fie/NIYBAdiYc4ehKqpU2CnOxXGOA0IK/dUHfrr7VcgAE1cWH98EbB/q5xhiPu4uhqhQGCBdPn5bXK0D4lcogCEB4mADCSEBykiI8Lrumlig2ntgcA9AChKwQo5Xu6MCNFjA+lwECg5JRUs5SBqEzmMnzmWAQZgDCoUPI9yvkbOQmxDADEGRb2oSlGYDA3vN4vpHEqpebqLHzw2Gm0hXz4UnOfqLOewogtF+MxCYkpgZAmLzNkRoGVflBiGGkXnBeI3SgXiqSsPSm0frPkAWEGNBymC+40vFPJSmCPROf06baomO8R3/u8U+6rCmDlLxibfw22iKb8pPp9AwCYQyqHIJRgBHiKgZVpTFXNUKUWjfMo3X90LCIKUnW6G3MDAY3qFZUKUCht/wiEvIrwDEGwRMM4w6FMGSWM3BArrvkSeQGNAyC6rwxgxDrhaTDaYDAe6JHHmWTkex5ECB4JvYCw2TzV+PJtzlGcncsEc+x/jRyAsbLSJU1g0ZJ0O6tfOBZnEDczsSZV193lUWxAXbbLe6w4TWNJEVLWJwACBxqCp0dZ0NOlOXAXRYghJ2cEEJzzlRvotWyIgDkIECTuOaov66tlp99tuxubMrZjY0ChBpiuPHe/bK/nwHCMPmDcxD267jWVJDeshwEntIhBgGGG16+QTavs2KjGYfCxcTULxGilMBzmRCDgpJQRdELIYthqCLoxaVljg11XptpSClZ35w0hRioimFRDsIcg3BEDsJsmeOMAh0J+JRCrY+ZYxCG3ppIo9HT7tlPJSmiPrq5rEk2cSIHAbEEy71pAYJTwWhuQs2n6niVQWhp9/66Z12n+WxvVW6WbIgEqcF1z9D9rdzz+qW/G3Dxn3VVDCpphxiEuABIq4EUQfUAAQCCDb1So20fhP489zql0QEUYmDFCMOshiAS+I5hEDgrqzVcU7pOgKi9RKHBIElRftq2WrZqEfycb1w1NzYZTWFDAiA4WBTLROab+9FwQl8bkk1sk418ABD0yeHgta2WBSBwhIGcCv0qLr26DIMQDw43sWdLggGO8LAChL2W7bqxMbCFJEXTnXMMArBHVDFQTldlqi6Tg7CI1wF4VYA1FWLwE+RljpqkWP/z9K1bcg/Do5sGED7/s1/Y37j3oJT7NQehlnrlzc2Km46D3+ZoDIKKRN+LYETP2/IfAggw+mqYbZPVNU0eqysViqdiEZhm4sNzGYCAMQCJT5UPqmwRx+WXFak3PGy1bIoiPPFA3QBf7GlkgKArIN81RXHpEMN1AgSEGfzMTrAsfh6tdwSOJ8p1BAnPtFoGK+osv/5F1kJeOVfFcCRAcGUG1d4zCCOAAL8VHqMqDx2bTvMAQLClw5XdStPqu+cAgoxlHz30bTXse/m8qkyhSkirG54oQKCwlKyThdYUVC1rtYxz0Sr4cZIijJyuCno+hJTm7Pekh5z2VzlzFnJC37GuexIAAUyVHI1EVdd9tUY5SQ9n5gdyAiawZ5sOAwQca78oyn/Q/4V115UBgslRPHM5QKiz2votuPo9ZUkkwcd7YxwHEEIv17W4FEAY5iVEeCNsYOiUqSTFWYCAVss3610M98vqF3/m1/ZPPXhUVpKkyJTsyNgPqhgICbMwsQhkz2Tg0Sd0FHQbe5qdhzkZX3JrY9nQsTktQPDN9yRFNa8OKlDFwELiO9GRV6MRuWNkJNMAIES2tRxRV9IACHwRkgEB8zgwWCTPHQ8Qomulr1oDEDwGL4bMVkZ1t9/cCWOXQFfKsp1I4uQkG9kMoh7pXcvLHG182ETR6LaOoyoGJBnZXERxH6piIMOg2gMvs+Y4BrCDfRDTFrDC3IsRQGB5xN+leZm9ZrVbyUUq+9VFWe+35aJeLLW30mSTCX293hqaGyVp+SMUP1cIOCXLHqKFFlimgp7Vd1w7gyDnLcu4XCJU80MEIOQGbmP2qHcNRI+YnlrCIIQGyVS4SFeb5EhUvuurmUoukcZDDIIbuLiYSscEBqFphU7R9sQgmCyQeYyutl3/GAWS6Qw2dtzX23J2XMa7uxhGycbxsGBeSTf7HPS8YszH5yAgV4r06tRcfUjqYQiDIO0mUG77GADClTop0ni63BtziuAQSaMkTVJ0/llYf+SzhZ1DmWMVu2eeu1W2J2sJMXyndlL8Rz/9K/unHp6V9YNHZdM2VOkE/RoAAsXDDzEI1wMQgt65MkDwxYfLykIfwCcUvRkoCsGMOikyazAGCE2pUhNwfHwAQY+yMkN62YkzlkQ5J4Dg8WJGt5cFCGoZlwMEU6NJiTPQMgDo8WDqAcBJis5EDUIMAAiu0B4fQJCmOgYQ9mtdh/PNvuxWF2Wzr7HFdVlf1BtVLbkU9vXKACG8aS9TI88YBvdxAQQwK2Io5PZV7cD3pACC697uYiYFCOj/AbAFLx36aghcOAfhIECg5GTDBRkgZF2TsioojKqYgnVH7oPggJFL/wZzzp9TnaYhKzsfxwIE0l+cLxCMLN3LsTAHIRzIYwEC3MEKEPTvo0Z/V2MQsv6+fKvlEQNrgBp6lxyzaYBgjuEgxFD7IGxPVuXixkm58+isAoRf3t98eFY2D86uHSBMGWSvv6RDwygXh+H6AIIa9KsChOlkojiIyhoTmjOvCGGCgwDBM8Bh2DQOx6LB62I6QJ2LpSEGz4ofMAgOgnLVhN7bEJ4Y6qhldKLEc/e76PwIDTcS7mCsAmqF76DrfXwfBAC08JfzZTShwONGv1TF8NcAELocHusGpw1fSnnmxVvl3/h3/62yuXWj7FbbsqnrfbYqr/3TPy13v3FHmpy59z2TpLgsB+GvCSCIjCVJt54uTxggNJ5l40h76XV8LICnsw+th/f9BBCaSoUIy4SxbOfcOj2TAGEy4ZKcqc7Bye2bq64J4NBf1oRRjvS5UgAIf4Dx6VnkyEHIAKHqAQlnNvkWlwUIDCKxAlcFCM5wu7NC2nMBQJgMMaxXclnTdrMqFzc35b2LXVn9j/9dZRAelU0FCcYgtEqEhaUdHCPANsQAQ8bhAd5cNW5t4w8zQpINHgakpUF5HB3CVehsSBcdo64OENRTjySr0SHKPzNhnWUQskK0YnalpB1c9J0tu3dLc5n5HIRYT4CPPps4EsmsFEn2wOjHJAiImUdXwDZfxWOPuHzn8IKRpEdo4FgGYbwHE0mKoObFSz0ixDDFIIhGYEA6FWKwtbcyxymAoId5XT70wx/9f7v7ll7bsuussdZee59zbt2Hicuu8nUHgVLVTwOwg0SC3aWfBiJ2RA+JGONKIP+ANhItu+y4XH4LENgIITtEooOEHQQSLRrEdhyXkii4qu6557EfC43HN+aYc8312Oeec13FiSq+956915qPMcf4xjcekz7293+d7r/0UJ/Pe/2U6Htf/vf01g9/LHcxiJTYeYpAdFANYyC2FlfWPbw9gKCKmMME2sBN80FsfVKnAj+vqVw4KvrnCxBEfiD3C0r+amI9CIm+JwCCJQAW5zGFjuyyvok5QwdOAQTVM+Pebrle0d7o7543QND28Zwb4DbpBgBBVYKxyxNrsAQgcHgwOpslYME4o+2Tf1sAEFKeESLglqTIAOHhA7mLgRslXex7zkH4cr+5uKKOwwyVjGnfvBQcVNqKFZHcDFWo4yyOab+LnmftNA1+bxtlXr8sTkotVQUmNF1IIsKhro0ncOMeQ0QSoWW7a6OkPAeBs4jzXtnR4x28KJY4GEQxmt2/pnGuci66JImqDlkaQblOHTjdh1mA4Gs/MQ+XgfkD7vvva4kDYoYg8ybmnzcw7BbeAEBIh2GlrErM0C4FMZtr8hIAYlVwU/hBzLD09YD3oIbdWRNd3HhFQCHJAcyahyZyq5l2IVRjsm0NhYLbr58LTXQkT09eu6K/8upL9PF/8Gv04PFD6nGR0DnR97747+itH/yEun6tUsShH7m5Fd360hxVygAAEDpC06bYH0S/o+sbuL1IX6N8N2TA21St1kl7QEb6W7coAAQ3mijRhIHynbbyM4NPFjoaOAsZsxVL5PRQyE4G+UghkhgNn26+lTZ7gRzLDVZprTP2MuQgJKVfvltlrV3p9dnQByq7sU8DzpnuLAxKlifhch7WNDAI6TsKC/Vd43O0t/jJFh0wKDU9EiCYlOgIofvxZ2UyVyu+9yfl0ai6R6VSHDFkziRPzlRgeKO8+ixQkhtyOyS/WddBZ6Pjymem4D2qb11P7BG+r9/CqqoNsORR+UK+3u7IxbyZSgXJcDyGs+2R4iT0tmYyn/xSRfmYnCnrftE2dE8AAlFztqHLQ8t9EL7ad+8+pfby2g527rknWh0CppOJhjZRVOalYykNTamijMYj1621mJ2Ls9P1bgEdIPSYvH3GAZzvWMjCjq+EQhHlh3gfFLcaBVdmODAzIGc4B17lxIboAhyKOxIgzHnXuTKUkXIU8nVLf9PnpMxaZN5iLguUmj8sXmKS73l5PNiYidHEeusm25eicTjm/cUcG77cZEV8UUs6iNZ86FiAYAKSyWNgqRyIyr8hnGJjt/JENU7lfJJSysXMOhM4ekugWjEVQAo0T7FfMo4DHZoVvfjKh+ljv/nrdP/xI3/94fxA3//id+itH/6E1n3nqjWBnWika7JjcmdymlG2fl7NaAP/hLnIQAw4wRDn5ybKT1gj2Yd4zvy02x/CuIzPSJufsvL9zA3OpgL7+FT36CO97U3B9JMKeGMHr3Jfp42nPcX7KehDJevNl0n/yRwerB0aRUUEWoChqA9zdgIdyIIxi85bBoTDfiQ8mxzfwmBWtU2x1gKqbc1yvTnX62BMlwWtBqPYWFM+BggG+HRteWmDzRHZVJ2U1r4AuW6GwgL4zaOVpFC8SGFmHJy9Jz0n2YCafkhNrRRUmUuYnYWka/LV8cM3v2gBVOQsYmlr4qO0RQFfzcpJinzdMwMEvp2p+eJnviKNkgQgWN19fXDxsCsa0RpoRXjASBGdY6fm8ORigCBKS06yGXE1Gnh+ROTp3WXGL0ADj9ta1MraaPkPC7snIZVVDKNeahxFUksom5J4vQARprECEvas7UKgPLsfTaiSlzcqITHEwJcUyr0CNzikXpoYDb39OayHK7og05niykocnwEgVPsgaKy6pMira+NVDOka7ySjUOmqyPV20iGDkMCwkURlW+2yGkMWx5rsVBgE9EFQdIWmTmp8cipR7cuBVvShV1+ij32qAhBe/w796Q9+RF0ACPx6KAc1eBUAIzKJMkkzLkWCm383dGFEMyistTjLSFp3Lyec+CgzYS+yuRamYs0AACAASURBVAInFbKHp7AsqzFQ2qXGIAzCWzLAENs2Q4lSbM2DysepLXBNWbq6m++YWupLvfYaB8PGgZ4OenDkbCZ2iuV52DmvphdL2R3Li5IyR79WGgnDwdCEu2N8TWeqGHQmylCJcxC8eA8VFzpi3qKNfyKydzib/mkDqnDxMjhY5CAALKp3DxAYHKEo3wBUkRWViYP5SjpD86xsTS1BOLFuI2dAGiWpA+pniQEkswoApwMQa8+qtvMfXz/RAXzbcua01WyChhgYIPBtjgcOtaw7uuZ9/uI/ebNfv3tOzYUBhAissoXRQaZpR1osBwiIY7qRHqFH/KBPkFqgW1wBACDId4oypLLqwq9MNTcXeymfCwDhwApVkbB23CuhjXUHO9LOqUOdlyaNJSmaPnMKOMGe2uUsACRBOBaEGOYPK0IiWq2ih0nVgo4vHRLIMDBTJtOZTB65aJVBzuUguC6vAbjJMsf0MpYzCVuZ4sa8M696DODbO5KXGo0CPA87P8ZOJCYCiirQnDYPXVM+vAwQXp4ECGtap+KwmKQoz0rVGnF5lXFCSRm6BgYFqCbAaWd4iOm0K5hWD1LbVaezj34KqXRxcGU5chBqQBlgwXrXiywKQKgwCFXBDqfYPXXzLwp9I+sMXcE32WYiq0ojyvf8ObLjkqyZAwAxKdUqhlgmqwNUpsspOtuYvJIskVBDkAd59rMbQ37PUuZoc9B1UV0KexpLoSfXKezv6OfQiMxCDDvpCphJsO0NjD4YG1+q0TBZrVFSZmsAWnEG5O8ZDLGy78ggIGzgiHegN5f2QQiik8Iukw6qfgxBM/7oquMKJ85MivlOxRxUOFTO7LrnA09p09EVszOvf/ar0kmxeXqpDEICRBYWSAc8AwhQCOI+QGijB5Qf0Ij64xY78hyRklsBCNGKCfoNAMGUZwII3JDHfQ8L6qA/wVLVEGpw5RShk2Ly7GRbMkOgSko3E8jUvLwBgKp4hNZ4Z1GjpDCNyL7ImOTqZv9XNSCg8UCvm9MLg6Eedr426brboG2XKIVyiReUOZo6UFGXsarIZ4qx2gchveyZAILtV+5dw+DeBkBo6EOvPs4AgmAwDjG8/h36GScpCoOAOdf6IBSGxtgKVQ9QqLH7nXmL1VbL6Y4RYRAQEbD8GjVsADwxryACztBqubxOXQaVBCq1wAVVnxvD+qksAYI+L6nuoCjlV7GT4hSoLT2oKZ2AJlqpZfM4QChzkwAQzMkoPVW81g3XECDohO0kuLcLlBvnH7zq2TLH9B5ZNQNuvq4I28wt0+xtjil/hN/DTsJuv5UpRZ2l+qrwvs2pSSGokbmaROAmWm0db2WOASDoHG8KEOB0JX20pFFS0EwWS7GumFVxy0GKbbv1QdhnAAFzjUwU+iAwQLj/6CFt+wO1m44ueAu+8Nk3+5N3L4kEIGSMSUjRiMNNAqexFOUXddPmOynC4Lt8D6oY8hUYAgQv9h4s1SDE4LQ7FIA59FmzCFVaQvvIeQKDgEU378i96SmFEH9Xq/3nZBtcwZlyGt24ZgAhqu7ynXcIEIwu9gQdmbcBJCRMFRf/6O9zpZoufZpYL/lK0CShcsWTs2YAgu+sPUYBZ0w2CmDLgENO3RoctLBVSlKE0Uz5NjW2xD7lQCpNZw4g5FUMiG9GGQaDcGh6evGVx/TxT3+C7n/kobySUX7zZE/ff/279LMf/JjW1AWmZwQgFFuhLNHQI49nbngXgyU62aVGfG48zOg0eurcmO53mKhiGACEKN9KxWtYBpdfzwGEcHbh7RrgcCfMlV2KDXvr8ClPbQnIdZEWjaJGLVYxVK97Tl0ssU0ux/KI2H44gTpFPJX3BIpP7WU6B+XFci5zSxsllQzC4LrnQg/6X4PjMbuOSX/y+DgPqWQQvIlbxhynd8QQr69pJcRQBQhhCr8IgJCHzOZsTgqDRVwG5lXAuu1/00YnICTlsz4RgPDIAMKKnrIufeNz3+hX7+hdDAr6QYmDV0uHTWmklAfNAEFiHAijmrqvNppwbzmHlpFBKMGDZHVbLM1jesVaZW1AkKEa8suQbwavXDuzFcaM7+iuAAQdj/aQj4pubrv098U77O+TIYYyRxZrhqdhk9UN8WEgdhU951qr5Slw5r9DbC/sVw4QNJNalV7BtGQLE1mIEbBTAgQ8VD6u72DhngoxJGWaR9qCz5CSbx3Eorw29bof9kFQtIzYMNiSOMQ0XVW+Q7BsDYzGOinqKppklCEGZBwzGNjTi68+pl/91CfpjKsY7MXtkz39ATMIP9AkRa5g0EUbAoShzEoQdDSmr4/R3BnEVXUNDAxaLh/i9gBGJUBbdBeDN96Jo1TmgQE74ulY3xT+QTlc7tVmhKE3zTID6cYfMTmsJi7RyZvahEOGVZ8//nY2EcZUmUE5cAplJdkdu4vBZHoBQHC9bOGU1JI7MkdBlwf9BNlOwNr0bmnEkfcTDsGAQZAzExOdi/dLvxSV++kfnH8dC1fl7PfhDgdzZqt5SKZ6ouz6WocqBgVOqQSXZVlyfrL8ETtSRuy6I2wsc6T0k0qGDOH6ZehCfZZUp/A17dY/pgy1q3c/L2a5/rG/BbugOQh7DQGJJ8BhQJRiQVVYCJtBuAGEHVdvrVu64LX52mvf6kkua7qgfmdIVCjx2wMIcaqgNlIzoRRjnwIIXhcaYqaDrPrMy4fnD1lMSrwKEHCBRmAQagDB921uA0dq/3+RAKEmcpGuc6MwSASbYhBy4cc7hk5YbcFSrfvocWiWAYTx4xTr6cFyLQEI+sS7AwjLGAQWo127ow++8pj+9m9+kl746CPacxIqK5one/reF79Lb/23H88ChNIjMb6sChAygzYLEFIJYfKSE4MzAAgGuhVaIsaOznzTAAE6ABoDty9GL910/mDvELJQo2BhP89FUoO18iTFXJryPICQJT8idCkXI5RhzzIIlSRFdwzCi5jpiu4H5gLHzd7jdzF4J0WcgyGz6eBXckESo6L0UjBDUg6Xg7FlAAEJoWHkRzMILe3kPpahI5AzgtFsJnBbAoQUwsoBAr9ADLeKhP9UQwxmdNOzEdo09IKAlrM8+lDp2MgAQTBqCh1EXXwTBqG0n7jNUYFqAggp6ToyCKxUWrr/gYe0F4Cwokse39de+6YBhMs7Awg1wy9rFg4N/l6eOQCVwYKhGmmQbAOlbmSIs5XTAIFzEATVCUBQgc4AgmXtJokZN0lgYeInMP7/HwACHARdnyE1Kjo4xuwsuTGTA68myz2JXFZ4H+Y7KY7tBFImcNLBsLjRD7fl5QxC8kyj53e7IQa0Ox1nEFiPsHhv2wP90l99iX7l7/1NOvvwAzV+rPgviP7rv/0v9Gf/S0MMxzEI8bKnoPTRC8TP5hyDsBwgqKzAQh8PEHCGljIIGXBAiKEACNHciN5GDDrQ6PHMe6JlSAgbyJ+V38V7DSBH0j67aWgfKozEC61VMbh8xtsP5wECAJ6MK7ZaDlUiUZ9GBkGNotXxF0Zc6+VvABBUYm2ZwHLN31KKHjRgEBggxLnxE/VW1FqV15K20iBilSV2BqESYoKNTboDEBc6MOWZpFh9YGKCnUIfBB37PECoMb9R5hSEDxkZZRD4LgZLvA2hPDjqDmV4DZtGchAOLVHLVz4zGP3yZ7/Wd08uiS6uqEdJRGQQQoZxGWLgBd0XIQaVyRH3GodqoIQM1FdShbE4ywFCeLflICQ4qJnQzoCZspAcBGYQpDY15SCMAgSLv05BhBpI4M9PVzHkpTSDKg+j5mRcNwgx1Ma7nEGwshy1Tn5QUbJXTVJ0ynuEUYxlQtXFVG9nroqhJm/J00hekCgSyZOBjKLJiV0I5J0UkfU/dhdDMdhYxeDndGEOQqE4k7JTupOBwIGNyqYjetAQ38nQNSvLlelo+5dbanZbaXI2ChBQvpzYdCNIh2WOJaidDzHMAARrNqbPPQYg6ELqzYOhwsRGLuq5MAxJV2AWEfjYxrjx1rTEVAmVGIRBU6VsuzGuQsf5X62aQ2jqZNifJ0Dg85BKtStJikW+UFpH6y/iy+felZ33IwGCGIy0TgkcLmAOLdQNQMAhBgAEDG/a454BCN7gqBJiGAUIaS7y7kJ/uV7x/JbIJKRRO4MgCZbzAKFUjQ4YEA6WsoPhT7rNcTlA4EZJ1LXUdA1d8Qn5wm+/2Z+cX0ofBM08D2V5mULR37niBRrx2IzRFRU0V0N40fDXSWpTKaYcWOiTgNnhzqgbMBIlg4CkxqRwUmKPED7WrU3/91YBgqq4kMQ5DhA0j6BuSMv10Q6PSSiOzUHIvAcwrh43LWvxQ5dGGWMsdcSa2nBCJ8qUmKJClBnxzDOpC7fu/jxAqJ6M8I8ue2IL7Qpjaftrwu1gh2vRuXfELjTKWgYQ+nhAjwYI+QziWUGSIgzrwe7kSCvGlzkBSBgTYfOZ6oOgxE9qCxkrjMo/DwFCvtde5pgxgkWSqF3sNQcQkoyAvVOAALpcPK5IMc8AhDwuj/2O3qY+TYGC9nVRPTPi4Ii1GvNY+VFqUD15W+RX/Nw8STGUOSpsmmMQMp6/GmKIbIlTyHrwPP6czpSdLRO9HCDwu4KXHxZcGbiUKwPjjU6KvprmgWlZqnnRAx2wjEG4EUCwMY/nIFhuja0P2oCny5ocIRkwunkVQ832LWm1PAwJ1tISpoHW2HXPAN1+J5IusjgiL3zgIbUnazq0PT3hkM7n/zEDhAtaXW1Te1CU5ZnHmlDg+xUgRGOKFlbmXViZY2qSMsMgePJcxTRV9cqyPgjPDSBkt7ulLI5IAOZG6oYAwWkvVShDgDAFDMIBXVDFMAUSsrnYXicFzgcjleO99wBC0s5TNkvtlho5zGcUIPiyp17v7wuAgB4VxwAEVFWoawePI8hiBSBIeCwaZJMuhEaCwSvlTjxKlFFPNEpimQRLodsxBxAi4i0yr9xJSmzJECAUeRNFfpSH0SSkcQsAwVgxkSuw0XEZ5ffh/Jd6U36VxlGGGLAaowzCnQGEkJMUGQS8D8xkYBAmAcIROQh1J/r2AcI9Bgina9o3PT3d7ah5/TNf67t3nlDHAEGUTMkgRNr72QFCLZ4yxyAMDIyhbvNN/fR4LC2rYijp+BsChKPLHHMjh4Ssydsc75hBqBnS2trfJkCImdzJ4zClOGXZFVYsCjHEx8ADhJy9lwHCGLMWDbZL0QxCmAUIlS5soocHCam5tn4/Mwh5DsJCgCDEyhiDYLqxwpJKmNIZKqtocTFf0gdhIkkxOyf1HIRpBiEBhFTpFOjymG9yCwAhJgCWJZU+lUV9EBLoOSrE8MwAIQ8NyDmd6IPgAGsEIGR5IHbni5CxtwEQikTSKCp63TPnbVhoqG+1E7WF7WoMwtmjB9SebOiw6umCGYQvffYb/ertd6nlTorIKr5DBuEmAEE3yEo1kCSTVTPAOYjeLpIUbwkgWBONOZtWzd73RkkaT0cL5LIc665DDFMAIQv5DIxGaPy0NMRgDMKNAYL31jgySbFkSOJc3mMMwq0CBPfKVBm4nIEFjIo/CsL7ACBIDgIS0o5gEG4EENQbGTnmurZyVsJnxNeVuD/nhlgjtqMZBEmOACwGr1CpdnvvA4RU+jdkEExTLyxzTKDueQEElDkOyuenAIL1A6rlIEBWokTdXoiBBa8I1QQq+OYAYU1919CWt+/N177VN2+/K42SuO4C+kRpqvJ2tUBv3TAH4UYAobiNTYF5ahHrlFPZB8HjiwAQQOnJb07JQ5r4hYKcAetVYRDGmY/0bcsjcfCVFDd37EL8EUoHZTK5firfozHLGDZRpZa8A9xMOGxFXXrbKW6Yv3MQAxvJLRF9Ksk2oeGOZ6tg5ENvRd9WUCYh6cd18EyZY83IJiWUN03KGqt4NRe8lCIHwRRC8g7CLYHFhqS7CFIejCbRTfVBiJcV1dYn9UFQmzVmtPSdWE4tyetp1XXpLg4wg7bFyhyYIZwFCLFkMdXyw/s4JgdhtNVyaY5NLOLaLwEISoikfboZQEhlfvma47xp0pWvYdibNF691yWTw1jmOAgx5EyO67PsOuy0SKiyyo9QHmJA0yfdp2MYhFxnxOqD2IAsY+iKRkkFfgqQLshquDlYbI1uXpCEEOrg5O5jkhQXMAhiWO0MYLySg+B9EIozOQAI4UK/mRCDHMkA9W4VIBTVC3mrZTAIchG8gIklDAInRDcbvgmyoebNf/r1vnn3CdHTK81BMNujDYXSvdwQdlcXzwIQRqoYarA9erbxQOje5ln/eYjBDkzF4xhS6Jb1W1z3bByQovmgSGH0a+Md6DorwylDDJ5zIMZ+XPkDCuETOcDSAyW2YyFAcKoMpYeWoBUT4rTMqaCajwUIoaQqrklaRygAnkNUDPpnPXOauMlIWC5RcoW55LImbZualE5+WZOuf0y4rAEEbQqEmG5ifAJY8KMf1ssqf5YBhBxEpfVZDhAqUCtjqiR0GOiqBBDqjZKivEcsFA32jQCC2B6sedHxMgqJ7duNAIKf99wJWJaDkGQOmYCu2AetinE/izoV2ZrZxW81uedRycVDVubokl+eL79HpmA0LKZfBoLKEMPNAEIAgwv0ps85AwhRV4LtyPtB6Lokzze2KE9A4TkABEA4Cw0sSlI0vZYweaySMiAfGGNlEAJA6ButmEOfspkqBkjxuDOaWxy9FFBVnzIIfH8FKlmOAQitXBLX/P5nvtKvnlxQe3GlOQhod4sSisxQBAx5xwChxjQMAEKez+veQypjyxN6cm+wQNzIYHbjZJAIyN/RLbwomDGo5zpc8HiyGbcseSx4IuMeYlrzck1gWG8TIMCm3hVAyOuhwSCknhM1gHVsmaPusx1c18DHAgT1JgYAQShkVXDq+aB6x5ov4d2LGYTomUblegRAKLxTHleZpChsIFgDE13EIqeTFFP29HMDCK64Q/fBBSGGZKQhRcELxD9lhtj5s1TFYKA0YVb0BFAPd+DpGut4DEDgdcyTFCsMQgYQwnwWAwQDsYsZhADKKzrQR2D2YJxBmAYIplVDt8U8KVQrbHLQzN+5XQYhME3iQ2gvFzAIDFhUcoKNAIPg3WzxiQIgaDGvf//uAUKADlap9WwA4b7kIFDHVQ0rar7022/0q3MGCOk2R4+xDbzGZwcIY6i6RulHD9ANFujHUQahKNNbgIQ1fmglTuXhABGeOO+R+FmOeCV3JEyqziDACE1RyAEgqBbKPFqnVBcwCCrz5sFFBsHvrFAKKYYLkl4dNiNxdqcWYhgwCMYU+JpYjbTV6MOrdWQeFu+9BhAivyzKQGQSjJVVEzxHgFBjxAZVDKFcGGs9BhAia/e8GIRaqOgmDELSL/G22cBRzQGEmBhkeRsKwA1VRQfKjUg0JyinHYb3QKU/D4CQwk5HhBgqLCGAz+0ChErsfOBfaX8C/Nw+QMAFTwVA4ELOqKPAHi8ECKobTB7Q5vsuGYQiByHpz5syCPdpdXpC/YpbvAeAgOue1Wsy6zY4TBEd2cLesA9ChrizKJVhzNnY6FiIoYw7q/HlLQPttjTEkCnKuBa1NqEzd3UvAwg1Ium2AQIQkAIFvdDE9tJiTLcDEKBQPTiiGyvGNHoIoZ1rSK2IDMbNAMIwxSHWxc+HGMYZhCFA0F4X6Udzd5aFGIJ3mIWyCgZBrn1OcVrppCg8hlGYwbOrMQgSqoqkihzxVJ+fnUfTMjBoMbyVGDHdyqNyECZCDO8PgJBAgoeUK7cfTs7F9viuGYQcIJhw+jnPnRkHYkW5JdiSMYbJZWY0xKCMS4y/+xmZbbUMpk6/cRRAsJdM3sUgYSANYYJxjiGGOG5ZnwwgpMil3nFgNstvwX2eACFTPJ6PJDogq2JYmoNwn7rTEzoAILzBOQhPzqk/v5Baav5BamJmSC0pMF3WpNdsHriKQnRpyvBdQk/XAUIeN0TsV+xKGRMfTVIEbQ2Prk6RlkI/xSDY9g8tToZ6jWqOjEX2Z12hoWcXKgTSbd5uS00lpXQ+B2+WeCQxcn3RXJJiPlwABNhsYyZqSkI3yw8UjKFew9tIMlwtrJMlNaUG1oUxLdAhatdtsDy1OYBQZpRn8wx/8Xiez2UqB2EKIOTUdWS/QFrbklm3tTIGq5TmlCFRg64hDO5YcPrwPn34l1+m7uyE2r6hA22p3+3pz/73W3T+l0/s7Kb54LIuNfIh3ou0jGcECFjWOYCg77Zch5kcBE+wGsT0l1Ux5Pt+kxyEkiUz4GcbLP9jRja9K3QXDGzjmA7kPRcGIWu1PJakaJeJxZyc2KzOBzHUm34Xg40Z+TzSLKyoaIkAoczej7q3dKzmAUJwNrPNyY3a2HmNoPs4gBBCR4HdSzZHWZ6Ul2I5XHxZE0urUwiw/PUyR7V6eYhB5mLOotuvO2QQBmfGFs1tjbWnVtldloOwPlOAsGf3443Pfb1fX1zR/vwp9VvNdhQgVE1SrMT0BVnBFMxf9xyFIQmm+FvBJKQ4Voli8f3xKobbBQhpvDXvfijaNUpWjfxCgBDOTumtYS2slsos+20DhFxZqSikbmjDToopJ2Mw3qzEMAERRT9Vv8J+Fd63BCCEbRjP5Uiy64puMknxZgDBkZ0YgljFoINUz64OEGIyJH+Oz2Hb97Rte/rgX/8offw3/g698JJe99xw7Puqpz/8yn+in/2PP6YVn2h+tiVV5rkugasNAGHZbY5DgB2lfhYgxJDYXJKih71UHyA2LEZ1YQ5C7bw6I6obMN0oKZNL3JcRZFVCcCl5G45RMj7TOlB2f3Dd8wKAIMI0VmU14VhJN8OkVMSrPhIgACSUum0xQKgggOSgqXac+7kLgCDMsgB1xQpyF4OaPjuraVS1PgglQPAcn9BtU2UvtPT2EC7eWVZ/5Qnx7tRUWPakT+ohatzmKPu3ECDce/SAunun0tJ9xwDh9z/39f7saku786d0uN7Jk4A+sTxJ6Uaf8LgQw5gAJBozAYRI7ceDF58xWeYYaK2awV4aYsD71DAPSz7LOWEuWbmOV0ZUAILAhlDFAGwzfHDOIPjvjQg7kkFIQpsn7tX3CC2gbX+EZVIgOZmDEH8fWuQ69Vm8bAwMgS4fq2Jw9ZKVSKGyw9gtT+JDQiHYkGUMQjoHSXGU43VZCWV2xwKEXNYVIOA2xxdfeUy/+ulP0n257rlXxuBpQ//589+ln/7RH1N3WMllK1qKNHHds1d2DK97jnOIRiHPe4l8ieqK+C96BsrbHI1yHQEIKlkKnFSVabHxsQAh6Q3fMVP0KSEoxv/xPh2vtVrO5LIs+UMOT3RmQi/9LD8oX6eoc8qr2B34Dw5gLK3NAUK6DddksiDyAYryUfCMxwCCmekJWx1lHu9X+t30QYVBGTvvc4Cg/P0UQBgaygUMgoB0IAF1WDTEgLtFihBfpQ9CDSDoXgbKSf9BZdr0tHbttaTmQXn4PECorWm5Nx5mPIZBaBt64dFDWp1xDkJPO2YcvvTaN/vTi0vaPjkn2h2olYSzUO+c0fu3l6QYQQC2U4UiWUlf219giCEJahCYLJEpfWIAEII3soxBqB+bCHLiYdBgEC7iODLEYKg961evViFT+MMR5d6KfKWSpFjeFeFIuDDk8fllzBu/mwoxjCsahGCSsXBTdochhiTCxzMIYwBh3+7pxVc/Sh//9CcEIOge9dScN/SHn/8P9JMf/h/q+s48xRwgqOKo9b1XcJh1UrSlAvhbEioEgwAjVwIEN8KI4zogrpU5Jk1wE4CQy0Ihp+HMRofHuIrsLgZDFdbLwEKVoYop93j5/KXPJBZoGUBwe1wrI8ZtjgDbgUFYBBAq53mKQVhqtCOgmQUIMcw6cfbn3j0HEGrfR35VLCNXoGaMrsWMhncxqA2Kw13CIKQQb2SxI5hUgPmsZY5TAAFwkf83MQgLyxwZIHzgEa1ONwkgvPG73+o35xd0ff6UaLunFSOlUYAwFmJIyYu1uGp180YSoVTBmk+BtUULy/CgnMuwZakesmfLQRgDCNGDdhNUNPyICrYKEOyLx65ZHFNCpkZtmnkvvZTBHpgMl4Z7iqJPxi+tt+qgYeXI3QKEPEO9rlxC8qNY3hTEquVTaGyYu1zaZU1IvkVOhDMDheIfof48KRCB67DXtTXDHJIsJAZh3xzoxVcf08d/6xN0/yMMEHg+B6JzEgbhJz9kBoGve1YGgf//MMRQ+pJ6ZsdaLddksvw38fkr1T8loHXgUzanAtMQWDZLgXGGCrIlM5u5rOnZAIKxId6jRTc29jjIz52f+jsECImdSYxA3lRIz+tQG7oRGdy9MtZgbigfY0Z7KUCoMcFzQGDs9zcBCHXQ4MWLIblQdRi3yuZ/1ATS6BAOEy3BesVVS3KPf3XtKs8F662sW375YBxrxnAHl7lmc6LtcXBgrx8kKSJR2asrkDen7Q16AwitAYQ9Mwhv/rNv95vzS7p++pT6650ABPlwiDvnhq4ek4yGpup56GnznyGDMNzOKIiDZ1YUc1WpFQh2YMxMwdWSFKfoseg1jAn13QMEfXPpwfC/zQIEGKxAC8ZnLTnI2R4W+QZ3CxByGm7JWMVIJStcbQQl9LMkXCb6EX8eA3E1Yzg09iNyXwO04d9YJjmUcGj29MFXP6IA4fEjO0cMEHr6/he+S3/ygx8pg+ApjURdaOkNpmmwTkWvk9q8xxQXjH78zljYxQFCNdG4BlyKxNkb5SAUa15lEFylekUGz8HV+0KP9+4YhFzXgt2r6cVRlnHkcrapfR0FBpX1KBmEvBvi0pM5/7kqQAg1fcvhTe7kRtmUpGu+Xr3o9bBE18/PYPiJMWfsNsIy/Oyu66TBXPkTbTt+x+t3WHGIITEIAhC++rvf7runl7S9Y4BQGp8lACEqWijum2yEP6dAY/FZiKVGmvumG1Xb+NtgEDxEO7MI4tkViVDPsm5zCmOMVr2tdyLEcFvPGzswS0HVs4yj9KqmniUZKgwQ2l1iEBggyGFigHCg77/OAOHHwiBEH3a2YQAAFJdJREFUgMAKNcmhVRIMJ14k7R03s5JBOO7byz8t7A6RdB+MOQ+LmbdRlicfQ3QSytEds29zM3v+cpbCtnNjO+b3yrrlOQjvd4AgALEAssesydxno025S4AwzENKIxsDCHthEB5KHwRqe5Letd/4vX/Tt0/OaX9xSYerLa16SXP6hf24lxdGAGNX+92tDdRSWY9Boke/22pT9/vxFX7WOfrmIzX36EEu/0JJLy//5vJPCvVn3vCzrs3YW7Fm8h5u6TzSMGb5qCc+WYTWpp+pSazCILzyMn3s039XGYQCIPzsj34akhT1LgYYuzL5b2D4nnFS2dXZz/is0a9jzYqM/LHP31ROojzf9rPxPMkIYfAWyhzvYtlkLpFdvIuXPCdHhId+104CluemsrN4eW/Ieix+vn0wlrkuATwcNTg0XE79gLjMURolcRXDN//5v5Y+CPuLKzpcbxk4qP45dkR3+HlJhFqoHG46jBTju+kThutWChtvVLzNcYkSOnofjDauG7ljxH/uzWN5AMe8I6rNEdPFLVCdLi8SfsJX0lvrnxlmDsT3qYe1WrV250OgduVj6ellzDEfdS3BM18P/O2AK1eXiBvnILzyMv2tT32C7n9UAYKUZ1mI4a3//ida5ui9JtCkKaq9uf3MU+/mP20VIlIHPpfYquMY3z397VBybBQA70sd4XgFx8z6ZvuJfIoQQq5L84DQn93FhNcB3nLZX7TeI2+Jsp/CI6aP/CaxkfNVnKG6BE+cOzCV0wdjdn1GP2DevAAEtgExvF8e4aVvmVBRaO00+qhndCQ1PJR32dUDXbxxSo1mye+2z/Z1fE3sWexdk73EPhXeISGGluj0wQNac5mjAARmEH7n2/3hnXeov7ymfqeerYMEe8Cc8PqgwgfljwtsxeDZZZwS8cc7BgjosihoK/b4DB0apuQP87DmXFq0Vcyff6cAIcWFBksksL8wOzNdGvEVqFjQWGyEoomoqeDpMzW28zrqVAN/G9oha9GSGZR2xQ250ly0CC4JmKy1TcRHUsiRrJG0NqibIf7Xtl3R7sDtQbSaQw/zqNnywjysIcvOofh4+b5EVQ9ZpGwf7bprMUXNjj70y4/pY7/1Sbr/kUf2DgUI3/v8d+hnP/xRxiBIeaQbO34qgwf9qYXVY+5AlL3aGY7iKetUYapq0uDrYL/UZyO7mmWpUkbsyWK6GJ4fUNrnUrdWxbYuy5ALKQBkz57XG7KWX5qaaeKRQqaR42SbGZW4DCctxthapwdWxs8l6fGEx6akRv9LebCFm7B+CNnEweIMiSwMjFW8UE6T7XD6cPFUjNMvUPvTaieeZR4L9wOJQCRfTvm0DnvOUuEMjMC+kURkP99ZWYO+y4a3aD5YNHVG894F5YjKmZTvUTsFfYZ279CDpp+tbBPv0u9UNCA74AYQzh48oO50Qy3fxSAMwu98q9/937cFICCPEELnRm/B9JcIxcy5jqKe/ozEkYKSOyY/IFIsWOjy+zGWlgMEFYMl81NB9bznoTI2unyKXhzDAqpP5pScGgagYCTb+GEuZjHa7XT2sCl7wO+KHeHUXixdqaD6TFlG4wMl5iGGfWpoElbY5uuVxv7QklZLxnc4RjSCEmUnt0aaIvETXVfTJTCJCW74BtajfKYwACUzUSh47BvRjn7pr71Mf+M3fo3uvfyAetz7cLGnP3jjP9Kf/8+f0oohPzKvvVELlFAwIzXAg6QsVGwHMaspLsiN9NGUGHQulwmMhbWGLTSlplncuClTAUJNvGW4ptSwp4YbJmVtMKJijK70bZH58wwQoQT9+2EB4lrEEvo55aC9Tuzb9kXoAJzX2snGOuu89RPlfsjyoFWJfUp71zHgsZI+Nq5cIhkWWO9ZzH9EP0fgEn6tukRBLX+OHR35c9sQh0z9adYgbIHJmPlI8uUxF3Q4jOvh+zgy7uFLNG8i01PhdmGtCqvtRg0t6tMz4z2j/6A3VfbT6OCU419KR0OBm7Kpud4tXaMkZ6zPZDj8LiFfKhZdBq99QPidJ/fuUbNeUde1dGhaar71uW/225+/Tfur6+yGLdFBAbXrOc2FCnEuXaX6omrvL05skFvJqWHBChQJ4r/weMS8GfLBRkmKlRmItKQ6FiiZhKZs00KySTZOE3BvJ20PdEUnStq66JnYqzIv3K8JY+1j5HkEY8seNytCjnMr/aPSldZV/yHdJG+GGOph7J3879L2OKxOQ3pww55JVnyIS8r6WcmN7ncSNj6MLsxCUybYLs8RBbSSWCqDhFKheq+QOGYYIjSUYQFesaqybgwZMNGx8LM7vu55x2uG/R4qNhhr9pb4J7vulj1702z5cLg5Smv/cYihkxZQCDftWXLNsGgTFayBzd9kST+SFIsspe2JtqPWH5brWEol7V6t1NBl2TQOywizGXJW+h2tT9d09tIDau93tFqvacX7sT3Q23/6Dl3/XNuks9Jer9ciQRKW4XkLsMbqBO8vgDuwM5zY6ODycBCwJDkZwhZxm1b+z/al2EvNe7CrZh0NNdJDX2TdFIqsh7EOLGPJE7JzEFXMQTPKeV94EIfdntousCEO3TXvQoGElWwVZ4XXQeKymQqT05D2GLoJZbvOOoWzYc+FscJZiBJZerIJtKfqsP1+p23SglxlgDGWWwZSsXQg/MQaAFA7wnk7LKPWTng17IMxxiamwrdQVuqZ/cYwi0evhgqgWgU8P5fP8jcFVXZumN0pWEQ7cYHtWMYf6EkYGntxRIRBqjAoNhFcEDs3rwSW8EUbpukJsQG8X6w4jAlo2VuXs6HfKZ03ADettDBjP2IPsBdtw/pZz6/byVxQoZlkVURf8MPbhro1N15rqfnKa9/o+6sr6qUcouUboGklikyVGRtH9Uzs71jAQGO6AgzGiNeCFdz1YS/KuVPtLkaLB8FlWJApUcgKdVDfJL+TygVGqyL06nGVLA8rsevtlvpeci6zvRNxFptrwqPcqwAVfiZ/+vTkRL6naNuOh93XDasXzJ9uXgUL4Q6/DJ0alVQa6d1+J+vKunvPSlAoTXuoJIv01G021LUrabXLC8jfwYJB3WNfRN55/Ji9cum02+l3sCqirHnucvWvASxbdlWUujegpKD8WHD4z1DU0pLU5saCPki6tDWXBqO83wbWnIY0Q7neMJXF2ff6DDZG5dryvLp1pwDBWhSXCF/MmnkuWOv4GVHmskaa2R9/h/0S+RajehCwpYaLUbTKhBo2XU0x/hwustasOmaVTfYE8A4oHAWoutAAq8JatMzA6L/lkqvoHAByT5w8zJRfT4eWgRKf05XIfN+vxIMUj1CA10GMseZtsIGVxiaas2Dr5GDaAaMKDkwvvA5ZNxY/BoAIV6lLL59npa1rqs26sK4yTgYXlnMjwMOMCX9d5OHQ056faSBAj2p+sHQvGwGIoP/h+fJn5R38nMNeZJc/s+7WCmRMn2Bc17ut6wZ5KsZkHRT57WAQShmE0eD5IWznzJnJBEbu2MjegXMmO2zf57FxPN11hemkqCfEYGG/glZzVgGwLx369ClrG6wyZL0uMs0YDJBMViE6yxHOKodBeW0ZdMJRyPxD0/8ZQCjecZt/zaty9MmqZmqO6c3ezO8Q0DoSqsAZdjUbXjOFjUBu4LmiI+RMJZ3PZ5r1qoDsooXL2GwAGmq/F9ni+ew46dp0UjUxFucZzqNSUmIPGSD8y8+80TM4YGFkI3DSdbQxZbPrD7RjT0ZukgP2SnHDrlVAgcMttowNnzXj3XEfeYu3b9jYsQLbc2SDaLNei4LQRQp0khtKLZ8RxcL/tj/QabeW8cXNkENr93fLe63LHD/zer+j7W5HO/Nw97LwvYCVk3ZFm66jB5szGQd/lxWNepSNGbYD7fueLrdbAzWdrNO239PFbutixBvOHt26bejB+pTubU5kzLgKWBSmXSPKz2ZjKP/bM4jqaSvKVGEI///Lw17+jed51q1p0659XsK4mK3iA+2KVwDZga52W6GKWKketjs66zayZkKeiqvLBkkBwqohWrMnAGVjiks3NMWrnJgqHDB+t6BOE3RF4erF8ZowKs5prXyvlbRA0xADh/z94synhh9qJPHjytivqy6OLu7a4UcD0NqI+LuQG5YTfq4AIMl1SZU8LBssA3gX/5n/45lturXIP4+XFSmfB6ydKFyL7cm+8jrt2Xjrn6Vkz7xplh0BYOLBAyebcaaGrg56FTv/H0uqgEr2EuUgr+het1ZDTgzA98Tnrl+1IkMsD/x3lAnzMxicr1cr4jOpuRY8J80pkf/slkjIhbAnKjpGoigYFUAk9LXuCc4ejDIDKTXE6dmytgYKRBW7F2UskgHPBJh1vH4TKzxL0zUMMBSQqa5Y8ZzMksEj4jmzsxL1hsxN5grnJ9HOGYAMtLviQpXopNzNsQjN3ISp8LXilUkAEJ6qgCP5SU4PNKxhyWHL++BZKuVsTzCQIksDcC5WXT1V1gcsMwjr+CnpSWRWdICxpJBVR+qm923WgSXQOXlFhugCOAOYme47AHBpRPEu6D0B3SaDCYbas7KybXsSLqorLCTe43rLgI+y2fmPzkG/weugjmgiJvIxMw2v519lK80zPjWD+6ZLRG/bh7S/CQCxOhxp7zE34PA0AmfU4VCEZ+L7UT96VVYx5+Ea4Ntx5XitWmr+xWe+0vMAYezFALPR6vd0vt/R0901bcWztMNhyoAP4oPNCT1YbVQRmhLa9UyN6ufZhApb0LTU8eGlhtbU0oY9oNWKrg872oIas61bsVlpzMuVmD3iKAc6XXW04Tuqw4QxWVaC14cDXR52soHsJQtgOewVrbOA2RzUmLNCX9FJ09IVAwnq6WJ7LcoFRpOfwe+6OKgB0Xm08tnzw5a2xjgw4Ni0LZ22HT1oO7rX8ix57vzunvZNryBFyhw72m+3Qq3z77asLBnM8LjtopAr6mlnynfNh7hpZU4MYFALrvco6u/Ya2IhZzB2KQBBM/IP2y09WJ/QC6s1MWTh8SCkAyZFxs7/CWBo6YpBIVPUxkLwexkoyqFgIyoMxEoOsnhCxHNQ5gFeFRu6U2rprOlEV/MeX1ubWN73GvJVz0UNObM7/B7eB34AKzgGqgCxrOx5jvDmWJ6ityU6EoyQhEB47DwHkrmATVCDpvX1nMHLoDUmQzoAKeRNuTaiNcszy5EAIo3z6VWojExUMuEVsh2UkIGcxVbkAbH1ddPIMyBvYrSDu4a14y/zuy97lnMJgCjYZSrRwKXMRzTtSgEy7x2Dx72ur7BnbUtnbUsPVx2tTY5ALauhV0UvypNlDHM0QwcFKlNtGnUg7Pwmb0nDLAhJyP74rdgW6rAH8XgBxFivuBq3fIXICmUKO96ybXqJwa9lEtDlfkdX+60YMQ+fiBHlfWtFhsHeJRYzUetqvpMRV4iWULKsdUMKygNQlr20vZftFo++FV3mYRg4MlBgQTfDECQDF1S6fU5A5k51hlDfxtCAJcQ4+UzueY92qjt4nVX3qQzyuLpVR21/YE5K/p7Cg/zcvOOfMxgG7Pi7/MP7xvItZ9MYJR7qmvdDnMNgde08sc5gncVryGeTrwbmsW3aToFFYD9Zjpgp9jwEC+mJU8j6gdfT1kZYcNbjEjISl0h09SWpYwfDznqGz7D21jjQCTugbBPEaRIkm06+ySK/58nuiq543Cap/Gm2b7y3PA8Zh+E3niOvCTuFDHRFZ4teM71j54znvFl11DGLYLpXAI0Bfx6J6GXR1a2c+471MX/WusrzEipn3IsNPzF9hiiAA8MCAEFGM8MqNEZLzT/6h/9KRsETFL3Ci7lnA8W3yDXEBp9/UkKkCisrM/Zuzw7qLfJLxIMxD0s2jf+u45fndmzsbPNYwNmg83aJ4bYDLp6UfaY99LLJfLCUYk93p+WepFK4rAyvxAyqYt7Y+9o9H4pO52gKVJVSCj2sNht6sr0SkMBGnDdhw32z2cAHr5OVOY+DQcIlgyH2wlnQzEjJ2G0D4jv4YPLcmFbfXjPdic3XmCneIfEpNrzmgSgToV4Kn0leV3h4YkjQfla8T/PmJbbf0Ha7FWBwZgIlh92vKuN36s89aun+ai17c37Y09N+R3rsG7oWRsOAnBhFonuylgzyOhn3xX4r6yHreTiIoD9+4QF9cH0i7/uLy6f0Fxfn8tn1emNAIig9o6f59ywLDNoedSf0aHMiwOKSelHCvK7MIu32BzrfX8sh5fU6Y9BprJedD+kKJjqHDzaDpUYBFIe8rnY78a5hAHgNRVGuO9ptWWr1kEV3A8oKWFtllEGMMm5Cz7MhWCn4ZakWc8KKl29zY2+fZXvdybuudzt6cn1F+92WTkw2+X9P1wy4VX5FwVpoQQEa0bYhent7TT+/uiAGkqqMgtdhBmzNSUZSlWShEktSYgN6slnL2n6o21C/3dLu+loUKp9p/sYlXyYtoFbli89Nd1DQhrMua8dJnQ3Rk91WDI8nNxuYFLxkzgErfnEQ+O+8RsI+aiiAAfjbl09lTzSxylbblLLQnRaScD1k/fQVKOv8mZDpujWtTcYvWJY51i8em93MKJ9v6VRAmbEfAhoFkctzkLchoVZjdQBSkKVh2y365un1lYBk8blY7zQrMTZiNEQID7TZbOhks/Hnsw5QFkYZEtY5apMOtOOQaaDQBcCasfKwhOlMcW4EBKqu1bwW1RG8KrzGDHwZFImesf0UPd8f6J3tlYBmBkys28R5MwaJJM+AZRxGHmEsZqp2sifo2CmhCAlzpjbCqqfsxwBF9KQZxIuuEyegl+vLWaeJrWBABfbBwn+XHArn/9uzM6IGmvUkyyrbEdbF4vj0JGfyjA0uw56mEVD99uGafn7xlNr1mu6dnIjDybpse3VNF9tLWncdnbUdnTUrAQ4SSnQloGeXxyq6hw2/2A91pljm+NMsc+z0Ka2v+8mAic/WvdNTPUvNStacdRrrge1+J+fkhc0JPexORMcKo83vsP9YD759fUmrQ0+bPQmIudeys837qnqa9fCF6BuiM2rowemZdGR31liYQGXcMqYh4k8/e7p7/w8Q7aehpvvi/gAAAABJRU5ErkJggg==;" vertex="1" parent="1">
          <mxGeometry x="165" y="350" width="520" height="271" as="geometry" />
        </mxCell>
        <mxCell id="6sAX6CW_VxseGW1VvVSd-2" value="When you invoke a&amp;nbsp;" style="rounded=0;whiteSpace=wrap;html=1;opacity=60;fontFamily=Comfortaa;fontSource=https%3A%2F%2Ffonts.googleapis.com%2Fcss%3Ffamily%3DComfortaa;fontSize=20;" vertex="1" parent="1">
          <mxGeometry x="280" y="650" width="270" height="120" as="geometry" />
        </mxCell>
      </root>
    </mxGraphModel>
  </diagram>
</mxfile>
